<mxfile host="65bd71144e">
    <diagram id="0-pPunws9aeoU1TgWsVr" name="Page-1">
        <mxGraphModel dx="2126" dy="1767" grid="1" gridSize="10" guides="1" tooltips="1" connect="1" arrows="1" fold="1" page="1" pageScale="1" pageWidth="850" pageHeight="1100" math="0" shadow="0">
            <root>
                <mxCell id="0"/>
                <mxCell id="1" parent="0"/>
                <mxCell id="10" value="" style="shape=image;verticalLabelPosition=bottom;labelBackgroundColor=default;verticalAlign=top;aspect=fixed;imageAspect=0;image=data:image/png,iVBORw0KGgoAAAANSUhEUgAABpAAAAPvCAMAAADzsX1AAAAACXBIWXMAABYlAAAWJQFJUiTwAAAAsVBMVEVHcEwAAAAAAQEAAAAHDRQAAQAABAcAAABAeMEbCAZAeMAAAABAesY+d8B5HRAgY8gBAQABAgTxHAA8crhJDQAAAAAAAAHuGwAAAABXCgA9eL7hKgDoGgAAAACoRUM+dr8/d8FAeMHvHAAAAAAABQTxHABIebkaMlEzi7bpVwDrGwAIER+IgHTtaQAAAAAVs7vTnEDvHAA9BwDsmwDvHAARrJ/pmQDsmwAVcPxPdqr19fVfHxf8AAAAOnRSTlMAHiUSAjEMBLMFu4mwsQkcU+vctRZu/pTBIKc6VNYsk7eTwKM994vYYWtsc/mnreHzqaXBrpKI09u4mUKyFQAAIABJREFUeNrs3W9zokoWgHESifyZBpfC8e5y1xlSc0vcqqmp2pfs9/9g26cbEIyaXIMK088PQ4g6U4me9OnT3RDPAwAAAAAAAAAAAAAAAAAAAAAAAAAAAAAAAAAAAAAAAAAAAAAAAAAAAAAAAAAAAAAAAAAAAAAAAAAAAAAAAAAAAAAAAAAAAAAAAAAAAAAAAAAAAAAAAAAAAAAAAAAAAAAAAAAAAAAAAAAAAAAAAAAAAAAAAAAAAAAAAAAAAAAAAAAAAAAAAAAAAAAAAAAAAAAAAAAAAAAAAAAAAAAAAAAA7vDxIMQJfr84AYBbpyNeAgC3b2j2+93rDve3X80pUFaEyYOsaKXgTkLaFXFcajG3+97KONnPpfDwvVVYhkTJA6KkjOPXlAIVboj2ZWIpbve9afFqJi1NuipLguRRcRLvaKjghlXcNjS4v7JIZ9L13cW8W48T7ymR4MJ4XbRvGpoQ92Vf9bmUSKsiJE4eGCmUSHAiIfk7UyCF5oPtfpvdzabru4qTJkR47+696de83FEhwQGBDMXYqG8aG273uTVpaSYVUiQJaZBNud3vphPSd9oquFAheTvV6/n2OmUc3OFgZhUSb9mj4oQKCY5USPt+S8PBnQ/mMoeUrmJ1PN7Iwe3Do0tIr7RVcKNCik9NH3Fwn4MZVUghFdL9w6PdSEhwZw7p3JQ7B1RITb/l7RwSB/eskDgRCa5USHIOEhXSgw6KmVRIPnNIVEjAPSqk4u3iqcMqcDqqt+z5huWcKqRelPTC5U1vvv3gjf50eBzWvlAhwZkK6fALkdumJKcvfKeebzKfCikcxEl+4cQZpaimRomOblNUSHAjIfn7bnJANyRKSXdMDVsUthue8zifCkkN4kTZIDnRmVd5VbMib8wCiTkkuJOQ+osa6qrWNZKST3n/vPzhEB65asTrNcSrNJpbhaTjo9K3OjkMzfXro2qzqQ/hEzJB+fkKiTkkuDOHdMgw2War8lBalN7YnWlUzEdSn504YLs2Ie2jma2y01GxsbZ1ExwSLUltuyq5SUjK3hm29+t9c8x2RZRQIcGhOaRupHq7qZTp4mbdwExi5wTMQXMPDcR4m4pX0dxW2al6s6k0vQ9NnJjoUIWEhomQPJcCuwkfpR8IzV4/WjAYfGWYUCHBlQqpaJuIuOoSUq5UVWWZzAboo21W6QfCelvVlen90kSMtJXxyp9bhZTXpgQylZCM72bZttafdIjkuQ4R89FFjf5UhRJMlQSWvoP3/JoSqaRCgjMVUjd6nUlCkiG7rFRVZoZlqiLcZpk+rkyikgPalFGH7GZ3HlIiFVKhCtNv0ccbCYpiu8l0RZTpvYz4qryJmqI2M0qZJK/cxBfv+hUbFRLcSEi9VXZh2RuyU9J46O5tKJmpLqVZ0S3QRtdMOQlpvEV2M7xSQ5LnOtHUuY6LLkx0D6beZLXSKae2iUrXTbGpoWJ5hqQts68VU5BUSMDZhNRb1KAbkCpsK6RMBuzyUlobWVHVNSgqZxZgvE3N6TykXoVk6JRjcpNER24STyX36VyUK4meKrf3beV+u5fJJd52KiTg/BxS21033d3cziGVttWpyjJrmp/KjsUkCQnJ5fOQdIGUS6WcSa8lb3OT7qlUJkJsvSTpqYkaKZh0YNXZJq9MePGuUyEBH5hDkqZElkbJp1DlVWVmjHTftpLTTmQYZkMP1/nzkEyFlJvaSLUL7nR0yGJwGbEzY7xxmLX3y7xSrZOXzkaZTD3xnl9VSFMhwZk5pK5C0pnI9HBlKqmqVKGyptf7qqoqLGyFRPsw6ljMbM5DaiskO4ek7NlqMihXFOW2TnLJQdKhaeaQ5H6JGlXKeJ0ZzZNHecepkIAPzCHJRV90myGLo3SDIoemQipk9EWOzIqqnCGXUbdCV0gzu5adqZBqu6LOLMasJGJMd8YkKjuHVDfDevY8a/380pTbKuRNZw4JuDSH1F25JMzNYu+qVnlZV3ZqQNkjc2aSLKRiyG7UKaRZrrLLdCEdlnVm6mkTMaVORKXuy5RNQirzNmpCSUU6L5WyWpM1dlRIwMU5JNW/nJaK6zxXZS6nI5W57t7qTecpfZ8KFRdddXmV3eE8JFl7qeOhjO2lO2L52lyTN7ZBUpZKh4wOH/2E0l69oZRzgPU9DNlxpQbgYoU0PDFGtBesC5O8OZA7m+s70z6MuJUzrJCEvdK36q77fQgee4e9DqIK7aUQVfOviB2uZQdcrJD2/b9N3dVKze9B9zf7uvYkYRLA+QqpuWpqYtOPDZou39i7+uknOXoG2xVDdlRIcKZC6kd+2E0o9dJTM8PUPcDm4HlIySA4ulQT9qvrrk4aPpIMnsB2xdkBVEhwZA4pPPnnPQfp6fJdbE6dh3S2X5L089HJP97H+3310C4VElyukBLKoTslpBmdh/RetddGUPKmviacqJCAD1VIyfkKie32y6dm8/eQ3q1wqIdulo9YZQd3KqSC3/iHbcd/D2miyam/yu6dCom+DechAdcmpGAf03Q89NJBvSQ03Vqpv8qOjSs1ALcasotpaB63yK6/ys4PPO9pOd85JDYqJOCzCYnR/ofOIfUrpPU/N1+mWSZ9ZA6JjQoJYA7pNzkP6flrttn8mGRC+tAcEhsVEvDZComLLzwwHx3OQwq8H5tsu/niT7VCYg7pkRf0oEKCMxVSgscIi8N5SIH39dfi14QrJMX79bg4oUKCGwkp2JVhqW92a3dvDgePmq2WPburd/IClnE4/HtIv6ZaIXmruPm2h6FxFBQntpNPIgA+HCPmlSupkODIkN2+KL6/Fs3W7t4cDh7tb+yu3unt+/f+teyCaMIVUnLiTT8bFRcihMD5u0EiYVJQIcENL09emgaRYQ7S1N56h+1XzU6eHZjt6AF2H9/Zly96+VfU6x1MdpWdl77Y73gYJoOfykTF8f7kk8wXPrt3dkH7kqfB4mUWF4UHPuv5yYuCK0V+4LP7u7vAfNgXMHpe9MvVqVZInr988YMx+TZ82F3ctWHi6YQEuJKQ3hVEuAnvZT1MSFOtkJYvvFmP45OQ4Mgk0ocSEm6WkPoVUjTlhOTzbpGQgClUSLhVQnpe+4M5pB8+FRLehAkJCVRIGEVwYexzUCF53stfzxONEyqkR4YJFRKokDBWOyNz+GY5w5u25ighTRcV0h1CpQ2T4DhMSEigQsI4+SgI0uVisV4sltGbpuYoIenmiArJ2TCJ0oVYppKSAhISqJAwcp9X35brp9YiPWpq/Je1P4sTTKiQbp2P0kUXJuvlUc+FhAQqJIyQj/xeOjIp6XB+qXz2nnxvFqc8Ll9Y+n/DfBREy16QPEtK6mckEhKokDBCQ7N8OrJuLnVhspX3bfef/XoOKYmEdNt8tD6Ok0FGIiGBCgk3yEdaVyOl3+qfYpdOPyORkG4ZJsGJMFkEJCRQIf2Ow/MffN7IF6Q4k4+e1s2FAL39z1ZKhfT4MPlwnIz+SgSLU3GyPGQkEhKcrJCC7gqY+pdgOckrBp1sOdJL32pgFred0PtXdhwtGDsjrU81NNL3lXy00pnof+Lnz3ryJdIwIQVRFxy9w4l3RPrBfWYBysn/Jz38qKmtboNxv1H/ZD7qldIkJDhZIelfAM+zzbJc0dGbZDtzvCbWzMX4ZxoJeSw9t97Aay5c3v6o/qhNTXCm49vMD6TerslHkpG+RZ/vWtx0uV4/IZkXzGt/Ss8LppeRzPLG4bdlg/v0txoEqRelwZkA8ttuUCBxlvreyAEdnQmTBUN2cLxCCr58bb/0vv5jmqeevCmHvD//+80707H1Fn/8efrH8P/9x//Zu6JdR3EkWgmOLYTkAQSYyIQHB0Yt7yoSEi/z/z+2p2xI7u3tfthZMkIKTocQx5BcXF2nTlW5kOsn1mPPeLGpZn1GBs54rHtPTSPEE48ASH+KRCZ/s0kp9XLbWfGPABKu6nA/L9eOLrXcJUP6LzFRxDP8a0zQkIZfiwn1plv/1Mr3RN0kt5WTF0E6f5GRhSIdgHS0j2VIbNMXBUV1LumW0X5UDftbgpohOydKR2CKT0l+9BTsW60XW1brYA5DCc2GIoip704/TfMYYUxrYUrS1JcdabWh5SvXVSVpCp0j8Vx9eEwsqhcgAZGyLKv/5j880PL8cnojJH0BJIUrXjc58WIZKSlv5H6odLxRE68xBfqQXMUkWidyLBcvmH4NBrNkqerKin4Ja2RHE0m2FtXYkSQzi21/8nORWiqrcwKpSeRPeQ0HIB3t8xgSe19ElYi4R9Rm8X/0Phqv12ErFQqClW7KDqroYcS7noFECcVjFPtfiBJroZaUd8R0JGz4fkRs3JIIjhgd8UhBiRtHgCVbpmJLghQt32rI7vf6dMpyOWR5tfrsOIT0wqN/A1Kyv/9YWj3IdyHSC5CC50qdQ4UbvvZ5IffEpKOcCNLOE3sTGaNZHoJwV3H6afHCcV0MayHxlJSWjRHBDmuWEX7yhgf3McCIc1SjZcFzfkPDBW2xW+r7PRtknp2TOlu6DoZ0tA9mSHQahuEUEsCqPJftfhgSVEXVeQtcsdaP1nZXqqy1UjDqYMfybcy0Ta0PIEO970wJaiR0aYXGwRjAGxwF7dP3Skjb2T7AlO689GBIgLHZqy0pUgSfJG9ubZNVzV23xeVp+gr91xeG9CclUmotwUz/py0/2Nd3Ol/ynPnSuxTXN4YEMbmEmhM01OdhP4DEiGJ9VwF6OlsayIWGwGCer/ZKfZhxFo5r5TsOBIm0851zgCLyM8+8skCs1IIr8RMbIWwQMz5z7y0DEjhV57bEo2cqZts8iuKUNae8qX/y2R2AdLTPY0gaxi7fQ5tDBEXRZvtx2UFZdKWbS1fRVJZj6UoPOlOOnRudTGfs9cHlNjk3epLky2lmY5Z1x+KQSRROwZ/gHTYYjGP5owqv8+wCIIFObe+KASAN9CiqIsuaIXkCktZfkxq20DfQWoCk4R8ApPZ2K1hsxL1pH/fbfhgSJa6cIR2YcDeO2GeBGSc/jrHLMJ5MbsKca1gozk3lzP5fYm8tv3hQJGw03qcSGzIsZgKS5CF2ZrTMnAh0anMifUpuj3Ro8roYmvuKUfoApKN9cAxJVqLNGJluLYlLsSOGpMB3VA/+U6VdeU0qTTrpR9dde6UrZccrAOk6eq0MUIdd/WQcBxJ8RJqurARwiHe4sySlKoxgQDJlDzXmOMeKrLvS5oBUweC93G4JlHgmzy9fjOi/pX3/X642IWKOnRiyLH+L1+4bICVpDkDi8NGg0vt+GBJPLfOeTuhKO0NVBXVPZjR9pZcuBqSyoh4Ihakn7DBBqiLEAJCAPSUAiJFJj4xK8spgxcJF1PFgDJu81pvnNFTt7VwDkJq2eGU1HC67o31wDEkoau9QNOfiQlLsyGUHVWEqrmegBKiRDjEAShl3uIcsRwCgW3qOMPXE+ASLVsH2NRMtDCllQBK+FFpho2Dn8otmo1iyatJK4jz9lqZvzJwCQyqKIj/dmqatviX0/rGui/1ro9APTgJEurwDkb7FkBQo9AlX/PEQck8xJOYx7HUTWgjlgCnEGeqMO4RpF5zgwoA0CU3AJjFPpDTzoXXiA0NCjwi9zJBwIh0AyY/4z1FFQBKToe0B6dQ2t+aR1E1T5MnBkI52MCSmFEAhTUNzobAr1S4QiclLWZauC144sB3NiQvRo88/emVIlgI2paXRvZvYpwRA0nzMqAMg8TMypEiUUlZI6OGkBmBUH0Pbm7vs6uFSnYtH3iw5DZEhaf3HWjposyVEAohUy3czJB0AKYX1sgDSTjy7uKZmdLBdGHdcoDHMgWcWE3a7OSMgBxPeCwASBMBKv3h77eKyY4YEVMJTBYYUU+uCsCwShzNORm0PSEnbDsMpyZq8vSUHQzraxzMkzucVD9YxlydD2kuwWgnVdyaoBgtwCTjECkOHDN/IkCIgMTvqoZV4tQjI0Ly47DgWHWJIgSHxLYq0d3znmdFTEgGJGVK1pcvumdSQc0yguNNtdcYkIuYii/7Hjx9622TtOhveQJG+ApKSKQAJ1+vxwLXbD0MKC3arrisdp1Ey+ugUv9U4EUo0aAGGJDWBGElmSOy8cyF4RPrlstMS1CqQo0CNAEh4kSkDkghZdhg2+zcwpOTWSvDpOiQ1JEdSw9E+nSGFZO9HxtqnqLHlpIadqBoh2TsXtYgtmU9wJi+76IgXHF0BJDEcgA3IkrMhKTxAVcgC73hoiCGNkpO8Fecr+zKccxIccAoxpABf2+nHJe07jy6YWyaHVdNEQAqIxKnqG+KHoEtWqze77AgmC39HdsMvr4tU7caza1kkYLKwU86zixcyDYZETK2JXXakaAJrDruefXcUfLog35yK74wiOXaCSkPLqiOi0qroCo4BJ2bVdsvlAetytfYB4Ujq4pI8bq+qhwcgHe1TGRIHIIpblp1U3WR11uyFIbF7rnQeDCmGiowxlnpjxtkbwI83E7r8ypAwpnTTPPsUFEm7xQIuO1OCIUmcx5dApsp4h6OssuPEPUykNl5g8qwcFDMZzufXMvzXt2x/gz5ZZ6ftKdJXhoRveDScPXEq2rpu98OQdOpH03lO+Gf6443XGpM7egN7xhpIgDe9mMGYUjeR8OM0T1zkY01+0TjcT+DMOI/3TMipYzHDeZRDzxSdxJ3b0EepXqW+zz+LSXKsQzraB8eQaHjcs/v9jp66fQx1vpcV+LwwysxussGM7SYzdWQnY6bJ9KRN2PMYAp50NZIq9EOPmEXThLUnkzPWV4r6GcjmAWthzGQV1Av3iBCdIvWGSg2/rvfNagbfeU23ZUho+Tt8dt9iSJCR7P4Ai7482mzIdhJp5IsqugnTyXgPccAUS2FmTPPsaRWYK/kOxMgDbDw+Mq6ETSOC4QIu7d3M693YrTtZ08cxOErhdJA/tn9AmTq15UKk39VW/VLv+wCko30eQ+KykVE3hrX4isRuimYG1wqXZRCxsGdYeB9buvqnYsFPfjUAIaG6UrB3yUyhpB0fH8+jRPjj2LslBAe5w2XAkI4DCVuuePx9cdVwZfnH9P/60W8bQxLp8I7M768uOz65CqWZorwotZv10+tEr2IiVo9oyol34apozrjjjM1+THhEGVIXQjJMlCXBn4twCdU6NyJ9ipuet8yx48v5O8OlOoqrHu2TGZJKw8p/HW4pkO7qtgKhVqoOprjS3OI21K5b9lQsWMdZdKPvguOGLUxhWNNoLlvGiXRpOFKtR3GdZ/6Uo9+m2zir8HcUqVpp33qDPrEhgHCeXf7epAYuEiFZPEKumZRqVxUPVZjeRUyWlyA5+tnDi6U1u2+7rpsiQyK71Dxca+GFnfQlZnxi7qLOpBuXN/+d4SKP208c7ZNjSMvNHZYbA6ld1XAOPyj+pPUG4L/PyPNudnNHodyaiOXt/sPe+fcoyiRxvNSyOx2SVgkIc6LJIuzNcU9ISPxjdt//C7uqBhx01GVOHJ21ytUw8mNRyv70t6rpMvVLXZfgqHpF+7n1sF19rc8EY+qGxtrZLQr0IYxvMarhqB5S80V1rsqj+InunFvHW/TxFedpUyNyk2gDzfSHzZ57HzuovNW60PDlNvhYf6g+IUASe0aF9PDWs6Qntxv7+TON7ddg3oTBJ/u+E6wLxnYK9P20AwJpdHsgffqiPKAvsZM4JVljqG88QF+uBjlgttFIxVixJ1dIf4XVWLH3byr5/5+c4pH5WKDvwhX67JiHyS1ujf37SpizLGpivea+8YDTaaRuYFCAJCYKSewWRFJNCWy0BwX6XKLj8OGayb3u+QSQQs8KkHrH9/QjuAnaDwMauoFBAZKYKCSxIaIxqLpImpiGRwf1kH5zPaSPZY7quntZNlafQpIShfT9Oi54GLZThwXYBUhiopDEhiGSVhNmUjCaqHpMhVtzWDH23//19lX2vEPb0lvzqe5PJBV6EwHS9/MTo+q5poKJmxyw+30LkMREIYkNk9DSiPp9rFfbzsDsVzdkhxPFI6mVVc2CIYwFo/E0y7jwnheO4VNAQgHSdxNJrkStPfYTAZKYKCSxYRNJeq+M9u3M0aCG81kf6jqPMq6815cxxvOUAOk7uskJFAmQxEQhiQ3f1hwsuJFV3QJ9xpy4NK1xMdisfy1YIwrp7/ETAZKYKCSxr2h94JXvif3NBfo2f+g1oKsF27PyngDprzMBktjzKCSUH/x9Wpn91EHBnh94FknYu/Ke5JD+PlcJBEhiT6OQ/kbOwi3qeA99ksbMfv58nZn21lf8g/DpN4v39TmkE7fiKmkR72mikMSeBUjTtvpKW5Tl8R5HZ3bwcvD3mT0f45MdnEr99yYYdzikAUbqPGKnXnjPkF33E4wf9HFsPfY5cJ5eO9/wOzhjtEqAJPYsQBqL3c+yoMOOIF5651HSNxR3PZCC6YfdVSbX6o42HUtLJfZkITv8HoGu/yuAhw94Lm4E3Th4vxLhYrncXjjVsN+whmtzSBq85fj4AO8hO/wWl/sKZ8Ze/oK3P398PxUJ2Yk9DZBkUMMds9XTYN8KbZeL9dI7O5WqK3TUSyFdl0OiPb3l6DiPJIMaZFCDmNjte5My7PueBh0gheWkvKCQeJzd/OYhO0QvnnvLzFsfjqAQIN3VTUQhiT1PyE5+8PdraTohO7LyokIa9xvVQEC6RiFtl8vFkp5zAZLchyQmJgrpqRRSZx5UbS4qJK68Z3pcUhV6wTUpjtF8sYyn5vAQAqTbm8zUICYmQHoYICFcHGUHQb9bY3Xoja7KuZfLeJkZLTmkOzDpdH0mAZKYKCSxLwdSeXGUnfLCPsmh64CE4C09s1hORSF9sTpqYXRihlUBkpgoJLE7AOmSQrL9RivglUCab5V7CpC+kkeEITWrTVmphyQmCukbxzms0Vd3UB8ASOYykHreYITzvtOwXqDS8Y02AqRb86jFkTN7SCQBkpgopEf97dqjMDv9mqkt13/YiezkNnQwRH0vIn3IIW3xPEr6jue+Ekj4EUcCpFvzyMyODLo+KUASE4X0oL9dhEN80DtqpfQJyaO7yOIG/RR2tIGXjX4IhQQwzS5NEWN6DZ9DAlIms31/L59Wsw9mOm4uQBIThfRoSd9azsBLcRTPsFDkBVh9RKJ9kVb+wZsirRJoe6PtivoPSPMX2MuuOqPcvtw6mncEpCGSQ25GByNA+k76yM5OmH4nkgBJTBTSgwXqEI2lny6ucoV1Elhr5X6ysIo29YfQ2AAENezHKjFzdmlR+EQth5lmTbsxJJFFrc3+/XYbdxx1UyIdAQn1JZDongpp7IUaHglI+n5Jur6noc91PTor9I0+y8d4XUMkCdmJiUJ6TB4BWMW3jhJ9fMuw0UgQoXfYOJzFFAGtEF1UbwJJGsFeQiU+IYdIBg2Q+MkHRF7GeneSUYqPuQeSOw6CuWU87wYK6fo7Y0/ZZPrJC6bco2nPtf7yLN1HcDQX9ZxKgdMr3/eqO0HsiXrYE9WneTSz+8yoAElMFNJD8WgT+X5aWB2lfp6mfoKrNE1XRbpTpqKlF7DwsktSP93Q0qbyU79YtR1bC1EFyS7xV5BUpLGSyOCK/vQjpYGP49ClC98vigiQngqigl74eAnesnv/KSD1vcHIDp1E4mON4RPhS93OKKHrHsCXj2N04Dj8P6l/cYKLDTBp3cae5hGp1j2R+Iq9bAYlEh/qDJBmWkJ2YqKQHtGA6LMp/A0kRZQXSbHBTVHk1S4qrEmSKHcYyqtk5afUDqVVsPFpTdv6QFUEeVTkKyx8TjmRxkryaEVP0EGR7FK0LhG1KvxUQ5XSwaodsYreSfJE2wcBEvZTPq6U37Al+uzrf35uLPTHCo7nWZbNM8VTySuYl18essPNy5Fja+vvTvCoHnxJLmJPXyHyAlt7AAbpCkihr4bVSOcE0mymWn4KkMSeUCF10vl1wEU3oReXrVHctBhUul1zsKpOtShzm5SLhjypcyzcIPASd8GJJxyzQ9hwGwEvOTcX+Qs9N0B86QxSSoskBfATYhGxh6hEQKJDFT4fBwuCGG0TWWQYYbQjcVRVoHcR8jb4KCG73lMwELnmg1XsocP8/MfZBvaRsH3f/dAZ3BvsEHoex8t1XAYOSCZcfFGvpx3fby1dc3Aj/a11p8Ch27Ry52r5ZPmD8AJy3JY09I7Vk20J1S7QGuragLvXjbs87GeJH8CAXq7PA2mGopDEnlUhtVGO5qWOt9RzpynUTdOETSyGfyT1JqZttVzOhbe4gVGDkVdRQv1tS0AKNHdZdUDNg7K8kinEzcUGHIwCpleUvp8JNU7FTivCFokjVkhIrYpyUgmp/05csqh4zAMpKLenZSApP42iqMoDNN9KIblpWB2RhkGS/fVPY692P/DeILSj6eF9WL3zAJfSU2qyDs3E3eVFJ76GL+JR47j0kha2WXLfQ+2v2HgpQO3v1OGIWF2TU9HVd76v+aVdMPtteS9FGpv8J4rADnjO7ZDvN7bX1zdeaoEkOSSx51VIOJ/TbzPMCEDZttzOkRtML+Zu+cTzvEx53phWh+V2jCSVwrKkTWA+98qRV05JVmTbOFQ4vEbicQuraOf7HL5f5RzJ0IQQ7q9yb7aOokCQNwEVIky1o7bj/QBpUrBCYiBRL7hWSMo4IFGHmtZZDPyCOBSloOnJCokQtSuKqCjs91NIMCYiKWiq0uJVd8ki6aPfbLVGomZ8FE7ofwjJYZRXlt6EodM6w9YLce6F9A3qRYjuE27jebj+iiqQTs9Euyohj4iinLoTBXUxoiixRbRCeitin8AkSXYVL8Gq2lWpAxIzhj5ZsQJj6cU9bcFCm/ZiZYiTYhetnMeRZgoG5Cu08bm3tx8/fsx+vM3+9da5F0mAJPasOSQoY2pIYo/alYUXeos5YLYo5/FiBBNvu9yW63gK67UXrtcTxHIdeksPwFuEMf2LAcIlrYpvMO2Bbszn4QY8yg54hJ0l5rCKQ3rrBXQdqWOxRK2JpbS7AAAgAElEQVRIkgSdXizsik2eJCSckpw2ZBmUsFSiFzoOFqmhhrcBkmYoGVZIpKss9e6JWd8rh9SkkbwwGw0hkTYNj5hIvwjnBrLlGOiFuh5xHIZxSS15uSBnCDUBKV5463WICtU61MrgdBGHXvw1Com1clUUeUSoiXw/qiKFReWnFY9NSaoojwxd9cqPCr71DFd+lFSpE0B1Xgg48Wg5RJfTU+UJQkF7JUyhXR4VVV5vliZ6OImEs71CYjH2440enSSSAEnsWRUSbLcOSAhlSc18EKCmPzSWWw7alesRh2PircbJIgQzV4jzhQIvhnBNCINgkdEGa+odD5+hDvxEqY2LqlE39X/sXWtv6soONWQyVhRpmqAE6AnkaIdwVeVuISHx4Z7//8eu7eGRULpPH+HRxosWhlcSiJk1y/Z4sjIzNivWi6x0Bp8zoprs2SskdvPbdVMURXZM2OYsO9NMmllpynXjnieVV0hGFFLpZhPaIMzWheOcCENbo8aWw1BFlp2yx7+PQmJGynIStXlSh+PRKAts8DnYwL0cCYkY6Ym9WGE6BqxTZ8Ip506EJK1T2mc4JQMhosrF2WsiNhLLgxxjVssrGMXrcYt3uaIt+RuoGv7KHPKJpaNkR+KOdJAz24pGITS2Mbsde+EWHH5kQoqYkMAT0mQBSDZHT0mbmY5GP6yQOOC07dNnd1BIRlx2REhHh50qJMWwFdJqI4QkWifhIjajNE+SepNyMGkZU6fib4BYJ4KsrmMiqXgD+RzqlDgpoRenq2t04JyTXXFSHLW3kwkNYBd0PREnXiWtmfQqEgyALd1fc0+D+7RvllDAaodIZrKbVaKzRCFRg9/OL6Z3zTjDDmfryZb7HHpxta4y+H4KSYJ6YcKcdED+qT+6OvERE5JznpDohFvIlvOkDsgUVsuazv2UPXU8RrEccyGFxBO7OJLEI5Zb5H0zb8wWBcd+HMeQJL2BVa8kXFoipMhF4o1lboJdJYQk9lHuFRK9c7LASJhJpBHzEtvNhLgtWHve6pWQzCmG9PevF8eE9OtYuQGUkBTDjSEdCMlBvpmny5D9LZvNZh5b+rHOmZD8DfUygDE9N08DUUhzGjBjMpUX5/2HC6R8alFYmUYCkFFPAyazzmWS1JA5/peqqwictLDlSa8cDjr2+7N10zSk+ByUhSOZ5SyP2B2/I+MNOUnWKySchNQwaDkikRUlXHVm7LUUktBvFITEE7lH/KkL/f3TVkglh15qr5B8fChNcwOrdMXnvhZC8jNJwZJCskau8WYxJLOoaHwiPjYpzEHnmGOCfgYAVF4hbYlgqAnssquqzHiFFO0VEme3WNpEJFdkA7w5x4kvosF5bNYvIZ0UEp0yjiGdJBKqQlIMWSGtTOAJCUwQbOakkGr0KUeREYUUmblXSFE9rYF6HyKkjRFCojtoInOVDpzJRlKkfPE54HoMIMF6X2mBn3SG6ywgB4Im1Ibtrs1ni912++zzB7m0HbuU2K8kn463Y/x2ZxPpmMBPoXTs1Hc3LB3Un0KC/RoSnOMWEf1ax3nZjrj3A9f0Pgf/7bjsWHuE6ciwQmIvmLUJGULMfjmunSEKaT9zgBUSsqJmhXQbQuKkOJvNJnyeWSH5WdFMSHhQSJxASbbCnlg7IyHMnl3jiJCsKCTjkJmMG06IzYhCMs2ahzHHGFKPccWWQmLv3S/JstvPlY007VsxWIXkTJxGEKQxRJw0DKs5cASAGjkTDbvyiJIOCqmeZpzQYI8KCYDeCdkmNNfpayLXLiyG7Znupzn3MsexrCZ0qUo4FSFzPiMdcR+NxtMsfXHqSeIEjZ6bHXde7lgpxjl8nOKqH18K9pRgZ45XHzWQp1ZSw1+SNzfiMBHZCtaxpTNOhMSjE6w3lnYn4SRJDScjIdOKlxZwcxNCoo674cBRM7E0aCJOkbRvnlfmE7iR/XSRJyRusobmpzgq1HimqTgthnio2pIkl/ASMC+ReuapBAtWSKyZymtk2f36mzXRy/9enl4OEkkJSTFYhUSdyDhNNysa0kZ5Ol/N09pgtlxulssQRvPlNJ1zF7OMSYOkNPjdpKt5vFyiT2qopxxWWG7SeXCtvgff67cBKIuyaNcc8/MlEf+8aaKgQCYdYTu/L4q+qULqacTSSfsWZQAxO2dpLBKSdZAZUO+fTzfzNDZkCcspPZhJI13ORzBappvNrQiJI4uzisNCEQcAJ7sMtpM1NRoOGFbcKmG3Y4W0ZX7h8GFjpNghsOEU68lux0xWrKtqJtPZJEC55Ylw/EjB82Nn2z7DinhMs4N92OjQ4rZWalAMVSGx3z/Px+MxdR6jPM95sgXYhCe0oK2Tuk6SscFwDJEJxwhBkicwTqIx0VWIQc0TVLiIGty7srNxr1c/kqzxfzswcf9FN10b6coKqR+cJsaavQO0zpOgZtGR5HnNpW7pkTykxjhJpGIQmYJvoAnIptg6bjEtNjLZomm8fsFisSiIYxYFNww8L+iGpwOUPGmtKMHNOBmzETcch4VYKZVNE/BTpmgaW2QIhby/IIVdNAtXZDwBe1Jeh5AulQ5ShaQYbAwJj2UYnNxKEgH4JN69w2c/Q98/hhK7kTI+EnaxIJPb7w72y9lPzYbC60aMvqNCYrwIHf1THt2dUrnDWwd65udAnJO662wE3pIkxMfr8ZL54E14Hp345pzsDSQy6OtNwbHcK/hyDITndUkHLFndEdqqMccfAIsl438JnBwiH8gZeYwz8hro0ZGLb64+cSrUoISkGKBCig6Fv04l7CKuVOfOCtZJqTv0dcv4T97CWWmHincPwUlX9QsOSyEZeCpfXoiOXGT235Fz6M90u5YdHsoZ2uPyEwczudX3evLNcj06sWYnFxmkRNYXqpMDNqaabLdbLrjKEs8u3P4H4BfN8g2/Fef2n5lzvouiXx/AH5afQJ2HpBiwQjovjtDu2hFbC8y0nkM8q6agC4v+PIVEqtiV3LubdjeKZ3ZyesCvdoiIdyD5jgl2l7rvmDTnXSyapil8RqWDvYhrr3sfnX2yfSKf7dnI35JIRpefUAxaISkempDupZAYT+FP++r3FWHNfpVgX+n7PV7BqHc+OtZXvVjqWwlJoQpJoQqpDffjCOmwVEX0MR13BRfAZUZq14RUQlKoQlKoQjrChubnffuP4mC+tGpsZwl2JSSFKiSFKqSfrJAeSqydMVLUTUtUQlKoQlKoQjqayY9USI/ESHRe7Sm9DrsuRCUkhSokhSqklstOT9a1NZKR5ZbxkGihhKRQhaRQhTSYGNLDUdKlthKSQhWSQhWSKqSHgRKSQhWSQhWSKiQlJIVCFdJQehpVSIp3mEmmhKQYjEJC8ybweHXpQXzjz/xhi1+BbP0PF/474FrH0O8HgjD7LgoJLhrHZTO4+H/ZmMzVTOWtJy5fzu90P9qrV9/YTFQhKYaikOpQcUd8F4WkZnJfaE+lGAYhjW2guBseN4aEpquQ1EzuiJESkmIwMaTXPgJZy6bdIZnj5d3D+X4u7WP6sDuyP8BXj/6t7X7EZXffGJKcgc+fjP5N4+2v+nw/ppfDfm1aX/0o7ziZ+x2py04xnBjSu6dJfKzyF/bw/3hTRfo9+kfNsjMmSzr7siHe7Wv87Fd9EyO6iXVrlp1iQApJs5h0HtIrJNO8q5B0oStN+1YoHkUhKQY0D8lmEE4TyAIlJCUkhUIVkhLS/RQSQj5d5dM4nsYGlZBu6hHuNpSQFKqQFANXSAaS+ZSxzI+7U0K6RSzKT6R7TUlKSApVSIqhxpBoH6PldBlqDOlmdCTLqEeW4Pb3lJAUqpAUqpDEabeaxtNNayqSEtKV5RGRUGt9PkRdD0mhCkmhCsn77KYbE09zQCWkG/GR665gDh1GUkJSqEJSDFYhQZCPwMaZuuxuxEfwdI6ozUhKSApVSIqhKqRDIEljSLfSR/YVIT1Zc2IkJSSFKiTFcBUSSF0cMxxCenfxBOy9+gNe0EdnGkkJSaEK6XM/Lot4+87kDjv98Qqpq5ZkPSS8MiNc206cww/bED1xODaMHCdlu36NDS/qoy4jKSEpVCF97scF5jb1w9r3zC12OiyFdO68Q+oRv84a5++3fNmLEz6H2Cf7nJsJKRF4axfo6CNeeo4tGvyWvHFHfXwPXZjLfPRk1WWnUIX0tW7AhoG5LhcZ002JpUeCIjOfdcGoQvp3PnIv//z+/Z/SfYX2kccN5/c9zwoRmPG4R8Px7HPe8Relueyqo1eXzRsKyRXPB0ayhUUomp4Z6S2BJBJJCUkxWIWEXS/5qU8/+s0PM/b8vIn9b7n9dhgtE7BXE0U8kC4b2yUbZ5p1Aw7PmIincuCPIqT7KCRjyt8ef1lohVCwXeqmawync3CyJOpVk4Np+IcxWcVxvMrlWQubTQ+GczJTaAoTdSzZBOtJ9xjllsc3Dp6rBUTRueUjWlisZyCTVR1k6wJMNjkZ21UFkkik/7N3rT1y6ki0gMIWQvKABQ0jHlIwrLIoQmqJDzP5/z9sTxXdSfbeu8mVpkfam8FKuh1jHmlO16lTVabtSUhn+5gK6TDgGpDAtwDerJb5GBgkIz7svWNvq8p1ROfI406OLdgrLmd6Hz6CQZYoDHWLI7kKthr3R6OxGY/LtnybDLPt3KmQHqKPhI++fv2K19fDIZEPmuxhzHEPxKIbfOLmwIY9UGHsbeQ2B3duCxIy0zWfMpOKPFxCXuv9skJIDwgJOos7L2ehqSG9NJzaHdfFa+8OV4pZ3xwLzDUWN63WHZd/QPxbhxJlNisHFkJyZHz3SEb6tiD2szS8Se82xKdCOtsHVkgOyE80Ts5JpKFzGJUoEZJiSiIDTjA37sLXmI451hgDtjAyOWJTvodCEqKsqgxW0FHvq0zO4Jw7ckfOiXqQDrtKR0BRrvcN/2aE9J4K6X//hKB7VT5SSvq3WGJxRbLIqrtizPHRE0UJHQ6MiTRYpiP2PseoBgpspKO3SO4hR2UqcBMocXi7QpI776pKzu/cBCHjpJBB8HF0iO1BLZVR9URJVe2TkEzvWf5nmncS+jL3DvaymtyCNHJOCMnZdX+kz3UvsXMv0j5/enl6enn5Q8zuJKSzfcAcEuV5PZQBvmS0DUObEqxLPgxDHrM1QToRhYLroaIw2wyb2tlS3A5tUQ9tTGlbtvUwP77AQEL8u/fTmtDV+8VPfqXOT1PX+N24K3rPJFGXdfIwL4bGSaaMdCqkv8dFP9083vkIjPSaiFRNt6Ith5m4GIYtDkMwuPXDEBJLs2xS5MwYyY0loCTEW1nHQ3spAZWIN7gsFAEvhuLLLLI7C+VQi0J6s4zm1Xt/7UAwk8BkN9x4v3aT77lX2ICVmkbG5MOXyXtXATuThuHo2sOtufaU7fhr9s5Sg72EhQjH8L0QkuUEI++QQgINQRmBkF5e7o9tOIsazvaBFRKFsk6LS04Uthg8IxRVplHRFgS7kkYzOiHn/DJTOVMY5gibKSmKst3qOrGwRLNsfLxCgsWYqnGdRur6den7fuSq75e9WVfnZEi83HG5dqOfyDLE0fMkkf8zh/Q3QnLyYqo4TtN0/nNLX38gpC9C8pRewgyOqTie8zKEuqCozKN02ORn/fIZ5JTdRgJRWuTlltczYNK2c1EkHFoy8GpEiIOQSFFWpEUZ3gwcKJ2lr7p9JaADVNP3QAeY5NqsHY0YapSQln4EiIjWZQQngY+sE9IBN4CxMoMXo52lZ+ANhyRob7g6XaOE5BgncA9XSFZ1EX0SmXRPIrlTIZ3tAyukAJNCdek4gZ2qLjFRG2ROZmjIGWOW6i3bQp20UQVOYtmeEcHwwK4VJYxrVRb0eB6wmRgQYgnkd14viTlbGrHSlkFFqpBgLqiDkemWCtbGu3/A4qT/B4VUzUVd50cLf/wT8u98BEJ6ci7jtAQysrIGr8jP+DFz3kq8FogoSoMDYjBvIbwwUXBxSdnKDyttwBAglAJYPNRsMsk4WsNyKKK3KyQQ0qrg0CDutFoNJ9rGyyOQ5Kl8e2Ox6boTW/grNDWcsdTD0OhHVUginJyQ0cFMPUs1uO8lpregmyghQUg1D0wifatp0JDdkxDSnwq/T0I62wdUSBrGp/mCkQLG6BIxDEwb6hTf26MD69JWW52ng50vFRubw9vNzADbZGw9mEyt0nsopHWZmrUSaux9IrF+x5JiNk7SSp0/FNJ4EFIl7HWd6Hcrani8QmJVMNLquqiLv2rzfymkJ3YZzaWE24YchDSXERsjnoxhA16BU2JNBjy0Qx5CuEh0rh40J2PgvbBAg9oc8yq6KSQDWpJpb6+ys8IsvmkkoOayadXjQRFNgImmt8BCmePrFTwjhNSAvUYV190RhCPhIacKqUdHpFFmKyEkXj0fiINCUkJ6uEJiCdl9VoX08nTmkM52KiQ6CKmMKJR5ncPswGTUoRWzwik6MBxpW4RoK1qYlAiT80H2LguxSnUJmwBCejwPSIlUt169P4xHxSJ+xDxoB0M/KCTMgTu7T142ngrpF3wknkdezHFidNUn/yqHNIqFT5WQII4VLBJ6EzKxpiwsFBJuVllz29ZoRayEZI4Czi0cxQ1FSSHIDkcOiSIF2BbemnzUyuy12bVOWyhHixoYhOS0AO+7QnKs3DT5q9e5lSgkJSRMEGHkV84OVhJCwjWuCykhSTGEEJJ5GLZ+yCHBrXOfRCR9vlfe0UlIZ/vQCimDTbHRBfhPIIGyxDIxWAfGA3NDS/EWaliWHG5tStaKFWECUaGv4ZrkXRQSzATDYEolLxSSRF+kwk4ISFfSd7AnR1GuchM1a9c7+u1Cdo9WSEyuzvM5uVc1/FWRnbX2GyF9+fIv1REpNDRZyKDMzhKmVb9EAHML2SXAQ9hwVFtJaLWQjTdlpMtgoaiHmeTGiZ7GLZQwL0jt7VWRrDCFhga3QSHhCjK2za7nx4n2RmK91yupWOKu6fpO4sAZH6uQRCGRvIhKAr4kVod+j0+mX4A/rbIDGqdHFjXcFRIdOaSXH6vs+FRIZ/u4ColDOUdpGWBR8iTOL4W1bYijaMBIm0dRjE62wQ8OZQED0kZRLUUNaVrmcZqwKUMke71DDolGv45VpxaiW7qxq6jqumUdu4yzseuXvnuWDQchVcva9/0z/W4LYx+vkIq8jg8e+glrPR3rkMBHrxJnyzi95HGUg5WiuC7nNJVcUJ5EW2upuNRxtJVCWnUkIxzHeZmmsZZ9t1GaGpBGfRFFZeMY06PYQJCnkRY1vPF+SXhufK6uk8TVpua5GzM7Pu8eeIGg7sZpHzvopF3K6hqmxnd931mS/UQoQTwt47OssqarHyspfAC4FGaULNdqXEWTZzeN/vh1SN/evq9DOgnpbB9XIcGtzYdyM7Ar5TBozE4quYcNPvTcDm0ZtBIvhkGZiZOASQVTPAzoiEiaZa/2XRQSdBFaIytCbIPeyp3X1rHZtdNQ5SGOOnivUhvuvWYAToX0M4EEPop+VfUNc/359qSGV41rSciubuWGM2BS4p5LuTcQ0CYCnBpDkhgqBrTYUo4JABULkekQxK2UQuDft01ghO0y5FDdD3Bcrn7y0MuZswKQqaI7OrTGWwBjmwZ0AgY6MLXsjiX39Kyhu33xDdSSrabFr+hQozvtEikG6o4K8IemkNDuFQzfaxnuZd/nkxrO9sFzSHEsTzugLNXlsIYoSiU+k7GNUlnomGmUTGIh2BTz8VgvPta2k03NbYX7w3NIBEl0PPbMSl5Zljfemyynl9iSXJQhvK27BPVWT2cO6actqfOUf3m8/7B3hb3JMkt0hGUnG5J9wYBgUD4I3tz6gVzTRnP//x+7MwtYax/72FuVonO0iICwdcc9e2ZnBzrin3/9l+jo37bVvkRIExO0b/oqIDsiqeWGh3zPTakGFbgVZwxtegZnLYoqKFombdW0mTY4Qo8//VNF68qRkHomzkOrOACT0zTwkp99cQ2rG9rtO0ev5o6Lhc3KslKCsp1azSvKqj5rA9OwJXGllHGHXnWqHZ5NHYSikATPrJCaBrDLwcOT691PEaCbz9NOcz/KY8fc1BFQ+0N3CWUQbzD7x4UugBsVcvynmCE/QB0KYlW2TqzWq7dHmxh7XYWkoA7TC48E67cpFUzrsvN46tJR1aN2mbR1G/rfJYNrVw6ZeLqeBaqJxwF6PT2ozsquknuwM5M2vZFp+US11mH6i/W5i6Bcb1RiFhxgh85pxzmGOiNzGYgOH+dPHuyvaEPEr9fZUuYsIcnEWMEzK6QwNPaQShWPb0X2IaEmmve0mXi05yRt5bVVku162/1F3onwcNm2tz5/Y7/NtgQrY0hfgQTSZacjkeQHeJilGeQTZfucb11mw66LUi/1xzvYHdVO//E0bpzNdQSEp0b2UzM5Tuj6fv0+7WqXjo8JczN1GT063kzc0pouXZ/t0zYeGz3vS64cLoNnJRIqCfsWPLFCMtr/zY03XrbJ+W3mZQJgJMruKyRpqC937wXq/Uv3z32zqC+4VaLv37JqLuUK5/udl3PsksI6df/+6XP3TUJz/XtvKfg617cQkuAJFVKbBPkBblTtHC8whsRBQyokBcGFHjsHHRwpGfVnt6zLvP6XEcTT2yIN2b+x/F0qi0c3VbmoW3T1W5jjHzXSEWsLIQmeUCGheQQ+4rED27keRSF94Yarw+jysxEhHctSPC9i8e8t+u+oGh5vdBm9cfiCfL4nkrtjhxCS4InHkB4HiCNh1iEVUhTW3yIkFDu5mVj7pJH0hxAPISTBM44hCZ5oDAmjS2MaThSS4AaMpECd3Lz8+PsWQhKIQhI8dJQdnc0TQvpFATt9+DffffdkMFcISSAKSfDQCkl962xCSHdw23XV/HmUTQhJIApJ8NAKydDZlBDSrxJJ5yCEJBCFJHhohaTT8BvXFkIaEkJIAlFIgju0NMMpJCuENB4zSYSQBE+jkFB9ATz561e+fqovz/n/AM898CSr3dWvfEMgBMlQCsn/JiGdNY+Pz/5xbAh43qZO7ebGxvLBcLrlezrES040jJmIQhI8i0LyrK/9P0HzU7cvp69/e1zteSjLl4/j56GUV8WPSn/+rHo4haTDVH+HkE6+V+1fYglfGMRVzUZ/qKpvPY4NR5/U+ZlS/tQs/vKvnHx9bCYTISTBkxBSHQiGQz3cPKQw/A4hiZkMCk9aKsHTjCHhOXThqO+ZnbtX85fHz2A+XPB46+nf+67D83YwPyn9mWMHjLLTaWi+5bI789+e1Hz/7A3BnLEI0+/5kdWYC48x+GGBf7CdP57rfVf3T/3fZnHpP3Qcd3fIpC5jSIInGkO6aTMuuBohXVch2e8ppADFTAYzE4myEzyTQhI8YZTddxWSRNlJ2LdAcA+FJHjCeUjfV0gCISSBQBSSEJIoJCEkgUAUkkAUkhCSEJJAIApJCEkUkkAISSAKSSAKSQhJCEkgEIUkhCQKSSCEJBCFJBCFJIQkhCQQiEISQhKFJBBCEohCEohCEkISQhIIRCEJIYlCEgghCQSjU0hoPt3tGY02+ASE9IsVEh5VyrCVgdZ+vD4ag0JIAoEopJvwUZcp+n0LGmqkR9roPIhC6tNht5WhhqsMujAR99H1+zTdQkgCgSikW8Ceti9QZIX61DLZMTRDD6OQULv9qCGqEvV5790qA152JwrJikISCEaokPh32zo8sH3lDbp1iPFS43C/bC6RJXFkoXjzXRujjeUFlRA26w3o99K7g5FVEz4UIf0ShYTHekQ7EcI0BG5VQzULQKveblrDgTtVBl9iv0/wYMr0qnYvYEfuthNCEjydQuK783Bzh+2ac7wofu9aE+NeBvtZExG561PBirXiwnHDjNj+QWn59nFdUdEd7BeFKKQbKKTWOIDtwfnHuFIQTJq3JkNHeu0x2LMQvSaRp+5gJM5gk5LN1F3fXVy97uCjG08ISSAYgUJSnudHkU/vqQVJqQlRiRdE2ksnoMFEaT3Yz5oamGSxKRRgUWzWRbGYQ1IUhVbMOrRSOBoqTLEpgXQTlJtFNs3gwQjplygkmNR1rUwd0MfrNKJK0XVdLWljArRWMyGpJNBR6ismKzqmWqathL11w81WUbIBl6V9WVhQ86LY79hAxGUnEIxrDEmFyyqPcx9VFOd5nAJEcRU3VZwj+PmyWVYDNfEkeRbr1dt0lcB2Ol1PV9ONKmhlsVqvtH2jNeIhKKfb1Wq9obXNdPu2LsYwNjbCMSRrouUyjvJZozQZBdkLePkyjpfLZaB4bamVZsuh1Zp6Ms6ovPu47FSx3+9fwVjY7Xev+/0cXvb7//A2Ky47gWBcCgnCOIEkDgHClLrjM5+aFYhm2qP2pMlBTeL79HP/5IwhCsKS9E9iFtN5Yq2yfrleLeYlYoLFek40NF9vLGZTq5L1AiBbjSHed3wKiUSyr+u4iSYTCCoffLIX7WO4RN8n4/AxXbKgjWa1gjwnDTXzAPJQaXXzyqAL2Ll57QipUP/sd9YmyX4HiVVCSALBuBQSVDn42JAOAjAqiD0VLSGIgQjJjyM1oVZnqPBqmG4TS40xKpJGll6sAcO8A4gKimnBCol0EhS0YH6CzRplDOkWCol5PpjVPELEQ3XA9oIQ5lw7TEVESE4h0Zso1pDGyhnW3b7RXUdIZBHETRaACAllDEkgGJ9CykFD0wAETd7k1LV1hIRePPFmOSFuhgqxI86ZTlcLbmoW00RZHr9O1kRD1gXeTUunkApw3GSmmS1X24dz2f2aKDuoSTNzDFua582MFJIm01FuFzHQUhMFERcZRatAsloHcaruIq2RqaglJOYiXhgkQpIoO4FgjApJOUKyy6b2opmHvUKaeHE0CYKJP5DHjrrgqlxkJImIfdbWsMvOWn6L3AYVTE0dIbFMKter6VarRyOk3zIPyZJ6DkBbSGdRMMl5ZNH1ZbQL+yYW4jBwIiS3SjIpX4Z4H7mKZBXMQi0XuVWE1x2VVQhJIBijQlJNBUehf+cAACAASURBVB77/YPYh4PLDpYpHVsHA7nslGbvHKwyJqQpB6NzZDdzD7c4MJ9y01oyIZU8nLQq+JAx9IpHOIbEIdUe2QYg9V0Mjw+1ComP4mB8shngcBiNTEjgLSda3WcaUjtxgViIvqSDQlJm/wIS9i0QjE0hWWhYIeUNYL6M0ipubBSrYEb8FFADE6bhLOLZj/eHhWS62pBCaoeKsiwroMyy9dsmI/rZZFvatOkVEh0zXW3f3jZGPVhQwy9RSFCH1awKw0RFszAK85isgnRQGIYT5YdhPgvDmmNhSCHFWnlxUzVNpO7SPYByt9vvd7tStWNItDDw+rrbvYhCEgjGppCilF0uKahJlTde1PhBipMQ/dBXUDd5Uw+U/ICnIWVvq23BQX6w2GbbBRTbLNtusxJs5tY2dEhCYikj9qLtRFcyD+k2Y0hkClVYVUQ/Ks3zNKlSMgudVlXlqQnvqJoIg5Ca0TpECBrecp/4TOqtvO74UcBiB2QpL25OHW3YWSOEJBCMSCEhWqXcHHc3v51bPqU4VyanQOAJji5r5jAdTcUeOk4GpLpEAXBoS10KiX4Ll9xCtuKjF1P1YC67X5Kpwf6PvavtUVRpoq2WXSEkHSAgTAA/8PKFDyYk/v/fdqsacGf27uzu89xRwTlHx2nBGVsp6vSp6i6mLohx3L56ZqapfgbrDrEjnf6opuRjvWTaywOCvYttGPbvH3hT9t0NKEDIDgC2pZBYq8Ox8xMFljJ2WjVT7zw9e9YZ6WululviWvoY+F8uWBrOv0SfaWm7qhpQqeFOCknswFm565etxexsMFes0y26a6owONU/pDaOoiiLo4dMs7tZReBN2ZvxtA0hOwDYVg7pdlK/+2F/sYf5wgL81OKqy8MfXIt0k4bm2lyrLSSyt1ntmye78EuSZqO4XX5iuTrIfMDokBVFcemIGVf4AyEBwN8rpNeAJ06NHGGW3X0U0l+MCj4cDM+lL3CVPBASADxeIW2fkbzr28ZayFe5HtJvDoaVQ2HBRyAkAPiOCmlTeJErxv5heIBoHQgJAL6pQnpZQtqiQgJASAAAhQSFtA6FBICQAAAKCQoJCgmEBABQSAAUEgBCAgAoJCgkKCQQEgBAIQFQSAAICQD+g0IinPBQSCCkVRNSCkICvo1CekWe/TrHfV9sRyHhVHkioJCA70JIx91+9xvsn3b7vCvLw0/39w+f/Y//hP/U+1//w+0opA+fab+i25d066+O+zPOkPkdQEjAdyGkPfA8HNONKKQOx+qZZrKHpwK+WciOfnF7euTrS7pCX3L7fzrwh/9ozP9CSM9VSO8+0wrjoV9irJ8epd+8CiE7APhSQsKkhidmqzHLDsCkBgBYnBymfWOWHQhp7WYChQR8n5AdTnisQwIhYR0SAEAhgZCgkAAQEgBAIUEhgZBASAAAhQRAIQEgJACAQoJCgkICIQEAFBIAhQSAkAAACgkKCQoJhAQAUEgAFBIAQgIAKCQoJCgkEBIAvI5CYv/DP56sB7y6HkEhrRG8WTMBIQFQSD+fzcz+QfHEE5s/8TP8+oS0cYXET7eTpxouCAkAvkwhcUBKRPMJ/Uw+IvroVqRXJDfepGr6PgpJDpOhhx2SX7zbbMGbtBMQEgCF9NM5sYtbE1Ba1PXF0jPPzZI/ehBrqr4y/yIu93KEtHGFRPv9A9OVdH776d3YJddf8JEDIQHAKhWSenEXeH/v/N2fr9MZy4c61DFndwzrxxOS9EwgXXNcJpa1ZbWDVlqOqqQybtpifaJLOi2fLWB+KUJai0LyVjFnFK1+4+x/+e9+acy7/HGaXmNN2xpr7+v+JwtW+6VmMPr+ahKB/wlcM87WIT1Sta8GQw/UbSAkAPh7hcTTiDmYfpG22DtCDXf4BuuGKA7o4XzEt66VvV4YzfeRfZ98V3l5iU90yZZzPmxg+uAWFRLrUaD5i/YHZTEY5qURfNxlvAG1oR6re7r/yYLJv1szOH3fxU4mC6bFlP1oRbs65Of12wkICfh+CklO1V1YhHvZlmVFFxWRCUzWFpme51Ebhp3xA92stvxwPgqq8ZqfKRjya5/neSWEk+dpmQ/ODnk+pBRQOpxz8UKaUhqavBkH5JDulEMSaygy1sxddrlEMjjIoku2v4SWtXHUBlnZ1clLjtm+vURiU2EY12EY3vF6kKKfxSyuY+VMmed9I3ZhWayjckNekmySR3HuVVVdR22ZcryODQgJAFaokIR19vElupyOJjplbSwOJDVhnGVxa6y4oPaUkTCRJ6RHn8LO5P0wXJOzyT0hjZW4nLHPm+ZqnW4qjfgicUFDP0prbKoh0bTSa4Xs1pJDEo0cZvVF/OSlzsI6NKYustMlO2UmvvhGRLaQXXEmfT4JC8mefdvWdduG91z2JkTUj8PQ50I1edLkY+5oGJNG7hVVY97ngRPrSPKh6d9Eayd5NTZmA0IahAR8wxwSX1oZ7bYXimqzP1k+7bmTIXl3So26rjrToHyghPTwkJ1LKiJTypCeyoQ1OMRs+jFlH4ophamceesrw1WfCjOVbPKEoJDuoJBEgKZxZEyaWYrilEwX700dmTqktjWyR8zkEoqRGA3uHmRwkxob1hpjLYS6iO5pJTQkwi/2TUNyzaBBZyeWIMMV8mG7a26co7ER20lyw9erfC4xGgdCAoDV5ZDIxmEUReHJRDUd48MhPhIdui6Ld6RZ4TpjP6ctqx+eQwromgyl+Bmng2DLTgnpoLrIsR8Xv3mFpKPe/qyEZMyQYJbdfRSS8MzOWGEWagsZolhhoDqiQnjIE5I2QiqKLoqyU8fCTGoyQhOyn+x9Vasc/rySg+/YmSY31mkUL2/Yz8+xQkiBC8w4kjaFnxpPSGJNICQAWJtCMru4uAhaVUhCSPZ0NFlctMVpp8kjeqeQHrzAULxKmjeJKCJxblXi/Hoo8SWlzq1jKwpJQ3ap8pA2xQUNQz9sYOS7xRyS84SkE9eMEpI51BmJQioWheQJyRTxRY2p4yiWg5WJQlIBbu5KSDI2oappksSLnmYyAMd5Y6YJo8pRqpBG8nTlQ3ZNc6D1mwkICfh+ColZ3ElAOo9OFVJq42N60nR07NePcJ0FSw7pwTNl/cwocudkEFdSJik5XQ0rBOSl0qKQSk9IKpOq65hXG/Az21RI1J0OQkRyDwsSU4ijoI64yOimkNpQyccHVsVa/DwY+WsqQr4vIfk5dTbNdciis+ycH8t4QuJFITlVSI6EkAKbj2OeGqxDAoBV5pDCWpxImPGikPa7U2dMdpJBJPkckp/YK3sfvXbDnPOzdDaRES6XvfpkXT+iBEQ6v/ic6N60P08Kyal00gQCvxYhrSWHZHUew/GSCjN1RiTQblJI5p1CokhGMRy1wcRFU8iuaM00Lf9+jnsYjEZrnQxcEs0hacGG/GqmBQOscbpgIiRtClP5CeFYhwQAq1NI4mkORdzWcSf+g48nH7Jr47YI63hPWV2f4ro4HIo6PtXikR469Zvd2F/HpHEamUuSJhmEeZJeWmdjr76VT6kjr5CaXrbILodZdl+vkMTHd3Fx8XMvw/hSiIgWHhL9rArpNE9qCKjVXTKEyWIxrDBWRsjioi7uWq3BVGIIjaaFAjP0TXJNzZj00hic7Gq0dTbXqyqkUYR0r5YzGOSQAGB9CkkDHlEYWTKHjm1ng+4gg9ws4kN0oH0UdV3UWSsP0jiaR1ZB0J6Vw1BZo0PftKyqs3krK72lxk0NEUWlY7Kl5XIsBdfGQCHdIYekvT5kYWdI5HKXZcIw5rgzxz0d90ZMZmrTsmsnfygPmkMyRzEie88cUkBpNQy6sEhLelRV6YxYhjbIvFXyqxKDOWvCsZThSj6ImQwqp0FIALC2HNK08p78QvzAL7vXeBjTbZ07zXURpgIJj00iacTFyMj2Vk5i8cxzdQBpkLpI8suQnDSG5NUIaS3rkKZiBxMB0FyOYbKZueG3ERPZyYiCuYyTfga+p+Ww87E5PwlzerdgsdfbZ506Ix1768/yGCQVFsYCwApzSEsp7x/Xc+DgRyWwuVjZvOHRtRp4qmUXLGXtdEMwl7ebG74Mnzyjsm/ysUm2sMBkmwppKlDH8++ZCvyjXRqTxfByFS0/MXJ69b1r2XnjeF/Vbi7Q6CvY+cKMzuexmJtkHMd/F1wFIQHAGhTSZ+LkVqSUbxsef05O12G6tSfOnB3e3MHpgZx5GwTpyxVXXVG17/lY8M9658NT/sUhfIidfL7rRydV5lViJqVhTGoAgDUqpNfAVDRzE5PscMXYZ5qJD/YSrocEANtRSFt0Nc7H9/5h72yb09aZMLy2ZQlj42P5DRojDsUQZ5iOZ/JMvvj8/x/27EqEkDZpU/JCCHubGFuSCWkVXdyrlXMOuqS/h/T5iOS6yRn8YAwkFjukMx5qlDqT4ZMd0on7yXm8UQYSix0Six3S1wbS2YiBxGKHxGKHxEBiILFY7JAYSOyQWAwkFjskFjskBhIDicVih8RAYofEOicgCcGDKIsdEjskdkgMJBaLHRLr7UYadkisF3ST8pMCSYFsK7qN5EEv5TGV9TqHpMTvpJ75+mCp5zZ6HMgWiDORgrA8F4f0os7xsDtxd3lpRzqTbvJ5HVJQz5hCrDd0SOuQdUKdi0PibnJafcrBQ2a+0i2ss4duGd1cf2d9vP69vvnnawDJlwHrZDqXOSQhf1Zgt8Onw4Inat5je0bPNdu9l0ePN9H7/3SfMboC67qe6Zmp9e6vwQiQ35eT5XK8ZH2sxsvxePwliOTjGPeM/tAb33H7u7fy1Lt7L8FRb//5l/ubkN0pHRKL9US8LmtNXZt4fd8ro+/jCetEWo7/Sc8+dnp0lp16x69Prjd8+2eTZcdiPTl+9DX9ofr7D6k34ys3OI54+9DN/puPv3+Bj5icZcfrkFis46TausLHvldeJ4yj00FpNDn/oB2vQ+J1SCzWkZNIgZ6Bp/v9+fWSaXRCk/QVZpEYSOyQWKwjieRh//Uf+vC/S/ZHp9pGBKSz/5Vmh8QOicU6mkiHtw5ih8QOiR0SOyR2SKyTEUk8WhX7nYF0SiShQzr3NDt2SOyQWKw38kvXY+bCCS0SOyQWOyQWix3SZ9gSdkgsdkgs1oFDYjCcMmTHDonFDonFesohPexetoxmxDR7bciOHRKLHRKL5fTYIU0mxcshM0mS5H5RLdPlWId0/rddfwpI6lV38FGRVB96A6AP/4bskFisX/unsA5pssfRKLGQealB6rokITDxUibOsns0viscqP5EJKyWT9+8TUUKxPvdkk4p+dOLK/xPEJFih8QOiXXykN3VA05GV13XDclD/G7/eBzN2xmkTusOYTQMzCPOsnss4fviTzxSOEASCqJfzImKwuD9eITfUj2iD5YETSl+BeY5MIodEuvLaHH948cwDKM9YoZa190VuZ7hEY92X8PE7V17bF0PiKVaF3jq6kZDwnS63Cy7/QAu2hbSh8id2hNgXxJBEFc4nmaZcA0Or5Y6A3nYWEW/fIu/B9FuD4utfBxSTNV2s4VU/UQieteKHRI7JNbHjCTDD6fhakckgkvdJW56KEkm9jHYsJw7TnY1tqqYFMUouepqsytzlTyh9BdZIV/KIbkBHOgM2l4okdK5REMiHZGEwIP7EvDrOgToW5CC+GCbYAtrmRBIINzkDj5LEdEfFo+kUupYIhGJQKVEwmaT0qvtX1IpWEwX4H4AseMfDbgpOyR2SKyPEvHov/+ISOPRzgohjnQ9JGh+dDcYisgNWhu0UFSCp2iDis4MnT3EIlMUeAFe1HWmQzrhNQWD5nKz7HDAF0EAIiXOeNKWg/QUMQZJgyU05tsSCb4xLQIpBprToYkdhJEMQJagIgSSJ4lIAIFn56OklHai52geAZRlhC+dwjwvo5SMUZq6uaM0JfdAB5CW9rsBLNJ5PhU8h8QOifWyceB1itQN4YiERHKmphhqnViLdEVWCQmkTU1Ck9TVWEJHgzuodYHNa/oidcOuFQKJSXOxWXYQx5XRLTKn7WOjK3IalTEmExKrYm0qtEMiNmaGDsg3lfGIXEG/VsLr11D1vc56jY101RpNVwUtNvYFrM1sFsaml+pYHi3u8ny1DeA2zzf5Kt9Ck69WzTS/k+ktHn2DFL6ttqt81eDRYkVNFsAOiR0S688seotX+XEPpP/IIhGPEoMwQveTJBY740JrW4C7AplDvDFJgaQaio6mj2iHFonYVBTaNaCAH2+XOocEra7CrI4BDzK/qjP8TK4zr6rXADM8iClIF+u1V+m18rWHgEKH5CF6aIcXlb322hkCqc98aix6E3qtDoSfVbpvq+xIIKH3Wa3KxXa1gGa+3czn84Uo5/PN3XS7TVMqshja3DaLfAVKoDn6tppCGvEcEjsk1u8HALuTpe+HYbg+XnseIZCGZESjo66Lq+W9ISqSsYXTkvIckDrd0BF7xkSe5UCAIoc0IldEIT18mlibxJy53Cw7NEZYUGlJB0LMWqD0BIFnCvBEgCH8rLGq7yHUQWUEOSRqg8WqbdFPQWaAQnYApoW1VnRQQQReXYGd8DnSIm3m9HuT4us1Ob3tSIhoM6VRWglEkXVIiCVoNgitTQmwzdMzWJzEDol1apXrrKpip/bYx/8egIRESiZokJBCXddZL0RoWZLhWZIlQiBpF5oj27SrL2wjukonI3uCZsksR8yZy12HJJBDEta1jcRJhbtQh1hSGQmzGOwurNu2jbUBdEieDmMHLeeQ+sgBiUoCQKtU2cZ1KyQ2D3eZd8c5pO1mNd2WEEmY5wFlN6SiJF8kaeqoyZ1DWjgglUSvW7RKPIfEDon1e3sUZpZEVZVV2St085NDonVF9Y461iENyZJYk4zRHO0cEm7LglIdXL21UQ5ISTFCermIHYPmYu9lBw5I2ncHMwLSGqQgzzSLIwukdY19F3svEsZHbiGQApMJhQ4JcabivUOSFkia2lYENftKx+c0KNFsb3PLnSYvBZkfApI9wKIDh4RtYL65W+VUyQ6JHRLrNzyKCEfZ2g+kXc5+dOcS6SGQxmO3rKgrhsLm2ZHfKQ4c0tgF8rqioNmkKzenVNw7JGxEODO6prRv5szFZtmRQ4pUpiWtQ5KIG0HhuEjFMxB4EokZhex8vEhJC6TMkHHSFdi4HV794JAURfwyTVOmlJuN14UAx2d9p6nAX5jVFMghURyQMuwIQHaFbpMvKPTgQnbfAKbbZp7ClwvZsUNivS2P8ENJvA7usxpek2UnDrPsKO/bzgLRAiNdG+uAJhMXjdulK9RaWwpZh2RDdt0+/46KEls9Yh5dcJadaPXaCzVlc/fCOiQR6zDIdGbnkMghCWhN6GGJoBicmtWxgt54XlyvyRLFOyDNwsClQsw8r8KGZYiX+OGxOQ0RLPLtomw2c3JIm2bRlFA2zWa7aCIRLZr5Zt58owoHpHKznc/n3+CrLYxlh8R6WyJlceU7Dr36pdLBEYl4tIvY0Y2ARjbPrqDUOSoZjRyBKNnOHuApUgjrB/JOReFqkESWT0u+rd0lOySX7d1LBW2MI39L00axNrpCOuFJpPoKnU+LJTiU+cYHldXojvyZNvFsDXELVQ/ZDJSpeo01EjysMplAq2Ro849NxFboi1BTWsmkpni0FU1u1Qh5Zw+mUOZojpoVUumWCohe7JDYIbGeNUjII++Nsr6FWNzfqWFsU7WLSbK/R8MSnwoqQMeT3Gs5ds/j8XKCHCqord25iiu3CIk5c+FzSL4v7I0V7K0bKNYWhBKi3Y0RIkpLgMCnFbIKhF2MSqtf/YASCFwTYeukL90KVc+nixUoeIVdsXG5kgJ0dmVuapMa1L3o5YWgbDu6MwQ+be8oqLfNgeeQ2CGxnlVQxaEQb4Y3cTPQvewQMPRhfYeS/7N3rU2K6ky4hSaRcTcHeMHLcplZhD1VfLDKKr+c///H3u6Ajre57C6Oiv0ITIDAoIR+8nSapCWgdkM75tG3A4y3+3YYf2d59J99X0lakB5bIa1WRBzW/uvtwredAB1ssb2bdiHcLcsgKN0RWNcDkaU03sftTf6OOv64DYlDF8C2CvEFMPUdAbfXpA3O6tgoVW6G9mKsKCRBnwKpmiR9n/TH09PT+NtuqD122b3YhqBXshm/WKHELxvxYnxMSJazOCz8X+nI7tEV0mTim64zOH04KNLJFv3ap6re9b+6m/b+bPu503/VtyofavReJ64tP+7T3FbU+bDYRGUUrQsw0oYkCknwFkggQZ8Vas1DmFuusaO/jreL8fhgtaWh7Y7v473xZbfHffvfvzw4knTT8OAjxir3lo23/twm2+/doog/HtNJFJIY5QdGnPRdABCen75/Hx+NYX6cfDty7nUs82/ffoi/7sGj7PjVnnsd5+4oRtzW/I2MhyQKSfA2eXi9e+zwaAjz8dnk2xZ1r1c2GXlC+rL7y5HLbwdIlGTu47uIQhJc6cHHahIA9kxIzy/nJM/7NHSWmsbWXycc88DjIQ0JWt8Js4pCElxLIQWTCvquT39GIX2Kj7pwB2GZR1ZIAlFIgkeBDnqOaWCS+3n4KuufKqSWlEQh/X5Qw6B6ahCIQhI8jERKJs6tKqRd1J2wzCP39i0QhSR4IEIaXUQhCTHIe0iikEQhiUIS/A58Kk14YYUkH2lDEoUkCkkUkuAzFRK395P+fBFekBFjRSHdb4S6KCTBdWAuQUi/Xn6cdAUk+Cr8GIhC0p8Y8ETvp/ank5XjDCf7/wz6rc9Bx3acxvuBBi8WhSS4BtwLEBL+fHp5erkI/tsuZH5rfnoaRJSdY1zlvgnVTWo/+dbn3Z17md6f1NnLePezm17/y8XwJ5f/5rmUKCTBlVx2k6T/Csmv5+fnn79+Hkzt4nij3dHhmadn+2e3a3dM+/l5dIjgHH78c/+PtFN5guuhkjYkwVWg+7//CI6LcOIWOec3sTOPWQHt1C1e3SjbY9r+kzn6oo9xBAcOzwyjDUl/BP8gvffZdgO+7Xz7YP3k42v/w3/iv7f7eH7d5b9u+Pjr/C38T2/86EQSZSe4lkK6xP33YvR97rdrN7Uwn9tqtlv39u6tHeaW6XhCT909ZeOnCElwIWaTKDvBlXCR+++5+Ef992uJb+pjOARvAE+0RNlJlJ1AFNI1CEnQtzW5f0KS95DkPSSBKCQhpCFAFJJAemoQiEISQvo6v5z/pqNTFJJAFJJAFJIQ0tfRUffqJdoRdrQoJIEoJIEoJCGkK9CRDSZWyo1j11WcPmQkLQpJIApJIApJCOmL5JHvxqORM7JwTfuezaAISRSSKCSBKCQhpLvgIzU6gHvISKKQBKKQBKKQhJC+hI/QHR0h9vcZSRSSQBSSQBSSENKXUNIJHxH2GUkUkkAUkkAU0sMQkv5kpxK6984n9Im/7lUjiUISiEISiEJ6n5D0a1d02lc32T3QGeLgq9bvuM1scNvJjr2jKKnPZvpLPjKjs6BfXA9fIdGPavTRrfigRLU59u+w1spXqvc7c3Iht1raRSEJHlghaR+hM5ZkFwBu8Bml6zoiGErTI/bGpWoD+qw94/OA3tomPt4Y7Pn7nnXYMdTOaTdchdQVoP3OD/VRiOGZQ9qewHe1A91WwHSvlYXTC+HO6W+ytItCEjy0QkJ3mYDqGGlS3aInRpsTgsFsU8BZ1UQGrVgX578GNuutnYMm832zybTp1fDtHHbOqUR6AIWkJgkcatKPVIjNcZANnOVkGUDflZoTRQ3pLIXfEN6ikEQhCS6tkLRBZ7oCqxmU74fETTfkqDPG2ghiH9gNbNHOMKtTMLod0qE1IYaHGWLWUVHG2Y0+8NXw6VRZK7SnVLAp0UAapdDnFW8j7FxlfEqqeBTTbFuR9JBcdvsKSdvfvh27KA7zzv1m2jeE3VUFqhM/pFvZTcaVC6Vtku+WM3fQhxUXPLtBgTOZ5HPoi4eMof9Fd3rjamPddKb9zwqaummLkDFdMaG8hxJPFJIoJMHXKSRt/SOu0l3Kz7di6Rb4iAmG6QMgi/iB4gEAsfUw0lpsrNeFhwPsXHCwyIheDKxnZGda7yPS8YjWL0mPMSARUeesgfUaiMKystev23ns4mC5WiUjZxmoYFntfHZDVEi24PDAjNbXhqMRth5Vqplbt2hY2WoC79f27nHW7r4ikRB6U4825xPQ9hjKTHsnq17CbrQdCpEtOKS1vUi03sB2hsLYy+Ckb1mLnoU0FYUkCklwLYUEXhBUbETIMiSBIkK6EZcFG7W0aVLi5DRbR1mWLaDIshQVzYZWU6rcYpyapimsWckaykZVXiiiBVvAItV2QTNyAiGmowrr04ubxqxZdRlTZtCf0077nUBKpqv5NBlNJ2443zYi4UAVEjqOCgKX6gujqqp44D66G1USIGinCsKkCjzQHm+nhbJZvMrVoILEAUtIoIAIKaZdinaxeFmudC+3g+55Q3dep2lTpykVoThNU4XMOpRIbRRK6qdNwYUAiiabRTMYGCGJQhLcTRuSgSQny0k1VQim+XwSBngrCsnHpl5volKZsoxqmjMSSlHURPUa400ZRTGRT0pZypo4BciSbOqCv0hTMtNAE5Gdm5VAMxrkRBqVNckiMjx1VM5KSlKleLbu02endoQ0gnzuTJNl6Oz6axhoGxIs58t5GDoASTifTlivwjJc5fMRJnk+Def5EsBKb1o483yarMLQAyfPV+EEgQnJZ0KqKHMwn+Yu5ZzMsRd9lNUlFaEY1lFE9zxqMKVEVtZUqjaUKmz9ZV2W7LyjErPe1Ok9hLOLQhIMUiFpGy/AsgjdcAJQTYObeUMJFnWKuGgMsqngliJUTECpibUxJmNCwrTOENcRe2QKxM1657Ez+oCQ9Iz0kCH62XCOsiS5FLWElJU9RjVovSOkIAhXDhnoRB1HNQxNIcEyd1DlpGmMi/Mlq9OE6EmtAnBdJwy0q5AISSvg6o7rzvNkNPI5J3hhQITktApJqVG+tzkv7gAAIABJREFUCmgXn3IFvdwOoiBdkP6J/SxaxIbKklvUZbYotI51Wi+IhhZ1Q8UjMhhTxYYKi76DkZFFIQmGqZC48ag1FtXUZVf+7bQhoalnC4NEID5JIw4DJhRUg9Vg676dQjLaJjNuIpiVnHkzo+9gFZLfEZI2uN5YXx2tG61YUqF12fkkm2K4hEIKw7zywul06Q6RkA4V0oqqCkHoIv3A8wlLUFqqtq3PDSvgoH0uWBAm6AM3F9EJvOlIjYBYaaeQFKgwsY1RCntRSHRp0To2ZIw1kjQy9IeuzWfeoeKENqKFFBLpJK7PAPMTNLWWNiRRSIJrtSFxUw0bCwzCGLVtQ7qVUG92r0RlBq37zQYIW6NBWol2bhVS3BKSiWaLlB0vvlVIvjFNqV8VEic48ouFElBVmLZs1tazl0UGL6KQPMf1phNKuANXSEhyhis0tEUxwyhLL230I4zCil8KozLms0KiqgJxEyoisOmcEDIhOW1Qg0JmL/u+Vj8KSXN1Y1uEqJCgDYOJOTzT2MC7qLAKKYU22jKamaJcD85lJwpJcDcKieNg0RoLquH66nai7Nh0IBSZje5mhaSsfeOarLEBeFnNLjgiJLS2hhZl1CjbKkQKCQ02ERESsZImQophtqHasQISSsaaJIUcZUePdlb2GomxIySPeMibJirP46G3Ia2W4BIhUa1A6RUTkqUXY4PrYiahjoVYf/vWQ0ycVU09x/NcF0Yc1GClue/mgX3rwCok1cPd0IBchLJWS/vssjOGV7nPDtqU7giJZVLxf/bOqDdRp42jo45MCMlECThsQC9Qb7gwIfH7f7b/8wza1u52u/vWLeJ7ThvFkQrClB8HhuHY5n1iUwwJQ4JxziHFxt6yMbCyXVgZ2Z9dPcwOoqSRzmveyY5t18ZlYURuvDbe1nZTuRZJIKXRkIr8hzYYFrFyTatPtpNRXS9/2OmYraqR0XNI+plB/j+HRg02BOPvGEhD+iTlejmbFcttmazWF0VKnvU6JLOvpCDbanttc8pkCziUrA6yyGfrpdEG+9vMmXS90tbWVamN9TWpZJylWUipPmib/u0wsjb7NubrnWjYJFahNmgg5XqBgNYBzR6jFxz9yHVF6FFgeRDzbuuXawgwJAwJxjAks9pnm22WLUy2ycr95nHOIZld3nZdezlVFEKobd33xz6ExBQhtDLU2CYa0lEDqRU6q8dk9NSA7Jsf2y7kbWp/DAOSXiHk8kG1/EEvJepM1uf1PftqeOk5qHjto+HSzM49byu7bVZmUnPcIcvWUpdmZr49rTJtIOOS6pRlpTPlJo5jF1m2qbJsKZvJTSn1TRJoL29ttwu9HnYjI8/jhbFrGeerruK1VnQXyd7FKmR2IRzPXZD46UIvRd3VkGScvO3P5y61T9aoAUOC6ZxD0kBSpKSs9sty+SCGpOe2inDuQ+wEyDW6NXGSKIpE1DDQmF0nu7p1J5ElQdUFPYnk43E6J5ugXrZG4lcycG6axurGSMaRTzTNWUs0tsL5jtsfScPkg67sXo/YPaEhnQ5VJWptVqe9MpO399UpyrY9SEFpU1tWp0N2MLP9PtvvtfsGGVsqnPFa8ar93Mrf6FsytBwGDvbLq0OrUNvXupNlmj70TawnvdYqH+JQJ6MUIktB0kvKJa64DglDgpEM6XqZvbND7wfxCvqHadVw2cHTXmaMtdb46/xfloiVsHF6Hkie26BfRJsuuNis4dpHpxn+WI/zxQKnx22Gt7Skyxd3vRLYueKDQHrtxvUJW9npgn1Z4mboFMOa6yFhrVxSw9zrmos9I8SNZOxoKA7okTpnhn4cjL1LVbRaY7TLDusuM/dm+m/qks5vbPciYze5fbJDdhgSTMeQtIM3/YmdXKaP1CG/nnf2l9sZ6IVHsS1DIsS+7LzMtL7nZVMXLzA6dkI8Xy3bGt0Dli+k9zFQWfJDj2Z+IL0O6Q70zvi75pFLPrz9xNMa0ulkk3TodTDWJeeGPgaH/uFkhSU2FiSxLzt5mQx9xyWxczunndvF7u7iO8nlT+LIX1dWmZK/7N/4ocL4a13y15KhqmnXdk3T0VMDhgTjnUMatqLu0vv/Y12D4X6aJSl52X99vWFB7LOu6/tzHy+zd5dvdEF2lK8l77+x9mzm7+yEH9x/4u0Yz2ZIZTks9uuSTW9uPzSURBFy10V/O+5wb4j0dSXdrq0vHvm9zshnt2VytmvP7bkxjnNIGBKMZkiTwn148uZ6sMjdRNXv//D+NxtwLw3tProb0rMZUjwY9sktj/5oHV4+7LoY3bfXLA3BoddXDAlDgtEM6RmIt6rw/hFm5FeJ5K17rluY29vbT7hnqELxS/iU+yFhSIAh/Tt9+v497XdH7Yr05ijQ894xFjAkwJAIpMeKRWeTN5FULN5l5RPfMRYwJMCQCKQHEzWrvVoXMY2SofnEkwUShoQhAYZEIE3lbITeqvaltdjtsUQMCTAkwJAIpG/OpYscvTu3hSEBhgQYEoE0QgOLn1taYEiAIQGGRCA9RlZhSIAhAYb0EkgFgUQgfdGQqEIYEmBI9zEkFuyIPIUhFc+4Zuz9Ntz/uAphSPBEhjSHEZl+IFk3X84++Zaz+DufXV989vj7UX4zld+OMvvsA37xebN/tuZn7+Z4Nv/fJjc7YEjwPIakW5O3N5B77J+33PvzvmsZvJ3U/BkMqZh/+qVfI+lPHn8/xofT+HSc4ffPfz6d5Fd+5jdf9nb4737+ogphSPDohqT7V3rL6EkcorjM6N3m9fXz7LcthJtJLdnFhO8DQ4IHNyQaNdCo4esR+zCYh/64fzO1v1lTGBI8uiERSAQSYEgYEjyCIRFIBBL8n4AhAYYEBBJgSIAhEUgEEgCGBBgSEEiAIQGGRCARSAAYEmBIQCABhgQYEoFEIAFgSIAhAYEEGBJgSAQSgQSAIQGGNPpWPf3VzVgJJAAMCTCkf5s+3r0vcXaqiUQgAYYEGNJUA8nJEkidu82jNHGpm6Q1EUiAIQGG9KtAci9P7rqlf7PRH3cLP0xfHs2utm9nxbnEhKOUuZskkmICCQBDgqka0pv8SeRHt//yLFv2oUQG3YgH6lL5lSfT5cbHAu+1UIpN09Ymjpa8jOzNe5MikABDwpBgIobkXEw7q64Rq6zqyGW/Kr28N550DP9EqbOmyeNQnEO9gbbT2TI60zqOdcPsp/W5sRgSAIYE0zQkU65W1WlpE5lSVZWSAocyq5ZZdZCi1anKFmYsP7JJ17ZhZ3wIeR76UNu6DyFp+s4V8jJoYu5C3bedl5GL0PZtaAyBBIAhwRQNSbaOp3VWntYzY07bVbnJjMk2q2q9Om2dKdfZqtr+3HjguwSpzbvmnBdJF87HEEKd1qE/hvwcTKFFifWmPvZddwzG+/Zcd8faeEcgAWBIME1DqvZSZdelTQ+ps6v1wpSVWa3dYZ0k64OMuy1dMspG3u6OP2T6OyMipIfsrEmtKSR89MCikyIfA2lnfZfrwMKY0HqafQNgSDBRQzJVZhZmm9nUzVarbL1Iy8qtthJI8luW5WpbjXMUzDmjhrSTReBTCaTEp05zp5DX2s6hyWXIymtvdbCRN2zfGk8gAWBIMF1DSjSVbLY+7at1YjI1pPi7Oe33+1M5UiClpgjn/BhUhLpcWzBIIO2OOxOb1A2BFANKwki28H3bhWPtMCQADAmmakgnDSQxpOXmYMxhndhoSDIkv4s49igtqd2l2V99bCR3utYMGVUPgeRUi/xgSHr0rrCm60OoDYfsADAkmK4hZTYa0nKzNCZTQzrZlaaRxNTemKI6jNRwzda95ExybKy3Xe5sbJK+0yNzTo/nXQ3JD7K005NJKdchAWBIMF1Dqi6GZPabU5Vt1668HLJbmNl2W61Pi5G28KY4522b99Z5U+RCY7o8P+Z5K/HT5kcZ6vTUkYvnj3wrBcf2h00JJAAMCSZpSHY+M/pgrTmUB1MczGxuFnOTzCUSkpUUjbSJlxgyddPVKj0STnVdF/FR8DYdBnbG19ZZLyN1/Q953fYTOGhHIAGGBBjSz4Hkhn5L9UGyyYkrGe0EQdtVu0unDWP1Zhenb4fpazjpsrj+hzl3XTraTYPXZ4kioe+5MBYAQ4KJGpK79KIaT70k7nrNkRt6W01G7svOx77sLj3VaVuGiASS1473YolGp55HOrbnc5vvJnBlLIEEGBJgSL8KpHdW4m7z5/3rESzp5xl0r8/XUutN0TRd42jUAIAhwVQN6Ulw3mg/q47bTwBgSPAUhjThQIq3pvApF8YCYEiAIT1AKE3jluYEEmBIgCE9eSBNJjgJJMCQAEMikAgkwJAwJMCQgEACDAkwJAKJQAIMCUMCDAkIJMCQAEMikAgkwJAwJHh4Q3IwDgQSYEiAIRFIDwKBBBgSYEgvgQRjcuA/GjAkwJAupAmMiKdaA4YEGBIAYEgYErD+AQBDAgwJADAk9pCB9Q8AGBJgSACAIWFIwPoHAAwJMCQAAAwJMCQAwJAAQwIAwJAAQwIADAkwJAD4j70ralJUZ6I4ogYMKhWltqxyJ1PXEh+29uF7y/7/H/alOwFkdFdQZwA9B3UQ0btXjn1y0k0DwCEBcEgAAMAhAXBIAAAAcEgAHBIAAHBIABwSAAAAHBIAhwQAABwSAIcEAAAAhwTAIQEAAIeEETIcEgAAABwSAIcEAAAcEkbIAI4/AABwSAAcEgAAcEgYIQM4/gAAwCEBcEgAAMAhYYQM4PgDAACHBMAhAQAAh4QRMoDjDwAAHBLwlUzA8QcAAA4JgEMCgN6PtwA4JOCbfqDTUYTjDwAAHBLQNaJgnr0FMxx/4ElxPBzeP4DvxvvhuGw1Ru3YIS2PH6BJNzz5dCTm2eghx3+G2Af0DweRaB1r4HsRW+jjUBxSGBxFDJp0QBOtE31YVsdh/nuyySabH5M7qTDewCEB/dQjoCtYRWoeVjp0SGGwBE06pMmhMjO/syxN0yxb3TlrN55vIEhAzxBGy5L1Asu3LvydfyyG4ZCiQwyWdMWS2sAlfNtk2W5/99DECtICARDomSAFRxdohMBvv4too5eLxoGlyxzSEmrUpSbpw8mB/y/7ke3vrmqwgjRGAAT6Jkhu5CsQbDoSpBZzdh06pHCpIUjdClI5p7HJ5tM0e7uPCWG4nm9Q9g30T5AEAk13oWYbL8NhOKQYNOly3PJRHPgwWP1Yh5vfdw5NwmAEQQL6J0ghTdnhJ9/VEsfLITikMFqCJl0qUuWQLA3cEOY+IoTB23yDM+KB3gnSIZYINR0qUospOzikV11k/H6qJffrkX37ZL5C/AN6hllwiLf4xXe2iGE4pGABh9Qbh/Sgufq9FSRYJKB3OSSZoMCuMz0alEPCAetMkOKPh//wV/P9DIIE9M8hIdJ0uMAhYenCIQXBZj6BQwL655Cqct6K/3/5WQhh/M5JYpBTeMAih+OQRFOaYHl8lV18eLR42MO/hh4BfcwhVcRXiRJWav4SaxK5lZJfS6T0a58lC1HqGXNIVGUnT48z0eSGYw1+3KRHgsu+HykfVNOAIjugf4I0O8ZFkwYnM4zLYUOaPPcv2VV1UY8QcVomB5aLxj6ly152J1V2nidb2fZg272JWjjsbb+1ZBs/fMpuNd+HUCSgf1N2ZXIgUVZwCEZWvRtOHqTMs8xIt2eW7aQ7ibzaJ5GIN60F6RgN5jykMkKWNCk8z6fByDl5inVjwI/WHJHyl/n1y/x83KU06SykRw5uAOBhglSFDCs41Ec4zXIOIGXA4XxRIoQ0WarsBuuNjN1JckqpCECcU8pzBJCWOaRlNIQcUkg5pOKkGFPSJDllQJVcFGc343qE7ixrVMEng2ZEzRySVSOGWYSP+tWvN9YgIfwBvcwhldGRHFCep+yDyO2w4UmKVeeQ+KkSQpXTe9Lt4wQNIabVotu0Duo6h+T/0YpGIxaZVRc/weuPvxR+1tdwhtFvLKaChZT2jVu3ztswwdskgRRbLfrz5w9J0gOuqBcS30YbtPoGeuqQkuI8JBYUGyZiijT2SZ6muXH5ojTdGaWk1SplX9jlSuWpUYl98DvxPuyaEGJaTtkFA3NIlg80YiF12Umzy01OwmR2RATiiN3CdPHEIZ74jaRhKXMm3wraJnAKXIPF6RFL0nEWhbejPPL7OV0LCQ4J6KVDOp2ys6Fly5kickMEIylfRKCok2WKXrCCRM/tQ0qvpCoxFGpYyBBB2hTZiSH1siscknLeyA5ftGEK5MSZ1HGEBya8ysShV6XIaVvqKEW6ZMc9IsfwpdmZaoUekSLdO/6MpqP9ajOfr6BHQC8FaXasCVJGvsgKDimMDSmpDR2JHQnHrp7BRhJrjUiuFE++2JeNKl7RZKBwdtLTOqTqwJJDUsr4MUlGxsjSQWuiB3NIM3HkjgWq2Gj8bso5LP4QkOV6GztzKkir/X5128LYbKwYWXs0CaBHQE+n7OLkNIfkxrBJwqNYGvgqN0GjUx4HOxukhErTXMapHwcbN9nHa5iEedLzkKpiTJV5KOuQUjswcaa6ZIKW5JyMpuGNKUcyFpondbXyXFIgQIOyl0qPrCD9b/7f/Mabx2azHyHuAf0VpKo+iuMGWx6KFzvtJIYiCimQ3Wj83J0oHZIdAvMEjp+y28UY9LbSIzmgHFIxHcvzsxa5UkU6icovVaIccVIteHLXFLqV83hF2/9bRxh+ytPDYMB1htQc0pHczo23/X7yNpo+4NIVAPCVOaTTKjuum9r5EMKJJBoPG5nw4DYvMkU0yDVS22c8LlbWQFEhMJ0sC0F6wl52Zw7JUsDKiZ+3czypHJJw9Zi0m6FFMbGoXox8dcJjGJPad4AsDeZ0T3NIho7+LAyisN2jvVVFDTgfFuizQ6pX2WkfZIyvbEjJDFmzxCHHFENgdkjSDXj9RqV9PS+WNssQOzXwEETIsuCuoENe1Lz4kQydqSRVnrvyTcsyJoxQ/JxLGjC/26iooaqyWyzC+4CQB/RakMJPRQ2pq60TNHGXpkW9XZr6MGNtU0zlvorMUeWQtq6gN81xPfQn7tRQc0ii6N2R+zPUSo7wms8u0uouEUQc+37NBPOFmzlOQ2pU1CALRXrgmbEA0FdBOlRDXy7ZdckBRWcaZZyK5pI6mmvhVEHMhb1G2bt1SKnRpE2GVMqnCxBC2ixb65AGcx5S6ZDSVLnjbKnBq3RWUcb1DTRooU4OdpX7ediNseApO+HeSYWZylXhwU43zDNyn4b8l1njAkbAC+SQqp5ZUkutJc2q2CdaaZ5foUFazNNxwjdn0LHmu4yVHS/LRMs045MiaWYGIaRNkd3wun0nRAnluwURV5RrxRA7blAOKXZtPGjHuGjLQHtbxhCnpJvshZlupkf212ce3MsOAPqbQxJV90uvN0nRMYi7pyZeiDgAiaINjOB1twOXPCjjztlHEGkzITOk85DK5mqi6JVarhZ9pISb1mXGuO7eQtTeaF9RXAuuJM4QaHjytB38xe92BIFmP8ArOCQfL4SLF0Kc5oHKrpluu/t9SL+b39cVjDN2CnrUatED7NTwqcW7KPkhpJC+fsHzKal29trlaiIo+YiD37SZHSnSexDBHgEv4JCOp9emLhSpPkRLatVQpQydXG9NUjFVnpsYYaZtDmlwvexEPVrWB/OCr5l1iQXVKlFFSbQNauqQuPblA7EKeBWH9JfAcTnoJOeylRRTNggxbYONHlIO6V8qU6Qh1bXaf3+1YQE9alWMeUCsAl4jh3S1UvvcMCVn16IuLs6HKNOyMcwAHdKVCSZ/XYl/iBau49iaJhoOCXgVh7S9Ic96KdAkCc50fOpedg0nmMQVEtAFtMCT1g4JKSTgJRzSDdEh+buRQvRoGWkG1KmhmUMCBb6AJnBIwGsIEnVquCnP2v4lLJdaBw2oU8Od1MCCHBIAXBGkQ4z5fHRqeGAOCctXnK6GKTvgZXJI+MG/YqeG8ea2Tg2wSN9vkDBlB7xODgkx5DU7Ncw30+Y8aTplB4uEKTsAuMchIYa8ZKeGtg6p6cwuDurXlH1jyg54BYd0jJOtb/ECfDs67NSw2MzHbRySxNHqkCZwSMCrOCRNy6NhigfcL9/5Ie42h9RckBbL2P+zv4woYMUlhjAsTZBDAq67i6dwSNv394+DX/ytdv/0UG4mvH++8fv9y+VewDmK7zPp7DwkdkiNP2259f/iwwV2nPHCc+Pj3W+tmOU217acEAw4Y8iBv6/3AVXZLYFOED2Hqr6tqfg7nFlE9g/favdPD/4eFEv1h/7S++3n8DNcMPkfXzt9OfbbCibr5jx6rEOK2nxatJi4f7EnSZ0ddV4UpPB88JzyzCp4U24pvguw5SJDZu4rmk4G8s+OloetphmXGMv3LvLj+BTEn4yCReSx4FvtXsciql46+7M4+4CzV3CrviR+DCfrFjHqoQ6pnbxNJxdIUudEnQqXuBFd2rSofQpup99W8aWE66EI0jKOkZHuBiI+PoNJehsF0U2Y+Xv152QFaIZgMv4qCbkqb6v5pPGn2SH6444tWNL2CwvGAxGkpYhPQqTEw/c9sCI9QR7pZkECHiFIb505pGA139/ikIDvRzgMQXJXVwO6gv4Y/kWFQwjSazqk0ArSqo0ghThaEKRrOOii67/v/I7bd93oe9fLAA4JaDFDNbtHkB7qkMJgYgUpgEMaBE2GIkjvOknQsKOrBlOJHn6pHRzSN8QZqpXi21ms6dIhjeabRQCH1COahBVPZkN1SBLS0N0SL5FDAq4EGqtGi+l4vR6Pp9FZqOnOIbm674a11qEdoi9wML9Ujyw3pmPmyYLWZ4MUpA8Nb9Tp1dWiEA4J+HecGa9HBcaLT6Gmyyq7sE0SKbT/5QXq475u2BJOxyVNRtOoPnIZjkOKoQsdztnFyCEBV/RoWskRS1JUU6QOHVIYvM03TT7P7vHzePj1cxmgYvvL9Cga12gy+j97Z8ObKNDE8VHWXTnslne0C6RZ5WxIY0JinsTn+3+wZ2bAl2u1veToU2ygUVdED2VufvOfGRb9B5FGhTT+/c0cvKNCGpdPXI2cvF30JZG+USEBuL6XfD4DlgDn6ZWXF1Ajkb6ofhS/NRPnkkj31GU3cmFUSKNCGmrg+55Hk8mlRvrOGpKASUKNdp9N2qMJRv+lu9+gRyB9iT66YiaOGGtI499YQ/qJabO/bnPq+V8W13j0B5G+VSFR57fnT9qC0vUFX9C/EUe8vL6WP5ZIf334Vf95y3f5uq6QdDaTe6ohXV6o8eJx/Pu/AOmHddkpV588jrobz6Fc/dHmgpvbrryiz1MfUR5N9b+rV3nE2ZgBKCQuIyWIpJnz0YeWRx4hkA6deShXqtNvJ5W6i0CEzUR91OV2y0z+sBjR+44q57qdnC39DhXSp0R6eBhJ1X/K7mcpJPy/AdB6Zp7WeYBQon6kdycRome9satKg5BX/QzPSX7EG31rLUWvFMZ/4IajuYh9v1UhcdbO9zwvSXx/M5tNp9N3u7o6C6RWIrW/HVWgOjTBECtLdHjf7BYZt7i9qyD1dR7R9XK7M8gUDSWIfs3kVtwyie+6hvSwWLRzrPHDNffJG4wc6VUhwU9TSJ53fAqJD3KARNLyrT8QZm/gipBidxI35npOEurG6V4ReY1+IavdXhNSZ0cznUxvSKTvVUjc0RBvUCV9sJx5hEB6bOWC2CynnVIQM08O8ZxZ9Q4wys2yK2aimQmizq6biSj3+fGryqwEke/jfpPcZ4H0Nh44/bD3WENabIPtAh8OQfGr1UKHxYUooufbQ/QwImnssrulkCh5EBSCA0wpofBADsjDaEq4oOIxVrIT0adLGYi6yqm40c7az0Gw1oIFnnJtDZfZuS6uxzWwr0puZNYSslBoKMMc+ot9zx0NsdQuDuk8k2MP+DBqSC2RhAJnutn4vp9cXQ5/KCTRJumS1G+NQwo/GBaQdHslC2hq2kOlzxfLkJXtfnit25QePrJO1lBbSY8toc52gp9jqqy9QIuEssLgBjLbK5CUOJ2k5qJ9xGQq8hS4qLurIR15tAiCAgm02KbpgaZv6PRQq4wWh4fFPEi3i4eRSP0JpPnPUkiciJFt4opeWXpiKK6GQASUcMEdMxW3LLOHVpQvwhdiqm0ooCJ860UAnNzQoLaCLjsEVEsSXRqSB/gRMVAqhjw8+hiNrifsVyG1kW+8We923mTiJXKz9p1jzm4YCon7GeD0215bXi6B9MjhCm7uAF3RUeF7hwSk7nDyV7G1aK0Dn4v2pmMWQ8Av8AiEyWPQEIdGaMWpW8pau5wDRmNh46LL5PEHxwgkrfCT++ztOHViJrvdeuP466njeceT1u5aIaXb5/kBhVIaEYQOh0NESOpGi+iAQHogjTSiZKwhXVVIMMUwmVMxME0SuRyMQiJnWdZ1jh7C5FmY53kpYryXKjdamxzvqWJjZF4b3v0yw80y4ZKjwfBWxLgBrIzGG3qd0igh8e2GP9jJ61WNQFJa7Pv0NKo7t8Tx0+Uu9Zx0LYpg+iZn9+0KCY49djcVVHzR1PCbS0gCzWRDgkK4fjIbDpDoaKq8rlcAqzwPG4N24ZJ1QJmXeCOzwU1MWdY57TPIuq6tNYASucEjr5QphdJmBXRztYkV0NtjtimDbyIguRS49PiNj62YTpGug3TipZMkTd4o6bvqsjs6SAQSa6E0jebzQ5GmabBdRA/IIR6hcqLlsBhJMnbZXVVIGvximXrgStikxW5NKTs1EE8j6tA2oS2hsWEV2rBGr2Cr2lbW0U0YViVGuWXVWFwnUBaFWUPZFQ25pRwM5JVUuJZeIdUUKiitDS1CCJFVWXyfpnEeQp873WXs/HQjdsEk8Lx05vwLkL5GIX2a03t5bZH02gkk4e6KIiCzUTtk7bpwBgMkEduwQRvAI2nJTPYxGkyVZVXYrspICDe0iY0F2UAW7kkvg+WcL+BmrqY7uskqR+2M78oppqkr3JoVEm5mVI8P8kQBAAAgAElEQVSBS2cT8XKH/+/8JNiknpzeKZDOCumwKNIAtdABwRMtogAZRLeneTtKoy0iKiiCUSKNNaSbNSQtxW6NkS8UOyRVMBgg4Z6hh8CANsZgNg/bJjUVV/vciTHCBMNAWqEjgqySEFe5oCwcIibbQ0uaE5CEVngntNTIJdoC17rWUplAlGEs+gbSFBVSsimKuCjOjiYelkL62EKoz65dHkVbX8GIBYEkIUlnoLzhpOy0W4e4xyanefdsraRGy1FZVcex5qohAUnQEY/JVhoLXBai8iF3vpyAJEOEkOaaIqxojNvVAuOaVoCTku5PIR17GpbFzEs3SYqwv5xA6D677Dhld1yiBVPpmTQTCqbD09P2gNqJakiLkUfjTA03a0gYYlLhCKboaCRQym4op5hA2JR0bVWtUBq1tR/QFMFSKQNXsVdBLPGdqVYAdUWRL6diCEixS0ASeaiJSsDlJXpAH0Q+yrq0mQl7PPPzqJAQSEEQ+BMMGJfHCWJO3Bu+QqK2h5cD4ejpUR/dsCAgaVjv0FgGVEPCY1qZkk8CUGAzysK5FHIAdy7QKgQV7BuQAodgG1CAZJIIpJIQg8aAbwhzin8EKyS0N3xOorsCDH04ZSehyXR/CkmcFBKiaO0kaZD6zvlMpPutIRVk97i0QCqenxlLESfsomjeAWnkyDhTw02FpEghAcW/MyA2DafLDowNQ/QSGPCaSgvucuASMxWFmUDtcxZLwjarMswoZYdAclsgKYKRIIXkkjRSWteWzobFyJe67NgfkV/qsRHjBKRkNnUmwQ4HziBrSJ8u7uPLyyMc+8+UVAQkF5Y7GBKQ6FJCGZpJw3SxLGNIIaFKpis6aLFvU3YNAgZxhQZhyjok0zFvFBLfWCFpwVxCw8E7sjDarMm+RCEtZ5uJRJG0LOK7VUinmRrmz10NicVRgeOI1dE8ompSGkSLXwSk+YiR8TykW+chKZdkETr4WToVrUIahqshcEBpuLubFJLmABXdA/fp6k4hEYt4SPWlMOMkTb0XnUIiRSRJJbFzwa8qspDejpRzuBePFZL+EoXk0zBYw/Lfmhq+RyF1fXgxdPk6NhM/mKCdYPTiEJBgKEBycT9Nbi2XhTKglJ2kzBwedIxAcJWSBCRkC+kn0aCdGNTGqIiOCknoFki5YCChocX4IAUqJO12IZDY16L/GpJTLGU8dbx0cg5clLpjhUSqqGtqwHHAbAqieRT9ihBSW1ZITySRRpSMCumaQuIG6p1HAXGQYDw+oPOQIKbsHKdcqPOAcnd4I0VESRVUNpTOk61CWoEiKLWdvdTJTUCiU46ohpRX6Fgzyx2/taXvv8d70XCXHXCzXd+hr+MHG3osPL0Jkn9p+/4mhSRAP/7n9+tLd/kJns5jGtAMDUmAe5MMqO1bGDryBg+yVqiQ2rZvVEhAzXFAygZUq5BQLKm6ofMEKBVHndySgIS6iXsZcAArjn9AkDUJ0+aDCUiIL9NjqfE04eFu7UwnTlLM5LpoA5fYvWeFVJwV0hyptO36vNPgEJFUWjwHtC4aLzHbZw3pR81lB5u1lxZrbwpJuk68dDhNDRCHtq73Xakoy5ocTJZV+yzDyDbL9jiq0Q8xkAwCKdxbW1PzF7dPkQsJ6ywMHegGLqyyzFZZY9DTWFrDQCK3pHoPfa8s+o4UkoDHQ3f5CVe4fJ6Xt96l6/+xd/3NiSpLdJRhOnPNjugKmOeP2qfG5FGpVFnlP7nf/4O96RlQQDBEUNDtdm9CjOYOcOzTZ6ane+1Bb7TwB9OR05XyvLjUE0b6P5yt3Y3DMNRyOBy/Il7YbBe+jhEwqz0XfLXDZcbVamWKfNhQRJi37zF9AQ92yExRuHtdhbjgZJ6ZaeHE5qjAGs/GTNcMylf0uMdadlYV/bH7kJ5shgMKpJE5WvwTZz1o0iIuoSy74n1ImpDQdBjuTT83nsc6UqRMc4UM9/twhgNCKtJHy9DYC1OROYjYJNI6Cb+84I+hcUtyvgJ0OJNwFc0ihTuU9voAnzCm2Wu2389nuHagvRIANDdjV1qjLFWk7C6y7D6S/hPbGCoGJWuPsd566rt+Z3IxQanZbr+LmNlfpnERKRXtEB9zJmcICg0YPkfhEyHZ7PQz+/ES80pNQQ+AuSaoCMsxRPvdLFpqZrLgUkxEq1A/o99qpvIaPOXSkofHmod3WMtO883b1/PT8/PvtzfMpPt6W7y9/Xn+jc+P9BHukMWnqJ4drSGVZtnZSjJgd7pzzjpTxtluqudmW6bCeRZTucGut0PirrFYEO6uN+m8nM3HOo5VPNwrW7oBzPnYhnTJ2zlmXZldofqU51qANZpWCA0XV71QIfEahhf9K9V+wtbcwWvJ4oII+hUAnWEkxAkwsLWBNRYUluWw95mbI8Y0fkxNBvbyKvDnsZHFSzsNxw0+ZFK1Iv6u36nircOSC5O+1+T6qOh9VxX+HhWSJpynP7/Md62Bfv96xgWl57hykHnucEAPqtRQmGUnhcKHjMvCdaj3DQa/UplQnCs0/bMeqfGPeCSUqWWHab5m3mYeRa92s4iKZraYnbKpVsoUwePSvj9+BmuaCSPAmuSjMk8zuVXH2O9a71WydPuJj/i8ECameClWixPdKfaNd1OjOClUp3AB0drhAPGjSQDv+ng1x3lgAaZEYoTcgNgQtqAdwgISmOFLDEwUm0esWQaGssDlGLfcXy07w0dxhwlbsO7pKcdHlpB+UeI3KaSSNSTz4YCk4VC3Cn3bymlxxUszzFQngfRMG0bH83C/382ZjNsG2Kbh5jX2y+GlZlEZDiYa9TSl/SfEhQ36fqiQ7CuVMIPoX2qTTPuJIUuud3w540vaIZxImQZDUkwXss+aLPAlwiR6MXN1imG23eF04nYTyXtTqAOeqtR71bndVNus+1NIGU+Z9Ec69kgy34wRj5BCKlNIj2G4UzaehYO4qRpU82SNu9bi2FdweYM1JLwAvY2p4D2oZW+Z9hPp5ln3bXYCT39VlsMUVOwYq5rvLKyKdLS8046xZ3rE5rmK+Ihq2Z1XSI/BSGZq5oLloKb5qLA5dSYF4IoKyUn6HPm1zPvIKCSlHgcn8RweQMsEW7iM5KSHdOcKiR6kkP5ehSRzE3Ot5mKAFAV8dIs1JBepyNv0e44joA5Ks+0nHg0m0I2BcOWc4aO7rGVHD1pDIoXUNZeHcXjK1UwcmaXKqykkT9NRXzNR/YBJZdpPKLqpV1n40lp6kqIj25XsUdaQ6EEK6a9WSF1iJAzDHQf3Ok4cITOL69dTSLAZDDZJyndNgJy0nyC7Ck64FBonGiiOo/IK/x6z7Ohx68fzEykkskqUZB0MnCYvXkUhcZyvc1lje2iT9hNfj7SC1EEtHdOQTSbN4IQUEj1IIZE1uVpxzB6+mJAqKyTNXJsGSzqopakdtF0qRQrp6nK6aFWrq4TE86uTtIZEWXakkO4g+pUliVzXUEgokHzVICFxyYfDd8Ul6aOWcNJRQgJSSKSQSCE9kl1FIXGvUYFkVqJUn/IZ2rNOEhLnrOe5tIZEWXYNKySahmnR05wQ0pkkhKprSOIKRViVS3zUIkwmbkWM3JCPGPNGwToLtP/++UVcRAqppkIia8/cSdMKibP+wJdNw0S4dK9atC4qJO8zCIJBFpDbP//5RY/WHg+hkNw+WXuWVUj6w+1uStPjqikkXELyoOFAiSuCSbs4yUQcG8HajoSBrYPP6YlC+oesTRsqfv+E1OsXlXbs39sj/0SJtTnGgsGcTNktRrUVkjfwGvdXYnMYf/excMkt7+jYe3Fl3AwhDYJ+BxLsNj7/zCokDu9kbdr2MbLszKR07t/92+k5mYbVXRrSyZSdZqfpyHyrs4ZUN6eh6L3CPfRVurNbf/+wzU7ZCakJqccc2f5A2WdeIfUFTa+26czV/bttSmroTpYdXyw8/W86Kuadill23Bu4Nfyw6X9YQEh0s7qQZcfZeuQPAm8deAVZ17d1HZJNc2tI3J0kfafIWjD3AeIBSvvuCiFxNlkHQTAKgs9iQqq6D8kf9GsJA280dfJ/QLgUt3Qi7ZsPNEC0LdzWxR8/VUiuk2ovRnZj4w9ASLQPqUsKiSk/CAaiZFpM+AOniheqRUjS1aw46p0SEtDd6sg+JG8UfPZY+5OR/EQhMXdCcUt7BqSQyKrg5OSghJCA9YPFNHBLJmOUJqQKSzjws8ayOR+z0cF3MHKIkLqEkwwhwTRYB37bE3ZlCom8SXveBEghkVVEERS3o81VaoBF4PaCUcl6tVNNIUGNfbGc9Re+F5wuYhEh3cLPlMEkPWXHB5qNNE66qZAcUkjteRNSSGRVHE2CnoK+gfnSQZ7PmO/xUkKqsv9EVpzZK12q1oR0osSIkG4Mk7Jq37jNDNhm0IHsQc7WwQCIkG4btSA8sGoK8BOVRAqJrIKf4UoMrdl+SOcI6czKAGeTgV8FcKIWITEOxQqJPM1VcYIMFMNk+G0/pK7kskuVmzikKburRy3KdnJMuquRQiL7GYLUMG3Az3aMRWFSskzEWa9aSaB6ComBVUiU9n1bPpIiDZOcr8kQ0hmMtG6kkK4ctYhUX+GekFlGIoVE9h2C2DBnIhP8/qDat6lRx6+vkIAUUgs4UXmcZHzN3TToI0K6btTi5Gp4qAwjkUIi+y6iGZ6Y4JcSklutJJAcDERthXRKSHQ/r4gTcYqTtEYiQiJDOExOqkplvAkpJLLzGCrgI6OR4CJCqlijTtZXSAvah3RLT8NFEU4SjYRr2JO7ICRu9iERUK4V3RbVOUx7E1JIILsAP5Dlw4DSIabelWQ1QdMQKnQ0aY30owZ9frWSQLXXkPwgOLcP6edXqhswOTuM0pPKwkQCXGNchTAZJk3vQd+UHut8VT4cX0/y8kt3L57/kt+lsAXXQYkEp7Dybmpu9y9USPrUhXnEH04O17n451SHyCc7ylymQObVSnvooiGad0F8GuYPcGiakYr5yMS+yVyMW30Pa8VtSLWz7FjP806KNB4JCb67UvGvDjgBuMK1vYB9NFpLw/dSDOmn+EGp6NM490cuNV4CE2X/P0wtt9uP9+7XzRz+b/uxXTJ+ZKHDpTsedo19FMjq3kTfqzJvksACrEcs/yOXy+ji9gWTx5qy+5lCMtGaDcPBSgDBb40gznKpJchRJyCJQzLNR8slK5mRPSgVUPoPqJnkt3E0wyFLwijW45V5YjPwq+Xi1ltD0m8tKAKQUUiiPFqwn1hIGleCWQnRMJG3DlukxWj2I61ONhRCjAWubz+UyNyEZM2JI54UNAno0rjFLiOx5deHsfeOS6R3O8yvF3a84KngTPAu8lE+XDV+ASQUexPJZ4W1kTArJeVNFHAxYw0zMExKGuocJ1weTSFZjpEHDQiHD2LqZ8+Yay8Cn3pM3FBIo6ebzLLRLwgWvc4PTuKAHWXGzeYrS0gA6TNELti9LrnFEo/2TLFw1SSG8A+VElI8Fi5n2+37sspsDMeZuGq782tO2eFOJDhHSLy36PPULMzxAE+pb17IXIsTYX/hTZm8LUwkm5n7nhohiPHqmCkAyb9Yxe0jLk/PCP/Oa8iUvV2T1QzYbDxnoklXw0phojGt+BC9/L/4ZdvlWTvYHsY5jEMB1h99onsw1/lmnqIyTAxKXmaZ/aU6tmXh6yzvTaT1JorPVxMuU04kOQC5GqvYm7AQAbPbMdls2FLW4c152DWkIyHJwz3QIBIYVgqMG/Rn11lPF6Pp1Gf2x5HPboUgPRKFM3CzV2GGpr8C/ieVJp1ZMk2UrAIrq+LYcmzQpSRYiorzJPFd0UqYwSsNoTETnO3CRk8GSh1NPGfHljamxGmO7+fnvaqNyWsTUuE84JGQWD9wrZ/BYPJwYDy7YIOp/p1g3nQ6Wkw/HYbIYf7oZoSkb725z2wVgT1S0uxs11/3YQIldVQ8zMzDhTuO6DK/TUJmBL5W2Ku58TQ67l2iq9KMNGENBr9QHrdozy651kf/Gvv4WCreUQPEcjLMLxsBCj6Z+hBfZjHym6XxuigxENBOYMyUdXbKgsJ4E2aBFAe1iTfBW2/k8cGJHChLQbhXyWv3e664xl+jkvC4gjTp2UMntYr0iAopmeX4P3dXw6OokkVLuValQoJAUOgF3DTIbC+zMWFDNr7//8f2nFvgOC+7b+dlbWPaSdu04jRtHc/HvRddrli5Iftwy6tllmCeJc0ilmLURWfP8T2hVIiU4I3UuR5S6L+zKMSrUPvlHbLsXE8AREKRSUKZz3O35Y/jLfzQn1ACNAxH2LfIT/IJzvfjysv++m7erx8/Bu0SWWoc6in/UEB4GuQ5/tX38LafLUgb/cBSTcgqgAtMsIWf40u4TVazwl0P7bPqNeH54hJ3owkrvhwb8aONDFkwrTsn43RSkdHChxZweKWFR+ykR+9C8wA7U5AWB/z4TmOAyfuVW6tx8cmN6Mn0L5uQJPnt7jjJ2uGZd34t37YH8zpNJFE24+o292zCVScyzIqSFeS+nulKBJhKVhIhOGTdUHAppPAd4ShR3/JA0DtZ1CjNsqza7vB0xtk5WgftvmZC4jupJeaQ4iq9VJcUr1HZ9VW/NS6K+/68ibFJu8tkIf5QXbbtU3wP4OHHuStrkXHqhqmcGghOWRa4cr4sp7LAMRdlXXYlgrMkY4e9GxzkiW4W4BgLwZU1NUIQNuB78aCRwVzquWvgk6xmbUncw50vBOnj/cNSk65rahIX8tHNUxLI/+WiepDGv/wxsP9vD+l/CZJss3PcxlgTsXFVpXylbrARbwwQ0mZ9rzCx7cERQedLlT5HkEiCgMDMdZ7KIccSJwDM1BTjXLsGPzYkobEBPOpl6edupCAF34K7gJYR9+HLJeXJmBEwqwn3ouymmoLkzVv+9sA20i1IX6/v7+8UpJse7X0i325ED5zs3raveXk73R/mNzw95BBwBp86C6Y4t6m8SEJib2vsOqxuUpY5UDLVyia2mUZXACUloA2CqKeODKErDzZR2+JE2STx0oxi8IVANdL9gpKUQhuwSYmERC88+keyyVKfOxwPh2O8PR7OxzjafD1B+mnK7nIxVqqYn7gSpwekH4e/Or1kW4ni+NhfqgpM45CQaAr6Y3zg51Y+xfeYKR+bKT8lYzkNJTniVJZDmc+l9byJpHIa5nEc4E4cQNHkAAvLcvraaIbCmXGwTOjWlDlIpRzznDGlxqPKvNNE3nTJJ5RiPq4fUAkkpB9Es5efqIae8o/EYJMeqEe/eHlCye5yOGQ9HOGlBUxi42wL0akqCFLctjGzHP58FmngaLAzbnyKILGeW8JdlNAlrGkJy+G5uF03N7yJ3SAQRV6OMxDj62Gsp1yAEGFhF4/PR/wtA2wwvrwfGggSHtXwUfMwjuwuEDNd88AK5BqkzfVKlw5ZWnP0fp8k8tuN6AGT+GUv//zH3XF+Y4I0ac/3JbcLU2SH1xlqkA5sMueFHcsuJ5u4mrQCNjEFb4qESJrAJgQM3MvIhQdxTMomZe6046yVfjNh41QqhSTSDCUAF3Ybu4f+xTdB2piq3Rzj9hL9von01RKS9BAkU8VioEzibOQQtD1/Yqa9tJHWYjQhWbASGDI6pv4ZvsclYAVn3kAdhiU74TS3g/gIa4ihUWTehkaAiMKw1C9jrtgJ2GiAMYgRNxKtG7MmM3aksG52LNkliTacHmh97xMSMhIrMu/mR3NAkntP+ZekKIro53+A2na3O6dUo/iwMa8iSKJLnx4j+Ba8ALbZzpz1EzO2oiU7Zj26UCYkby4V7onbp/SQuLQARKLyzpKdg5XVJrVjyQ45iCaFDOIgWjLPIh4aBC8TegMmH/Gf5PC6/LKcXsDTmTfKTyfDHhIjtOapx89iasnOEC0/zljz5l/3MPn+/fCSl+/p958SEl9NXut0Ys2GcLFZ6l6lhySn4Q0H98aqrJbs8GqUAuKjU6HaI9QFl4SUUQ+REoTXdWchBfzhcYtQlEAxyEOs+s/kxrzES6CbCA9pugcOFq4zDRAk6Hy8zbLjYR1zuL07xldLSKsgGZ8e+3TnSTZISohIFrhqY05xuiUh4dp6K+2TfI8mpNrQqkJctPnsCq3ok4bqJSGBiGpoEwWJ7kXU02j0yQsAJE8gU6AkWBeOZo45izwgpIg7J87qgx8H+6U3YD9Yi1FBut6N2Zn9P37N+/ZQo3T7J86L/PQe0jbD4WyPW+l1gAEY2GTV4bwxnFHqK+F4gwsJyRlcR0/qIQEW9LV1YtikhiDZxAcvq9MN1nQhIU1iBWbYzFCmYqDqLAsPQcJxMlszKhU5C3ie30BCg0lEEeeSxwrSalIkVHbfaVxuCcmb+5Ldby97LpLb3wvS38NYomXjyMK2FI4oeZV3hIHmMCGdlE1YMrEhW8OM6ojUSEGSeigQeLBJiyswMfA2Wtglf7DMwoTUSSIlg5CVkoO6kaJpmrmbPLSJdFeyq6p+s8vatt18RUH6qYe0CpKV9FJl7dnssqrv+0vM6jxv1zJ9SEiHjKyTPaky7OzY5XlXrENOPNpC/SohVC8JCTpEXEFfkJsbkAkFyQZBYkJiyU5BqCfM0uiwSuMDZ+GveWxCcvclO7vXHtKtPvM7Qfpb+p+tZ5qm591macL+akL69B4SPx1uB1VC+rGahNhqbLOYZQ1gKIzn43b8qNNV5tA+BSQ8T2TqctbYvHTaFgqLu8z4ziEhwcDiXgbrcuw6KszSFYIggTohRrQpPgn/T8GEJJzGWhC3dpweP9Rg/N7+1EPamzuYIHm4V51qEHNfgN4vA/eGIRmCtGFR92Wm7LDORTnnQ5mwA5Sb5WwvFnF1PLNZElJhIEZg+KljrRZu50dC8l4FKTQACK9AIUYjtMDxME/BAJsHEuBNkHY2inbsIa0RKXJf9Dwkc+mDINGIWQ+6ibKzjngpuIIgrQnpfIzAqs+pDOt53kbetLzSLAP/kmD1KYo2uBvSRUhI2qJsHKjDNUtzaID5IUB0ypN1HU+jQzWDH7aenkd7SPxFn9BDWvjmeusO4PCj3+6LHB5u3t7/S3RqcGGgP/VpA5/fQ8p2xuyOWx3xZjEm/LaU0+AQJAnjBWHQl7CJ/JMSEsRSOJWQYzE5ZUefvlhYFSRNSByC0rAkbGCPVmdItYdEQQKOiAgNR3plVJCYkFg41oFg8yk9JFEdMtf7KTvBb/62zL7gW/LCJyLtfxzmh1nOHxFNSMoU7mUS0jr2V2tvEIK0dh/fTHhnF/KEJiS3GFmda0lYb1kSEkegQBmOCcmVszCQa0KSoZE1IRme3PhAbBerIJ2L7WZ3jOVy3G2+9JRdYuIsMhsaXX1PgL4SfHnjLgeepQOh4lunOGQjVuQj7CfnY/oU3yOnCTpj8pLllSHR4W5jIUhKNY6nB/gQjnilZRgd6oYJLnQuhv3pKSfMaiczXZFj+Y4l4CEySadhKXScHoehmyAFA/xh9u/r2Lf5/VCD/MHM959koU8WJLYPtxCkbIvlPxMOkaR9RImiIEGk9L00DCiIr31iylfP6SF5M5aG7UNaXEgO37FIvaziRJiQ2AGawr28I0JicrezA0zXOWJFsCFwMWAsQERLdm/DSMMMA8wpu9NDqWbByV8/mJU+3vf796tffYvT7BHeAuH0wnokqkjhtDqz0L4wITmxGT/i9vgyU3Zgigk6YwctxeaEK6sjQ8HWJ55vJiSySRLC0onNJK9sUofSSsPKLaHSIFXZfFZLU85OCCDELw418HSk8qFsso5991s2l/vU7i5ptH4GxVdMSHg9btqs6mFp/SFr+7Y9GxdVWdW2W7Op2mPWsh9QtdmxZTBKj20VP+nEWJOUeTfnHWe6iy7P4WSbPB+wAUTMulWGhKT9o3ngTSdtGASmKYcOj0+c+Td719qjOKxDDYRYEVJgqwLLTbfS7cBqVa1WQuLL/v8/du2k6bSlzDCX8lx7gOkjLaU59Ykdx9nvigOjJqcSVCqDvNgV+4JdxKR63HCKBuumb7UApGRMY2As2vew759DTrh23T4k9ANjlbeQgB3abESPCSZ/uCVj1Ja921OiKQbM9xFowtSftxuNQ7IuSQ7Fji0bLAkdxUTtfT0TOWWhxh3HMgRCyna0hePpfEBvMLUZZhzHSwscXgdrD66DVaXfEsYh7YcNLY3uuQCN4KirCYmo/ZfPHfRzrh45d5BR8598nX9/+XwnZKJWEEjhlprirFjMlFRJkeyVd9YmrAVKX80F0U/BKCFQ+MBc7j+yBW8oNqwaCnbioj6QNinY9+J1x4HHRgZsUbsloS1+HFJedS0MFqpe+edCZ5IlLoqzUZgXtZDYzbJY0g9l+2exXITRRtvllhb0dDulF+kXXphuxwS56XJrxpMbuexUXpbOeIfJxDm3Ae28WGXDAqkKMn5ojRTNnkvsyaaO8VOoXOlsTmcCV+aaClZHbagFnJWpzTEE0Qx61eqj1EF0bXWb8q8dsrf62n1IqKf02/RUU4twvFyMkK3R7XI59poIRtvtdqJGjJftlHYRpkZ6egttRK1Xqtcy23i+UDnVr0L6zBkvfpXe1BZh/y5/7MvcbbLQPbBecxwGpGWmc7av8izDXKM/isSPPnHGaT9cfzNsNrsPEnpgGL9LhtPjN22pxZX/mkNMrgpjqn+GgEeJHj/KTEl+yK7LShfGt6ZUu6n/9NrEuAovlrCjJjlCud/QJh85p3wAHllCWblJc2ocI+kOWlDV4Sk1asuMtnCnR1HaQVESY+rGdc6gcfTYveo4pDg8OWRqCMBCFQzZMLw95EXgDAkYEx7cJNu3T9oNqsqDyZdgK40b866xDy6MmTY+rtc7ZIJHOPcxLyqY5tb3zGDdO4x8IoVsIK0LO2g+xNOEFL7H2vl/Q9bMYfuqr+yy43uHIY8B2RQcUI0hxrfKbxegUyf2eMfULQJ6rfcUhRyq/MWNLK8R8DEdQwiCAR9ERwcWJZhqyD1gzEzCA/erw6td1ueyG6stiPMAACAASURBVHS4mtIfpTz0SDHp+OFnn/C3Z0xNgjgTQHzCQroLeJxEDSGhQtXR5a/R1tca77KFoE0sB3HziAE/fgTLgs0ejJCuFsy7Nom4MfuDGlYzqsmJXHbv80+8XLZvbP2Lae3C421Dorgqq53vTGgVvjojcTIxD3VrOYqXE5Vx0HfIsxeK8IVadrwUh0OROOMTmDhuMKOPD2dfMR8WyvlseOiTnfH5dGZhaOB/pGjoepSa//qVW2PgiQjpfVogf/OqDT49XMxWajHkLwsF7U11TQBHldUubgipDDW/TBgzwDEj++RwOCR7n5IcdFYdzjAyAS8V7Gw8D7L3l21xNSi0TzVcYhpnzhbwLDPGpq2k8P7JRBNVh3kYRvJ1Ghx4HiVeqXgFU1W4z2vI5SAL2iSkaPYpe6PKqBfQ2OqnokcJJ/bIQA2dFP5Esu9/dj6kSFf4nlL5piCqvxf9JdSJm7E5p0BwvGRZmWnfUOa2ro1zlDRKx7PELWF12Hzxp/I4xyYNp2vYWDU0eVx7HFK/Vm1WQaM1cwePDPZvaODGVDNkuLLMXFXtcVaTqnjEC9bwijCBwZ0CCk+1W+L3qHT8JNqk2W/SeMTMg0kfSlr6oLpmDnP02gQh5E4Ntd9TtqVWCCWDaxME3T8d0r88H9IzCDMSexhVNKjO0x84/FSDhKHTsyFVmuYLE/Q9Sh/SU4Oj7bipnL2h0Xxe9ePgUzvhCVMa3u0wSKfqKQhpmsIrYKMdAxEGvmA9qc2Z5xp8RsLeKWPxxaYwVy9HSN4ZFh03d0Z4HyNpaFyYGk8Gr1JzBwvpSRWQDt64r7Tir4AqvpBjnDSnHFWTZ3HZTdSroQQrbfIllFzJRXRkI6Ut2hML6XFRhPgQKg+Peqx1q68TqEkphHRPbfMY1HhsI7Umi4RnIaRxql4SJo+hTcg8b08bO2mbYWIhiXyOITyeldpc1ULSQkjPh5OOLa1VCyfP0of0ghbSY6EETYOSJrajTcRCEjnHSKpbv0ZBp7Gl6Ake3EKSPqSnZKTamNaGk9g37zdZSEoISVDiPT9aT9J0MtHvgVpiIYl8yUgCCGO58MgJTU+wuOxEql5w33ceyKh9t6UPSaTWJgqxjglsw0QsJJEzdU2Nps4+GF/BQhJCemqYmGOYCCGJNJXIiQgLsZBELhQ1lT4kkc9hIoQkcgZZiYUkcpmA9CGJCCGJCCE1LSQUuY88Vx+S1Ne9YPJUhCT1dS+YvIyFJHUphPQ5IYkIIQkhPbS8BCHxdBIid5MuIV0+6c1V+pCswOS+8iSEJHJP2b4CIY3tROT2ov1bXyNTw3X6kLTU2c2A0V3Ro2chpJHA5LYIae14kT4kn4r09KtZGo73qm6B+t/Fn/XXvf81vq6zp++vfrU3fLCr+8P+v6s/477zBE30bltISpnF4lIj6Uouu4+nUlcnt/bdUAXDf/Z8t/rCXx8kWqBrvo9XBsOIat7nagXheVx2gOrzp+DoHt7zfaQGWlUPHyLjWDF1Fczlv7UfIX0vJVF2txw2aPpSG+In706xnvj9/vPeLez7x+pi79pyNjwunzTKDr/wPn3U/QYkRZikEmV3I6R8XPXn4ede+kTGIYlcHvbdeZ6//7gwT4yaCCG9HEwk7FtExiGJ3JiQ9LfV7MeP2WqVXuK1m8yWEyEkGYckhCSEJBaSyFk+mH5CSpffVyTfZxcRip4txUISQhJCEkISC0mk3+2MqPqyIXYIicosV6vZZS0MSIWQhJCEkISQxEIS6aMjJiJt5lobdZQwvk1ICIvVn7fV4pIYOQWj2dIIIQkhCSEJIYmFJNLhI2xOBqq7jNQJajA/ViP97dslw4gUjGcLISQhJCEkISSxkES6fASdGczbc910XHYw3QJut5e57LazBQghCSEJIZ3nwDjaaD8J28bG5/FOa+824blYSCKf8ZGZdwWajHSUy05dmjqICOltMfi4WCEkIaQXJCTvwGjxBycOBPUxI6FFKtJbhrYBoIxDEgvpafhoPm/aSF1C8mOwL2MTXMymQkhCSEJIZz2iFrtk4/abrkpEtM15NsHk6SnagXItFpJYSF80yk/Y4TjwN/fy0Xyumi67wXPZmeVsJIQkhCSE9NGjqQMbQbYH6x98W/nqLKx3TnmasrbSHtbS8xQtKaSDkiRZW2zpDV3N5KqTnVLxGyqVEj/0lXM4iIXUq8qxtYCoB62F3kQdp72+aBpT/h6BspFNaOjr9Cft5aO5rlOUWLaQBiUPpcbXCLJrExI2sqzoWCNYrWqDj6Fzjmd4tgaFkISQyN7xaSMNAmYJPzQGvJ+OWYfeOXONUsg7mIXoAU2zvP5hkCeZ0skarPftsffOezVYzdA/nXo+4g1hVyjjnXnquowkFlJUSm03rNdKuiaDz1yyXyekDrx8TeOp0qp3nz8Kq0FCvgzhzw5sIul+QprXTSYILrsBKUnBYnaFLqQuIWnVvvWxtRhsNHwMQjqucWUQhZD+cULi5y7PSkdocG6dOJelsMmcA0tv7XiJZ6ByJsty1o3Kldk6KaOaJBNqr4x1yQRyB0blOahNrjM6iyXici7nB0ClWaZpF+a8mm+AjCxXOnXV/iWxkCrbouVP9Y2Dd8WEejskSJk8sGOQUeWn6oRlhEDI6z0TgTKeh5GFlgsOihY1PyXhF9AD8Z+/v3//nA/JR6PZNTx2TULyNFRpdhgvJr7ZF3Q9TBeLxegBdBLGVmlLnFPX99QKIT0+JZVJUSQHq4sk2SVFknknXJbsDrA50FKqLLjdukjYeWfKZF8kjj17lbY4lFAk6ySHdQEa1gcAXyTJFZ2n2K2BSCtPdsW62AMUbEnRhzH0jckexUI630LC976P+KhWXrdGHlxsFKlW0lmwUsNLw+jtbfb29rYFakfT2moKgzRrKmMmX3cG81god2Vt3dQahm1y35ypW/Pvzlxkb1mx4wYQ+kIFWpUlGxiSOU8aSPO551Rlf/4O8msoBlEwWV7FQGoQEt+67QyCoQSz1QI0/Zbtku6yhsWP76slb2g4z+9gF7FhXGZ8HdhonehdYs0RlBU+PiM9IyFhpSaw68M32NMUaO1qK6Hh72a6ywDyMoVUlYlOtQVr3e7gNqQQUiIVtnXcLlNwSIAWHNNKbVyjSVyZYEYctS6IufYFERKVsQmzTqr23Cv1P/aubsdNZgm2YTwjhDQBxBgsfo7Cj7QHRUiWfLHJ+z/YqWq8Xkc6F5usvdL3yY6XYIyxd6foquruwTIMICVw05WQsLM1tlicd09C+pBDYrBX7asuxDjPhwmzrUy9Gxofq6UWI4ZnOvexjpnX3SESo7s4zdDFaejykJKHEBpBSJ9WTSzwiDEsTwAgnu/G99dwAoPWL0otBm/H8da2TFNqqaYpvKiLc1vooWx2+kLTtNr2acVJVQCSfhnu2t9xnYH0whuW3/SHN/2QAnf049evX1j2d+AQbRgvw0MqSDeEpLYzy2X7a0oUSj1VQ2fUuop0ICQMPKAhX15OAllusMCbF4t+Rn57jEKZBYNWjSmh7IkJAMn48umQHkBIWzTRBU+Ft9jBk/g9diiWjAoaPNpKL3ystRbu7Owjxsb5eSm9aKq+LUSDHdijAXh5ja8WIcObZrZOuamdzRYg3k5rWzRVJccbhwTHJVS1VMVQwHh1WbTkqvOVkLhFeh7n6ZA+7pAgFXY71lP47YMisUewjyM6DBc77qmEE+PXxt66j4uT2O7zvY2twZ3ndkwWSmv2pQBnkY3v4JBIlMeeRcTYAyS29M7HcYlwgtiHR1s5KJa4V+oR15eLChYztKAnx924eF9JytKbrcRV9rJA6gCKQ3vPMtJbS8PLK2+i95dL3526eqWjjZG+6ddu/e3tyhoT+Kg0Rh7rkGITOhtzuAkBXg8pTtIaW/TpLjirGTN+9ePXBnuOpu2PeFtfekQCaF8HdMT4+ABM6RGENpRr1y52PvbHYWjkSUiPcEiW1EOUGNkBCypPd9Ft7HAuFsst7KSONPLYpNwJ7hQNUSQPGRoPkimKoTEAxKJM4+iIjmbrsmsvKbtyI6SyWMq+WK794c4rIfXqkJzykB7FVNSzYKGT+itYJq6Si9Qh9XMxDEMx+CchfbiGJOmYdvlqjVu7LmRdnkmSdh0lr4wpnko5JtySidnV+C/k3S7NuwM2pZLVFDphlMRiJ8pkN+VdHfLPO6RE+oGtllZOzPoWUL8Nlk2FAfbYVBwx/P2wYCcCocHIF20PudwU1FjSDpQ7g8UPILScnR7vRKMi1VxUJ4ob72CR7ocX905I6ote//Ny5aNv9J4/3wjpF5N2nxzGxO72WUj5zRPmoQ4JY1x3ea4gKIGBeofIgS0HrO8hdk0Xthwe9hjtlzISbedSMNSwJsDiwDkGYOalHebWtAobDwlbVYASG6AAn+LUxE+H9AhCMmNAlF4zceVKLMTwOxo7jOw1dnTdTupQM8xYk3WIPFC96Vh3oc4ZYPCqei9390g0QSJNW5Ez6JC895tDeiOkGdLFkJDwLFlpHhB53l/uhxaBopyPTNlZB4eUgJAsmQlalw7J4tnG2Ash4eFAR7Uc+wYy+NnU8GGHJGOe7aYDaGea6m4MWSRpN8XZYTICjOyyQzCS5ntukXhCyBmzLI6mkGfTtJcdYORsnjG9NtYUROUhjaL0HjUkAXuU7bmXplnmhp0sZdPO52ppfcJNPWjoOJ+a41DgM7AlExgg9yjTUOkkkDHeLAVLToVjOwzsM/eY22NTgKeokgpv7hger4T0/RsoSW3S9XINiZRXPgIj/Zyyv/+HWwggI9DRXh7DR785pGk/dtM07eDIpnCI8QefJt0S82TvQgJaivI0jrr1a80Hg0lje+jXsmmKqmkbBJb+XJyXtpGemxKI4tPclhh1ARjgjVkweNaQHkBIAo1qJQ+CYLCLp3VvEF/2NmjsyPI1DVkseT2VY76TuA5xlI8ia53UnUX4sN26241d/ICeTZz8/KyUJwgQDqteQCGck84JRw07wVkZ0LgB6drzlHq/IJAMLUJNBemLiCJyvjgkEhKz5VXFAyEEgYxASCwx8a1MsWB72zyyB/Vf55DG1SQSclaJ1o5VCUv1kqS1EF2QLx1YZ8L2FZHGSDdqzlWinH1dkESrmCzXfM1Ys58h5HiWTQ3206oGQ8pP64gX5qSInJnb2K7dqy/qQUvAUU+3zTpjAnhBrmwz2aB0lsLiR9tmeBxiETTEBphLihjH6e8XQY29Tdm9kJC+37TZmW+3hPQD5vTv73oLYdqZR/HRbzUkkdBx5gX/9PucNSTolFpYQ0rUISXWEDMSHaJPD/0f1QZgkIwWApwxwxs6qtnzw+LRGUJFEylGy8yIF44g8smTkB5ASDUJicmUeiQoHWJHhP/XEUEGsUMLSQCLaJDhHqxDrqmkK/GV5dyUhwcACCHktLRnplWSZl6qqpGmOs1VxTaHpRqw1tInwSEhkth5OJ3P7bWTmH1S7OBuLCLOuYXLFsYPywWOs8CRVxA6c7VUBQip5Qq7G5q5gitrH4m2f59DWvF3nQ6QvkCTsxbhBmQCXrnInZCb/WEd1zFnRo5ospqdyTXumH0eGaIQZlVTdroEDPefVwUY4OG09OIvKV44GQdbzCsZJprvVYfUkK5gnshUUCYbdnxyJSSubHljNojBKIGRIFzsVo+kQ2rulyL4fw7p5cYh3RDSDzgkWJ2/vOO2j3aWjRyPoqPfHRKA0G2Tz4iWWNvrQEDbXHV1SIhGHWCyHrKvtUiQFMW5YvDwMizesnzIqrPXefiaz1dCslvf06WH6umQHkhIgSK1G1MYpGmLHTVz+nlmEDsMqwKxJuhYLqgT0NWFkMJhxM6H9O4A0mlI1TCceg68W07VqZH2VFWnUwVCqrBWnVrs4sFcFX50w7WPF2q7n9VhGa0NLO1CHsKvqisnPdCRcndogTxWCYZ2adkmcRpYt3JPh/RRh2Q2QsqVkEaxHoQ0IUKHziq6gCy3P4SQhWxii4pWCwxpaxPCQB9FEPtj6Lkhk5WQ7tBlR1VD6aIFosKyA9Cbkg8169uoQ9oIaVsMA4jJWZ3Dph3dJRdWU3aOTMSmuoLWa34jJA1n5T3hcrkuw6V09PpdXl9vJiLJzxtC+i+oxOk9+cMlzcC1z+5xOLmdh+ST0F26phzQwh6pKyElicoUqesMQMnKr5yWQmvuW2pdbWch+4CGHAeXzOSNOiRzOm1l5kQ4M6SSZ5fdY2pIb4SEEBBSloWyXGPHniNF6wMA4Wlm+SXK15CttTXjmGyElOYZd44eAKDL/G3NwrntIgtvn9+bbfaEaJ9UIpeWbdF83Bv8WaEcToT29iLEGdkm5yVySVF4PeLWAb7NyQTm5LfM35OQPuKQMDoZU3ay8ntLnWdZiOxi4JDMlrLjqRHHHMM6bBfbIIVhBcK5Zlxy2mXnsEfIRe4yD8n5kvGWLZTglUvW15F79IIfTVFq1vfI1aO4CoZar7sAeWK20oIXrSG1s2HtQFM5y2C23I3RdhkCbbhjdLpxSFtTw6u8XC3Sb112ICQrznzu9mCY3F6pwTO5wj+9YcqOfXaJaIpOr5TcBXAlZC732H1xtHd6ZcBtIsmWskuMtkHpNWHkXPGjMUwQStC1TXOUf4BB+qc6JKOTABIOillXx9hhEDt48nWZRmkYJSUkRgoDGkLccYBOqCF+dZr3Q9piIGItrxTGLByUKWSL9XpLTLKteEMNQ9kq1dy27VLcznRkAbtNjF7tzibkGKuXHrscji/HOyRyPkO88egJGw7ZO+HNc2Lsn9SQ8iya6JKn/7F3tb2p8zzYBTdWValrUcuKSvlAu0cI3eqEND6c///HHtspBcY4Z+cMNtjsDShJ+kLj+srlJE5Yl2E7Im6ntEHKCgNlnY7SaQGSwhupDGrImlB6tmE0TduWmzLo6mnLWsZZXSZZQdaM2vjDDImhYjZZV7M5U2UnM9aq+UwHNYgjF3VQgyBQvmNI7ol5tHQf8hXpFGvO2iyq5US8vo+zaiKDGqrq8YntEfK+i2riXXabx0tap/08pOF9Nw/JR2zcz0NaAd64nhwyJIdFth/UkLYjZdEyqAFGXiscjqbxKCzLT523r2Nwq8XiRToHYbmpqiqhqnqZVNUCcVZVk5eqyvHlxbvs6HHClmaegE2MvQIgJRhP2xGrB+RlE47aLFbbEYo1YQMxjdlAIGbS4cio1E7ToK2zFrtGOg4YmqKyDEdxdp3Qz6Ry9P0Nz54fkZesX5bLzb4PSUPhoY9z1x/nZBWL/vDzNfTz8DWf6MqBq74hQ4rrrHGIMk6zzgrtDNJhmdzcibMsluZKnHEON35rLSOdBFooForU1NKfMNIsaQOxjpVF+WHarVRnstRWCtGjbskoXpYFuBcm0JOJDKzk5u5iOQPcSMrTnBLtRFKKxCnrF6cbm/WGpLNB9pojyhjg9YuUFaJ1yTHIp5EaXJ+kwSMw2kdquHk5BKQIxo3Wrwz991Wvg3TrkBu5KoFUvQwJ/2Rjj/mj1Kv0VgM3QCZLnSeg2sEEWTZkOqNMVXwUhiRln5bGkK4ASBINrsnqokspasu6lEFRRGw76oIg3BmIqOSX4zfJ6dquxDiGIo7SDmncZXV5tT5Iene53vtwHHAi+fMqfuoP/Fw1+XYMiZsnwdhPk/Zj2vjTjYj5J9QxBmMFeIgCcZnuA9b5wuoUKRWyqO/RkEnxAakz9sMNGoB8QTicbM8oop3/l/SL+GQkuhSijKWLUDw34ruLZvKB3ByWqAjDUXTS/gxltDe4yWUHXJ1ZfGK/AEWSLH79+u/X/x5unh8du+zkIdX57bTXAXUbcoL/JepRD3L43AfSB7CbOR9pz5sR8u9eb1BnbOlVcWLO4MRfJ/PbH2Z3hwxJlCQPlB+AzK73k+pdQIPaYB9fWwMkcI6maEKCYv9xHNxAoF7x2/17DHsyQPoIQ+q4YXIYIV2DxgmeONA+JE1xJPF5DoNO+QAf5MJCGfbh7rr3BaqFpHNQR6jIBfiIZI52MdP6FKFPMtHkcbLI89lyo4Yn15n4rOKRjMxTXU/8UaSZIzug+uko2azhwtG+z+FR1DvGuZUV5v2Q5DsCpL3vItKbH9E+ztf+Mda4/J9tPaQ2cbeMTR+F3nl3id5vR0MezJ7W+SxfPy0sUsM1+pB03QavJdrN6Dfg9UI1Q7RMiIbQg30645O7gejsNOjPrcv3i9QQ+9Wq9iN8h3jYzW5CAL1aYYh2hkkcOCm41+shXaadQDQsdU+7K9ht9Fu0S4N8I84ZHQYj7l5vkBRDSTd2B9k5f30K5hRddp0MhLPBvgfzGeZACHcGSIehdY/iZ76OjfklDdr9ZdGAlUQHte4rPvJOvOXc5iFdBZCiEyNy2myJDqOqDpVzsJ4J2bKQP5gh0W+pJ71WpxNT4F4vUH/xlsp7CLF4i1ye98sbCfXX8At09ij9k0BwYYZ9dsXYIcQbnSxhfieAdNNP5btrByCXMIh3sEaSLT9h8uMYkkcTOmtb//Dckm+Q0i1YJJ1NkOwXm3ivHaNLX8ibFOnwLuMoN0D6Oi4lfUgJ2aAGAyQDpNtkSL9ZCZz+aH4pupXVqymKopvwPkPy9lpIg5fUGNIX1g5Ft6EnBkgmBkinfUgm13Af/YYfCSAZQzIxQDIxQDplSCbXQKSj6UgIx15RY0gmBkgmBkjGkD4NkWRClp8OK4Pgjz1EBkgmBkgmBkjGkD7TbddPFY5OOtkMkEwMkEwMkIwh3YQYIJkYIJkYIBlDMkAyQDJAMkAyQDKGZGKAZPI3gJTfCyDlBkgGSB9lSPhdRNZgkhW38AZ+EvT//m+/3f/v3u4HkL6PmtyR9Dcd7ochmZp8gj6cy/0WDGk0Nvk6uR9Asrr6QgnuBZACq6uvtCbfgSG1ocnXSXsvgGRq8rVyJ9bEKupLrcl3YEj5e1bPBvv7x79Dxx3gSeb9RGowhfgC5dm5ou/IZUemJdfWh+/ssoNRYN2Ql+9dfHMzOo31Z4MaTGxQw++eEBMbZWdio+wMkG5KTWzYt8nPGWVnNWmAZIB00wzJAMnEGJKJAZIBkgGSAZIBkjEkAyQDJBMDJBNjSCYGSAZIBkgGSAZIxpAMkAyQTAyQTIwhmRggGSAZIBkgGSAZQzJAMkAyMUAyMYZkNWmAZIBkgGSAZIBkDMkAyQDJxADJxADJGJIBkgGSAZIBkgHSbTMkOh9SityQRZF7I2gbvTrQ5YJT0elXOnPZry7NAOnigERR8t47zCpzohV0JuuCD+cbCsNKcZ+w+kMBiWvsyhX2hqW7/kkNkP6OIXF1AJyxEz6LfDEE3BcjSUB4hVHEZelSusPHPz7f8bGlgF6b/gC4C0S6V0CiCOF9Ncu1BEdFuXbQfz/JuuCjOZzkUD2udTYDpGsAEr2yMFfBo95kHCLUvdiOH8SQoEjP/GR3kIV5V4A7QAhZIgrguHF8QaZCbvtArxq8J03g/gestg+JMaQrMiQYxe+1PVg0x0VZK/qDYRy7azEkl5wwpMdHOG0h30N7+IcyJAziK3coUHKifzh/WcB9sqZvx5D4nidix6HrwCU9n012xFbdKyhZ/LQTOQinDQMSCgpwErqyruty5DFKwIKLtOV45+T7kHdGrgMfnlcYDceOHp7HlOyOzc0ph6utb1k52HJR+SXJ3it0k068uwQk0QVspzn01aq3fF+/bkiQqufK6KYBaEpfT9BwQ0azqM7EgvWl+zbPR+pJPIl6IQls1uCG69HWiXtaHp2ET5skcOVG+I8FJNJGQeQ5qes97K7XF90Q0yFKgK4vMyiSL8/mIwvBXcVR12sJow8kOy1RS+Xg8aliG8ampdcS/kxgcAwZIH0eQ+IbjvJ8RtB0oO4NdXOAekAiTXGCVZH6a/j7mFDdYyhZ6LI4bMt6LPmotBdYo0APoCn/3srwVzZ+bvXcqhyAq2fw7Br9NQKsnuU8es0PgD6DPAH3ZQyQLgBIXhfajBXHSdU79Cng2wKoN1q/y0t0Y0yqDFIvTt66WDVGvo6JBuWSCsMPAYTXV68ky7VXy/4i5JXkehI5iyq35FXz/PZH9dwfIHm3uVqTQUt8EkXDRsTZqgjYmwz/nHpPrmy22QiugUe9lvJ55hPRhr2WiP7kiSgl9GZFL2Q2r+5g7Nc3Y0jiUG2LYgwJNo2L0wTEUKRxqvpCbZxGwIDErAjClqBN0zZA2SdoixS5nZPxO00LVjI+jGS1aZylacqtHBwVxQj+lSPJXg/b1fh5xTaQNx74gsIVs6CVbNLDassfsOpTGJhWq5B5GqweVitaKa3yZcgA6cOAJHY8LdpwyrYHQq1Wfny5xkM1MVLRGGHI2gFBGuJYFEDwaBSOUy7DiWndsfI4DCQL1QqlXrnCMGcF/Nd60o6j+Xq9EAMyn2yqeZVQNWdbspgv+DWfL6S1VS0W67mTLbder5fLygDpGgwJ2iAoCr7P1GsJJwUF1zN6LZGNdiymhFpu2XJZ1gXRjtS5tnUIbdyG12BI0mqp1usKwVXzzYTVYibKUaHjV8JfWWsiyKuENUnoO8zXXGxtgPTJDEmsSZx1Zc2635RNl9WiJmXd1J1Qmy5r6nocMSCx+cjYfMR1OU2JFa4su3LaAANSAWPeFaIma8qM1Yv3mNZlXTCsZV2XHfY4/e0TuX1+3m4FkLbPvBmi43eRlfAiTtrCuE9pmUmxPHADXYpupQxu/acxpEu47LCZll2TjQkKqdaUkaRhxckaBqI0K0uuaNaOrCyyLMawLrNSOx/ruKy5cMsJWVl3AaS8pXzbiZYxtea9mpI38F8tDebLyWY5WeN8svw/e1fXm7iyBBt7mJE10mBb/kJgHmwjRX5whAT//6/dqh6TPSe654WE1WZFlMBgG3CYcldXd09zLofyWsllOF/a8nwUbmolBLngkPNQGTkNQ1tejXGvkN0zCKlTI7IRtSpNbiytAOZ5K0QJBon0uVkaFPDNnwAAIABJREFUa0E7U9HBQGSKjrpvulQ8QYaDn/FxzufLtRxsGIbyjD+Coyzn8nwx1XUoy0qCHHDIANgEacv2ej6JfYXsfrNCCi6HQpYxx19vZdPAriwdbFHvJauLVOw4CUN2NdHFMDAsDxRSP0JbN5NYZRzfS+oTI90ijhBMM+uk6msnefM4unZkntv7VnYUOrd3sRZEZBktrCIp7QwzR7Kq7mklpPX3DRSGvS+F9HVCcgHmBObRN5Vsi8lkmGKN38HrdaYiGdWeYZi8GZNNynRw3UM+uxrTb3zB/GPnjbXOYKPvTGaN7yHFu1Gcx+vYwj/qFYdsLnGux6OYkA0zUxiGOYF5X1mmla4kJNOWQarzLOAqkdP58MohPYuQLJxUGAc/kZSME8y7OIglQx/V5okstSz9dtOntB1qRDKTFMuUVo4PXA2D9P05JNlj0uU0W3hSc8k8MywVCOgQKhdCOJKQzOF8NOYCOB3OJ2Oul1cO6ffnkKh+wB64hkcMGJzbFLlNAu0FSMkyEoyteTOx6MQZAa6sIbqsK3KXRl+5F+ypYIUMrVJhGccHnW02KV/joUkNUDigHkONY9yOxMNKune+Nh6ku10K1lFCckZr098iIb3x93Zz2LHb7f5AifQDFVKgCLbKQb53ySZp8mzb1BvLpFFexJUBrK0rbEzxCaFAhaTWBjYHhkkvb+eYrMSdSmtCBQ+t4c2DFz9c38PexSTSAPZxpKG21FwG3m1oQVQC42INhjJcxAmY6c+vx/yZhOQxq5h74CG1mF04qV1SabKmX3AgGMqPm9HX204n3+IZwEna5MzgwLG1wpDd97sLJpzbfWCeKkAaidMfeCZAA/wtOa4KCVDh8HiG3QOG7J9fZve3VdmZbjRaGaM2gS7rtui7rus761QMYZeMDeMucXZ6biQtZYbqiH/GQ1PVHfR3Z1QhsR7P1A1ehqGcR+021E3mdlBIMUAHQgoYAf1B1kgdCemNRKUlVlBIJhLSLdxu2Ud8z74I6cshOy20NFNRyVis02pqFlhCLtWFVjA5JaB7/R2MEhVSz9wBsWM6aiCtiwRaACX1ZPImpWCKZTMPXfxMIbVlWV72wAUUEpkGgq69Qhfh7YK5xpDdxQTSlTmWh9Nc7n9AcuAnEpLOstAtyWEOehgC2bIOtybq40DqZRpzny+iuHEEFpzgidUyq9fzBIUEIByAkuFIIwJJnbHcDwS0lxAL71aFVLnITWW7PzCF9CKk366QQEEW/1KQSEjewX6kSZJaKKTacJcqIAZfWCNpqY0yB2RZ3EiqhNQtkN51UvlVIaWZJSzxMhubPvhBk3xguFjU8Pb+tksheAJVUMqCTHBVmqaOp83tsXQTCgnPWhXSO3+rNAV5/mmy+2cSktqKJoUXazGtmUrn7TTCetQFEGQkEpK1VDqMyBnNIQEdsDZOfWcbi53GhcFfAodQiVaIZukxQqI4qw7HYeAnC8ph1bFlZC4E4wJZCD4VFVIw1E/mUg7lIQuvdUjPU0h5AYbxyUY9U7i/U93ULHTUgUyLr5PFe/gsNBO0P25D98SK+ibbIvn2pcxOF/CfjqzuVoVElFARnSIhQRKFwMeVISHxZijbH7FS9m/LIVEmi+S5mHGM9XQOoBKTTyxziAPuAikZCnHT56zlVZ1EFOEPdip3sEpC31cVkhZ4bpmckvrhVXMagjPb9wnUYkSJR0lKGRW7sCmV+xaWaSbvrCx9fzOUR7f4rHB75ZC+IYdE9yITlxcb5RBJaxiOXJxxzaQxFtnUzOPlvay13XXHkYbwci5JImLWXZ7rC5hvNFBHAI2G7MaHNYs5HFjJfYZf66CQ4ptAIQmdYZFLS7yqQoJYcvNFK8CzFyE9RyHBUsB5MVNjCRcgJU/xgS+LSXPOPSMwy5LbZamFoVw1ILhOCSHnIJhZC/WMsm+wEc8Vqoc5JA4BjurMJWkBztRBNwFEGrIzFTT0vQD8RUi/tcrO2K6rPRhF1AcmoKZiqccGONnoYHIwHgaiqHNSj77pRp8ZTQ3B3UmbflwaMFiCY33XeIr0YvRjzmS2r3tdovTYJy0ssmOV3Y73LKrLQDoYxQo6BvEMCUm3pDetyXv7KGpgQUN80ouQvkxIsI59z/mtRBYM+k7Lp+oaA9ZpYqIXoAMHjGNtTTL6vvHjZGpAwTfURjxo9KlMoy8w2ipgxoLeDhMHXfdovD7IfG5n/JF/LmXbtsHMbXluL0cjh0t7xqaTDFdjzXARHDwMw/XwCtk9SSH1vl5Y7NTDqizFaC23jGCdTdfXOuGubxLpYrULcZOZ7Tg2ix8TsV1BDG2fkLuR0/k6z0NMFQESlwPAcTlf2tZK1bYsyzyaoyokuDZVCZQMs/sBXaf+unVIpvJwWVhHlQv7B0kAQJaRxXGy4cDoruASn7gc9sWz9UsNYLkayKnxMGfmaFoWqHDPXCGMzsjamRyb7OOXPlXRjRV2bgtqge7RqgbQD85N7zPW++loJ/amP29yS+RtK7oQiRuyP6+e6keuQwIWunpbpw68Q/dWFB2Lp7+hW+BAKDpASNhDlAADvtviaQyaugrOjE+BLe7xWxPBxbBdHm8eDcaEcLhcL7Mu7k7ntp1tmC+4b49wfPEQo705spZ3hpM8X7DlWp7Mi5CeE7KbumViVmjsfJr71GX1MtIaQFUvccJrICRn+yiBgajhwSYRLomY1Hd+W1fy3Zcsl7fY9npt91rNcgQmDgQHf0BRcXCU0xy4XCnQkQFMzvMPaGP+93VqMFwvrUvY12KpYO5yVQ/WQ+Jid7Y6NfdWCJn2QxBW3uki5/jjYqcHZrTjGvwvgMjEl4wtAPTFOcQZ8HLN4mvzjc39nDUaA8sT14JnLP2TV8juO3JI9zX4Theiajfb7D47nBQX17rqMTpfOhPMISmC1vYfOjF6L7/AtbZryB5fGbu+oFMss4UEi7kAhhBWuBISQY/bn/XyLY8mvAjpOTmk2HZDwWJWYxCvVJ0Ka7LYrkGRxHlbWzi4e4uNaEO+v6ohnmwwCpM1yh8xuGLSBHHBESrMReLU2uG1MPa3V9lpSZR2nwqBN7FiLVub2rEVmYv3sYuptZllDQG7WMauZcHqzrVllbacc9bGgqp/fnHFI4wU7meijcliIjpo5z19HM8xcEu84+Dj130c8yKkLxNSbBjHdoY6rWGd8ft8RywQGkQHO6kGjlkjHtZjIlLwMjYOPoPrC62DwmcwRCzA9qyocCu4gaZyOM7ztaxeCukphMRQvnbCBFTWPoZqNv6Jko/GdS42yIz24m4y7HN6mqo5CNEcEB/a7BDva0O0KZYwgYlxhtUNEEfzsS2PP2B1wN/X7fv+jQ7/aqT5a+B+3cRBLOH/tWGFz7rR/XPsvrawzH0+l//a999PfzVX/SZCio1J46y6X8hwnwYfM6/3MtXiPr655F+7Pj39S/Pk/u93eX36hgF9t2BO7f/YO9vexHUgCg9gPLIiuQkiJCtIPyRBQvkQhAT//6/dM06g0Nu9d7slpUHjom5eiYlP5vEZm+3xeGh+kX4xdpBJDWl9adm+oW/amvk6rFzrxl2JY5im4V4F16GNDb+p5RLI4KCaw+GYrb3TMaRvd0h3aGf338FAyzMA6U/VwFf8crcTlfjdMQ8I8ufEoU77HgBI4X8n/Z/I8Ikg8g3B/L8GC0z3fXsF0nc7JC0KpLsB6f2Tbfln9U34nNlVIA3hkNi5Z+iKvqV6dQxpdA5JiwLpP5JpP+2RHi4lpEB6onLOISqQ1CEpkJ4HSFoUSFoUSOqQFEgKJAWSAkmBpA5JiwJJiwJJiwJJHZICSYGkQFIgKZDUIWlRIGlRIGlRIKlDUiApkBRICiQF0kgdkkrogZFGgaTlD2SyHAuQlhpNFEhfdUhaHvkEjwVI2lYPLONxSNpWj7z9z+CQ5lMtjyvjcUjaVg/VyUgiorbUQ1XyFECaTCdvZdr/XK9NPtivP/f5GQ2Q6ndC+JF38+MyXnWcP8BogPQummjE+A59v8nkSWbZdX88KLzeUnndH7G5LJubLVrulTEdVcruTQg/VAnXFfzZNf3M5xlbyu7m/uszPrS+r4T+HGNIOgyps+z+AEg6qUFn2f0/kHRSg05q+LJD0pZUICmQFEh3cUgKJAXSFx2SAkmBpEBSICmQFEjqkBRICiQtCiQtCiR1SAokBZICSYGkQFKHpEWBpEWBpEWBpA5JgaRAUiApkBRI6pC0KJC0KJC0KJDUISmQFEgKJAWSAkkdkhYFkhYFkhYFkjokBZICSYGkQFIgjdQhcXh9/Jl/v2vw2+3++NqfOFSB9Fkg8dXvUTUGj0QUCqQHq2SsMnlSh8QcXr9prW7vxzvZ9g+9xc/7XfxlobC5rtaHwuEPD1Ug3Q9I0v7GmN+r4KPG+IODh6cPO2NGGmoUSEOp5F9xKch1pDJ5Xodkf4sP9r/f5QwxS8AKpHM38Ai7vhpi7LvwcgsduUiIfNzpTIE0kEPy1lrP//OgXzWG+/7GwJWJbi+KGqHWzGPsDyuQhuq10Lu49LFcR+Kans8h9TfdRBFddTLfmoM9d7vcZRd3j3944Ge1DefUcRzPTL8z/EOTmi+H/03b4hRj9y/09gbG7RzfvCXZXV9VOu135rKD//6yCqR/A4niokhSutLA2wKfcYBPNjd9Y1SrCd0KZrDGuLr++pVua8h2UfL19c9uXoE0BJD41qleBfnHP458UcmvtbmuCnqylG3X5lqlfMn9KJC+2SGd77lpW7TAVYC5LFjCLjzEHJ5k+ZcvvyzVyYSk5ZIkL5JYWtqG98GuOCHbuxz7F1oMwnjZ797q6mm372njure02EKharL00h1qL9q3P5FIYwQSouOkiHrP2umEezE4WbUuNEFVUd8saT6jy8GXjO4gjcHeO7wY8igb7pa86zY5f8zO1/cXyy1enhVIAwKpa/AQJC4S6OXyMB7h+p1KmkWvUue7qnnalOs+dvQHQ1JE5JgVSN/rkMTAyp13BsGkbwK6XXAAElowpEO6xBxz/4shx0LCK4CUko1WU7L9STgUQOrSeBSO+HTbyt+fWu7n5I2U8D7zvfz9L9kXLoItAFKo7eWy4c+DyeGmP0aBdIcxJNzLtjK+v/PhtvZZ2rMoJEMbVaGljSgjRKnufbg7aZhhpV6mRjIxZROuf/4AQh4KSd7z9UONfHN4/fnTTMcHpHPEoPMNZ3duijeZ8KN4ZPqqGdoser2ghl3sQLVCpeWYs17c+rgZQS7yyRwSZLKM8jYmj3gT520t/JlXeTWVhWmVt3MDh1Sh5VIQh+I2jybENpoTz6IppVW7qqoqNhbuiKiIiCdRnsMpmajKE+yq0U1K8zz9LJEk/X/an8Qh0QsWdsT+dNrvTycsOsLizpG9bJnh90kSwaednHSaAUk46/QDiTTOWXae8pC4NbZrX3yOFGLAbTail7mBWqqkQItPZKlKQ8YVYmhrKKhOoZx4gJFjCYLrrDw2ltaHbLvIDpk3zeGwWTbHNW+wuhElN5umxDpqtD6Wx7J5Jc8KpLs7JErjWEKGN1aeeWyo0yifR7loQGLHjB7GI9uUZfZKNsvKbZYd1gZ6yezm0PASKskkFL5m60PZQBlmmZWHMkhHgfSdDknaqcjjKImJqiJK2xVAU6+iuE2mRJOkjStsoaolUyVTQ2kSxTks0QwnmAkYlEZtUkVVTDZJobkqp/B+K+yOonYVRVWN05M4LSr6pIIc7fc78GZOFjg6CZh6/KBGWAV4yPRbXijA6gWk2guRZF93+unndXJG+j0k6ZZIpqMtYsgAnZMoSdOiNVRDFCKcSRQVRRRFEzOVJYn+y6QXV5RUqajC3v1uelpvs02zyMClbFFmWeNdg4WyPG5k0zYj7+mwyJrjFr5ovW3Wh4UhTdkNkrJrEwSRZAI7DZWsIjT8Ks6TuC24jx0Pm3hkykWzOS6WvsnKRZZla15nh222OGa0bLLj1hpR0qFpgmDQe2m265/fa3k6h+QpKggxpWaBCZkCXd4ihZttWwpbKJ6yhKK2WBoWDgUb1AOphr+tE3tJ2ZkWQAKBKMr5nLIjgyOYZquaPjcL3MiYEIlDsmARECQZmHovE5CxFbusMEpSdngevJFDX+DDsRE0gjU6SS5veh5XUiB9FUhGHJIMDKK9p8mc5mh+msSOJnPxxqnkb6uKJLmK9TSXwUcoCP4YZ6SQgqjj/tFIhgQMs3+VGkvKjj2unyGasAiGDpkRIJXYAWiZ4xH1WzTkNWU3hEPKK7Qz+qauxnMaJzPoAP9IkLAiF8jk698F+bu7+br9hev/ksWQsiNnzBLwCYMJtFn4AKRX45uFLOARzcqfL5LnG0OSRIy1jNaQAWkGeqboyaSwSJ4LMMYjLoFO7WpCYQID9BTlAUgkQLLcT2pg6f5SKwibxzDnxCEKyZBmCoOUxuhUfyYa4XQQxbuXvej4ZbcTIMmkhheJL2KQgg2So0wYru72iUNyoJEwCcfswsw7BdJdHFIeGZk+hz4HzxBYQCa2MlaHbkIcFyIjI4ONYYaJSQvDQVwzkGuOHgr8M4QzwIwGJ/3atScZsgaQrJdB6qykMKnBUtk5pIOxBp1hOoJMs+1mAKumQHJ9gxfyqE9ieOOZS3OOCwQJvFJEgSJ/VM6OxCGh1+JDD0Zm4Qh3lliXdPRmgSWDdW9kcYMdBp0Yr0D67ll20qcJxtRUCCayNk/yqqraKJgezzLdpFpFRSUjSMlSUjUFzYrYCJBCj1nejPnskGZ50VaiuzDLTjJvkQwltZLW+1TfKHgisxSHJGm5/V60tNtb4ZKMDmFTHYBE/RhHfeOQXMjlhQEnBdIdxpAk2OAxNgIkYxFz0mQW5iiYeQHBJME+AUguTK2itJCvpwmmaA5zjFU3DJBkWOhQLsAYOCOhj0ytEyD1c3yPnUM6IN6UmaHXRdaUpWXWlN1ADskKlUyUtFWehE4IwoC8Vq2EgfQxj6OMlWfHxTYTIwSH1G16lSSuuwApAAowQoQ/lA1M9hi+1fh0s+xkZEC+pxyAZLA2Cd5apihJODGEngSC0HSVAmQyi45xoDikkMCDayomMnVFHJKhEKcsdaFHHJI4nbToLvu5GODDhG5agjq7/Yw78Mii6WZ/e9fNANz1QHJnh7Qzp2CSOusUpvookL48y45lDAk31EQCJEbTS0JGHBJ6IcYE+2TDITjcWAeHZCyL/eZ5MpVVCU73d6sc5kY53ywse5ll58U1maw0PZCCQzIAUjBLRgawG0v6PaRhgCTRRKKAdEKoTuCUxSFhCa/ZZfbu90ftfpLdWvotfrMIKhUA/Qr9FrFF/h/2rrY5VaYHRwibYZhZwQEPHcUPSmf6+MHendPT/v9/dicBqVb74v1UEU9SXWF5kZqLXJvsbmg8JIne5Qjrp1+/ZmAhux76kFImGVgVqCE7sStMPzEQN2WYSRhDm1T7kHi/CEhCxAFTD1Qb6SKqmzAeIKmHFMpsyCLjo8vOQ+K/kXBZXZ6W0JUN4FhGJjywx8MspH1IrYeE1Gwac7VruookTwNEj2P+ttZDemSH6UF7mIyQfoSQEDaJROHqaS2DW2RgS8IY2IQapw1kmEMso1+oUYa0QqRJIv3bJSCvxmchJBlB94vbWGtt4jLlSAKpWDwknSiA4iHxVYuHJFtlQ8gERTao4UwhO1QPKZKxUIl4SBsxA9LRXLHtyMu6p4AFu9HMM04ISeYhaRIZkH4lbbh0HpJvnKWFdCbFNg+ph1F2Xpzrqop0GIOG7OKwzMqqknHfG14oZVCDbFplOURVVYrpwTqryo14SJSXOoffZSyV+E1ltiqTrIyZiapK5soyIstympxqjCQw9/j4pw3ZPUrMLpbFRyGaWj7/iOnJtQZ1A1eBvsRD0sMfry9iN8SQnZdMDdNpVXG7t5iWZdsUYbUWgBF/rpJpojHdSpBTs96nlQ7dFCiNCJJzeUh8bbPJ5HnJlib2tJ5MJssQnyb395MJk9N8okszGcvQENL8nmvu1wMYzzvckB17SLjKNmVSZaSDGtSbHont2IQ9WXjInyfL5eQJ2TG6Y5RM5sxLE8bGkulnqShZS9cRaf+RX3LF/fJuAPOnb24eEnsWRcowwVGAsVIVxHVRSycxyvSRmGtHIy7iKGRCSItA4h0UFCkFIbczIKzrekRxVEf807DmQ9klCGSCSC6bGKGjtIhOzWsnVxY8RDDm3zt++DOGsU6NctH4gb8GwoeHAHU2TB5F4zF4ro+ih1D2H3sYj/nw8cPD2OYh/UgfErIqI1ZxKBgpUhnb0mhaJxsxgCCSyC0ErHGHoe5c54wORhABG1fGAyPsLMEY8rP1/E6jcLiYzWZIXPKLW7+yyu8YFnfcAJbiab2Y3c3vZ2TzkM5ASGo/uEBCtiF8/8MogDAAF8RqO+q+ZsYyDcFsvp41s/tzhkWuJYvHuFlYgGfsoOed1k93vL58GkDQ7vYyNcQ6Upe2mRg09S20mZ2baNi2lnSaPm6nZDfBmTYPA8mkeNoGaz2+zdNvovynE4OEdrGZ3N+csjE5hG0eiG0qV0ncIGM425nYCJ2r3VvI+gZDdi1yUG9tanOoUqMDrsA2r6nupCjRNBnNcY7JSGBwHmvE1CIzAZocqghNpgjYgrK57AYSMuz3ns0N5JO5ZWr4eUKiNyOyXROEqFlosdFX81C/v7VCLZg9bFGyhYmXNA1ePpmKZMbAk02Mvfgou7fnBewW8V5SO9pJqOq2R7luJ9fkkttJA9V1hLtt9qr/mstO00/JuKm3Or+zpauJm9LvP4HgOts3w30eUntnu7jN6d3kSG6w4LcZzPw252GLF0etb3wuUySp63x7Rb6Bh1RolXfyksHhpAU+TZ6fnydPYIMazuEhdUaEmrvPvSW+3Wa3681wKyjaJkyHEhZGp3ea6pAEIVx4mN8vn5+XkwHk8/jrnxh7zEQ1reVjWOtq7dGjwyak963NfRDQwcYu3zNdYoD14QMmtpdBW3S2lQiztURubFDDWQjpY6TsWYOeTPcRlHS2i3bsGXrI5/P1nGxQQw8ekokR0mmENDShvUXoM3L0lxHSYLBBBz1OEnIme/zE9XtIJkZIQyYn8hq5GcA/ZoTUI0o0nBfbxFjzkIyQjJDObWyGIUZIPeNkGEAxD8nECMnECOnGCWkwxGkekokRkokRkhGSEZJ5SEZIRkhGSEZIJuYhmRghmRghGSEZIZmHZIRkhGSEZIRkYh6SyQ9bGiMkEyMkEyOkXQ+JTPqRYXlIpq++YDIoQjJ99QWTm/GQTJdGSF8TkokRkhHSVctNEFIdmfQn9UAIyRtM+pWBEJJJr9bkFggp8OEAxO2891ba97vX4f7X+V+54XhI7urxcUuy//+40VAIaXRrihgSvt2N9CFJ8sBTX+9P8/EXdEfgp9dxUO5v5mvcvvdW2vc7Odgf4bQvP3fZCkGUD4WQ5Nf8Cgb/FYT/9y/ZqPjg4vCbf3sQReiz3MF7d1kEwwnZyWOPPjEYnyDnIr/vfoG7V7UHhQ9WL4+TT/B98EIbZTeY8Sc2yu7vHGVH33xf+Si73EbZXQwq31q1UXbnHGVnYvOQbpSQbgQmNuzbxOYhmRghGSHZPCQjJCMk85CMkIyQTIyQTMxDMjFCMkIyQjJCMkIyD8kIyQjJxAjJxDwkEyMkIyQjJCMkIyTzkIyQjJBMjJBMzEMyTRohGSEZIRkhGSGZh2SEZIRkYoRkYoRkHpIRkhGSEZIRkhHS0Dwk+iRvBnUFly52RG/Vn5/xFBtHsd8/5TCSvvwthCSap4/AEX+4iVoY8OG7uxA5+s9a/hCr5D+6Du+vG0s3R0isYP7B+Sd3+4q/uAk/1PuBoTFCuj4PiWKAj/hDTFHLQrIbAKl1cfSlBUM6BTkIEBshXSkhiebpmDq0iXKcrBQjCgPSwzvA7K5+DaQDU/cBVmUDHtnAFdIwo2sG060REv/YoiQpdxXfCyEdoAQFJkZI1+0hQR3AJ9gC1aE8by5N652aLyjuFL2Tn9/hPkPh8BnpRgiJtRmkjo6r+TgYlDi4GhVXVNe4YyMgirBD16nmARazD6zi7OgGcrP5fObNQ7qgh4QuDZD/rTRN+4wFH2ujwGLu8Jgzb4R0aQ+pi5JQV7TioUrAv3m4e81JTMsqkbM4qLOyWiFhwR8htHan2512Q3tQF472Nn1ORzD/5wV2rQYsXjwNnZKGSEi7MOl8HVhNa9hVZLuA9YqlCOEwekfFKkeIEnGtXDalTplsqTYbcAoeckUN33eSJPwGL7/hvSGRiyX/z6vfa0m1H/7379fXHI2QfpaQ6AAl21ud+O6frsBBUJZZCX0QUWuacLZ+Z34c/LqfwwETIcZERkiX9JDk7t/6LRrAkEIasATksEykPSt7eF5gJiBEJEdsLIppklaVhF8gqfiUMSTTgkkqxLaLQBWpR3PLiFu8qPsWlQZK0CHyFxB9FbCjl4VcmzSq9Urj2auDdtEI6XKEJKqXsIZX7wVblbBvHDZ7dIpGxoZDRkeSZKU2PrhG4CAIYHTRZsqgSjMSlKWpoos1Ci5kelvJd8rZ4iyFb1sDQSd6JiQmHty64NReEcLLXHGOLYZ8c6387dza8UZIP0tIGgpVlIgRaR3hRhUChCICDaUkPRCSal57FGE9AcUCW7PYS/CYYLYOG0u3DcHw5VLuzEO6vIfkHIxG2mB1WqDzboQ+YMWxhxTIJsZQHjiJ/4Zh6IFCCKdsMeKsQBcSE1IewmiaMleVNdeIXkPlkyDQ2AtQwIdzJRWVPOOQa1wQxPBFCJ9c7hsDE4JfeF4K/f9eFz735iFd3kMKWWeCAXmMJW9yAgZpZOhNvFW0NHW4EVxUfLMH05q5JhYEkRzF9w2/N1UZYlppDWlXgoBrtKlS2KwUbrxlVKWy+ZsNXz7BQj0kzzDJFVUQL+7EDnqGq1R477lls0BpfC3u1FCy+20e0g8TEnWWwvkwYMDgGzj8dt4lAAAgAElEQVRE4U2fo2NCuvgPL+Bc3LHxinNcT3zuPHGRM1q5HePyuOlQDAVKgmRkJK0na+tDungfEiSrpMoSXk8S8LApIC1XWZJME2QPSTbJ/ZxUFVsMGJX8UWTVKM1CidiUEFVVllXVBorMKaXxPnwfBdUIMeS9ecVRzUdXBeal7isnYu+qKosvUOlfXl9fZ+DR/375LUsxlyJzMEK6MCFBVBZlxqpjMmGlrrINBKJeaUMqLEq2PyiKXjFLFVns4jArGkUnfLwAqS65BVMWFUMsi5stoAgUMEQ5bDYKNyyqaion+mazg4Bh8S97V7TbqLIEGxgYISQuY81gIgwPBj/YD8grR/j//+xWNXY2OWfvbo5ujrNZ4U284zFgK1Pu6uruac+XiynlCHDMAje45QAu8TJRmvZyuc4zhtJeFFSMBx+vq0L6UEKi6OBiYt3DNLgAOwIE3MABx7VxozLTpygk0+43G1BM+bw5HDDcyW6z2bffNs/i8XCfAT/t/rQ57J+ktO2Gh/QrIT1cIUnhqqiqq1yaAYTUFHlVx6EeKxdLo08Fg2PSpKpHyUaYnKGqsuAUV50kYzp06ThyvHzPb1zjc5TWkZhm8snQQU65IvNhyDIeO45jJJELCWbE/gJC7fHcAifJ9dI/Xa69tO183rVtvxLS4wmpLtJoqL2Jx+CGIkD9jGPhmAq2zQSJM2HpXZHEzQRz5HD2CMCMWOi0G3ClcXBDCMBUCB3IyEo0pg2TRqZyKY5LjQwLEiUF+Iq0St9Xu1XKfN317fUCsrkey5as019nz4H1Lf4zpdmd++N1dzxTSZX+clUibM+rQvrgkB0tRQZLAZfEF3VKx2MqfNRN1houa6Vx+k9RSNlhm/vTs8/bdrtpaUSe2tPhebvbSdliVJKQDlvfb/Zing4n8ZsTmGnNIT1aIUHmCMnITgXMQ1PABZbUgTNihuzovxoPz8Yw5wwPCNZF80aKK7eMjRUG7rIKFsfEjoSEsytHhoJTHMMy8VXxEMaIXxSf1jHp61dJAmNKVUgemkj8ucVFdlfmBdYc0qMJyXBFuZqCIUiDcQ0xo7MGArhmLCbKLRxfYKtOTaibZqqHTKYByzw6j9UOPApeSkhcivOsMXYYZAFgRqjJMAEcRKLkVNHvXWWhBmIOyZCLqHvy+Wqgk2AngczLbDJMgq3K5NqCv8hXPeN7q0L6aEIyGS1FCRzgR+1IIvyDg5gYuGdq8LMUkvhDq/XmuYE0MqxAN9IfdqIJc0x5CukD3u3ukOEXlm+7kXJVSI9XSI0kArIhKeWGColAsuQVWIkM3i4s0DQMg+t4EvR4xsl8UUgaEOYMaCkZJsiplM4uGaeoh2Ea6gJkVTdDiHhs6Az3K5nBNUsV1i+yA/4M/0X89Si5v7ZqRPzX3cP21QlJBTTLKiMWKmBUUSFRD+WsdJGmw4JPoKtQh6IYrbG3GWhresVZBh1e4GeEJ5MrXUEhBZcxAylmYg0W76yH5creucomATpKy6IGRu7mKxyXCx6UudFM0WUumS4y7bX3dG/meb4wZgd/+JyshPShhCRxPcFUdJ0JDROFKZDii2KYHPcf2oTLavNPUUilbA/77akHMOS0tyW0DxWR54j5RBISHy/D/tAa2X/7CpGYP1EhZSQkQ4Vk74QkMUN2JCR4N2kdIH6qkZ8SJSRLS5QZOjpKS0pIdJlxjfSukIKrcFqVwu1NA0AasTivW17UjqFwzS/S1kBM/6KQ7JNG75iIXgnpE0J2I1ZUhUyWg5C4BjYzgAG9DKfbiEA2DWFSRVhmowpHuklnErPABEc1AZYqUGAv5APRPbnJEWnDANmlrJR07yckeboeDRWS9dd5dzzObQISAuHcShegkOjHgJA80XS5zMf5rAppvpb2N66P+YoKKa4LtRSgHFt1eJhkXROqwWWES9QpIS0+7GM/xBYqqD1tN5snwOu0ob+ihASCYpmmAQsZKiRvQUilldPhebP3diWkT1FIahqokAQWZwnZGRCSgfkxNCQRhLhIkghWtQncAatROKMhPV5AMwaxEeMCnN1RVCFVjiklLyZLltidll9hylheymY3f+kndTFwelvcUyEZf26XRPT7gzkrIX1kDinCKnbBkpuyJfRxW+LRJbjH56KYMGci5pDyjK08FFecucOEhJQn3dTRQGidt5V0GMfImEUwKUkJFdK7V5mROmshiux15pZcn4NqcPmk58tSIcmikJ6gkDy4CG7OEyNJLQjpN4bSFw3ZYSKJJICQHOxIVjkN7Yrh5hJGYombBQuPZaQsYdKAeSEoJPWXjDwd/BJ8BgsRkO2hVIVkyu2ubbV+fSWkByskQ4XE/JCEuopCXZA00lo0ZNdVcVUHAMiNcUX+GEc3pGNkzYCZAYKcRQ0uHWNGZ9K4wMGmadK0ACHBYcYMjqlciHHlVON/LGoAVqs44lM/BaW0/XyeAYz/kJCgkCiqWdTg16KGTylqiIc6kmgEUMaxZFFDqEdd+iaOh8bSP47Tpsnz4IzV6uuxDpiZTJ4qTFLLvW021F2uRQ3NOCZU0hDS+JNwYyzdosxmXcGD31vUcG61qMG252PPWgaQz9z3Wt3Q9tdL335XSOV19v2FFXgE1+53ro/5okUNMBnwPYvOkJDqLK5DNE51lZulVmW0yVLbFD0yakc1tDn1T6dDK8wQtTsYERY1wJpAJrc66vEEFRJYqj2cdrtTL+vG2E9QSHRJCy3NdV0YgqlY0WuiJpYhDJ0rWKmJp1zIobl5cyPkzeBcN4q9zYCHokZPB9t1rglNJCYZ8BSOzQOP4SZIncLpCWea6hfGQGYt8r5IcmnFagLA5pw7roT0eEJyocFqUhVxNZtEy7659MZG01LfLyz7bqB2QiNLDwbOuAkzg+JkELMgZMpu18EVU71MFwGEcKOHwCRDhZnhnS07jQEm5nm2peHugAvjdCz7xkDLvnHr24v0F++BI91KMF97WbYQvG0EshLS/1v2Dfei6wojYRC1Ix7+bdeMLLYtdMEnm95NxmO3nZrTZrPf7Fg4V251hAnc9l76vY5Opt2TkPallMvMTsqVkB6qkLhJWRseaneFBJZjaVNp8nzZUx0teR7JI+5tNsv5urcZupwH3i7JHdo+0YGRKLP0kI31sSxnRZHucLW308XcZn6ehyyXpmjcNK2vdGtJlMvXbh70RYsavMTEha64Nsuw9yG8EQUDlivyur73fgkZEaQrqIdqQZPVfh/2jsW80xrMDsRG12fZLa3Hv889ZeMgrxtGeMm+1DdipPdLdGj5UVwu7RblKTfcoo9/fBd2Ddl9nELiyuUxN5kyFivasEWySD+7y2fZmPvCy0P/8GrofL+8J747Fvve38cLFM0SiS7l25YT2/0X8Hz/wF529v61EEbuEy/9nG6tgzIrr1vI6fZ8PfhVs2btuqEDufevMqLNnTOCM9MgTnm/8PLUr0zNy/8v7fHK18+shPQwQhoZhH397SE3S67Nu/PFubj15fn+LSP61JvuuN+feontuyKJkgq6ubT3jorv+i6T7zApby+veL2VvLx9s68xxY2zfwfZSkgfEbLTri7LN37cuxhmtPKZffNpvuuphzIS3dsFY7hfenRmapBsfhvpL+5Ked547/vNVrJVIT04h2RfN1b9zkave6K+7Zb6F1D9ePACSGtv9sXat5d8sWj/iJBym6+E9Ckhu7iJ5EcYeFnFV82RX7GO/R9L+f062rKha8ILxOw/5oo3oLA/Zhv7lhX/bh9XQvoAQrrD4JURsflbz8B+kivA91C+wPIvjs/t8TIHMdc/M5i3Le2aQ3q0QvrX/175evsDCOlf68XPUE5yb2u33r48If2XvbPrbZQHovCAjS2EZOEIUipwLgq5aC5Qq1TJ//9n7xmT7TbdvtvvJHTH3U0okJR2TuaZM3bTi04A9u2aNI7fSFOAdHKHJEOA9DqQ7GR1v+UFxe8FT9ZI6fIzgTTHwb+ZpGkev/AoDkmGOKQvbaXYt/RvBUgCpNP292bS3hGHJOMfBJL0dAVI/xCQ5sROcUgyBEgyBEgCJAGSOCQBkgBJgCRAkiEOSYYASYYASYAkQBKHJEASIAmQBEgyxCHJECDJECAJkARI4pAESAKkfxRI1VyAVAmQBEifdUj6ogcd/v3/h77w7+Bv39l8gESX/ZOc7j7zcUFKen4ZNB+HNNPX4sVnijed9iMcUqpknG/MB0gSqzOOZC5ASiRW58wmP8EhDZmM841hLkASmZx3zCSbSKDOmk1+gkOq4h8E+ZSfPM3Ha527uX3wnwKirJqLQ7oABfzlJ/mWS/mbgC5NGUfDzqllZy9TIzPPFP9My47SRKYhzzhbLYsa/piZFVXIogYZsspOhqyyk1V2FyoTWfYt499ZZSeRFCAJkC7aIQmQZIhDkiFAEiAJkARIAiRxSAIkAZIMAZIMcUgyBEgCJAGSAEmAJA5JgCRAkiFAkiEOSYYASYAkQBIgCZDEIQmQBEgyBEgyxCFJJAVIAiQBkgBJgCQOSYAkQJIhQJIhQBKHJEASIAmQBEgCpAt1SPb5W4nZ/HiPzZ1zfGefnPDkqPm2tyLDV87/emkCpBMBiSNhXwqQsfaNoXw1dB8Orv3j6uwPkMmsgfSGAEzhfvHEt8vqY1nljy/5vV9QgPQOh4Q4aJs/jQY+0/ZJyLDND7LxAI+jF7/NcSz/nmjyc+vjL2atnX2qmSGQIJLjSPwO0NvioY3FE/z11Oe6e4dM7PFlHDQtQDoXkCwL49XyYwr3C5HCi/wltX1ZVrH6OGFhm169XgHSyRyScs8dkjnao1Ux9rVh4RillDkWi07H8rsagHq1bY8rX2fEIZ3DIVFSvPSezjorjLZvSQJks1TTKycp87HmD+12xxq2xolDOqdD0nX5WrCtUTH7vBBzUsU3/j0CJJHn4tDdw4rm6Zp+mEOyuaOmJBOrmtggw50ZeQ8Hg1t1ua7quvHQjTVjwCgOErL8KEPlspgebx6bd+aLhEPdfkdT185N19pulXUzZ9IsgTQs0xjlqYN7qCuNLr2iPAbexBwzSWDSwq87nGZoCN43iX4qkyddPBP356zEd1ccfPp+7yZNuigO53a3h6sVIJ0SSI85g0LxSy5TwGN8D+qI94YyP+qc+lr/Po4jfDqly+y3EqKy7KPIPt6oi5rMHehzSCoxgTF56GrdYh9Sy+MlOvd9rR8B0v85pNhwCyV3XqbOXJ5PeyYLq6c7a3UZ8IrXxvfZAADFh+nYKMGG0to+PhzKITzsC4qL2LC7dlyAk6XY8CFq9zPRyU8DUubTQ3wPqpgCXvrp5ZA/akf/aoFMASOOHQyW71XShMOh2KqZBJZzMzB2ZnETanprD/Bpe47IVQwifiL+srhBIROvVoB0QiDFTh1NwWyKKZS/8wL/QcRpD28AAsNyORA1NeShowyisjirULLMDkqYsomOT2z1x1/6h2eKmuwWrLlJx/EpsVG5eKn2l2yw/7prZ7D264c5JErL0hdlOWDTlfDZljLeM5QD1JXWdUqRMXWAKLRDxtBUeFJlWSo9lFAVHqsiNExZDMQbSV1n9AU9fGq7rlXMwda1O4jDtd1uf9t2q3mvEZynQ/LJgPjGy69r1g/lZZ0NcEgQzKBViYM01LViF2R5g6wZsjpT9WCpCFy51Fy7DAVkg/o4Qzbgv9KdZRWf/Ki79wqHqq7rViy81Urd3uKZVh2cdXvbikM6tUOiIcGr30AJTaGK0nJ1YOqa84Id1FCXjBPooGaxlE3Tk21qrZBB4k0GDdgSj0+W6cDJKD/kIBNFhhQzfDCkDJt2s2lBva69X0Ax1yyTVhv8d/i0dch3Ves2m1WspLpNd7/YCJBO7JAclaFZhiaMEEEII9/XIfCeIqfaj80SBQxOA5CQPwyAhG1PaYMDjQ8pMk2zHLjASUPofY/yp/TN6OvP5wJHu/3+DnKhar/dbvc753B7t9/vOwHSGRxSDzEUiEYJVfgS5cG4bMY+KBaML73vKS/4UIb0wRshY1/U8L+Mml7Hvow12BEapakfcR4yEhTUNyFUUXe+Cb1+L5Da/fZuS1Evu+1+v6JuH2WyqwRIpwYSGDP6kJCGNBrfADtZQDqANjTum2WPoA+cIGCghlD6hK1U5uGUBlZJ6Jd9v6xtOqmNK2E+udSsjlAHfqKP/jg36/uHxY1xD4vF+uZm0cEoLRabxfpeVw83i0WFzNbilJt1h62rxdXDekVGWnYnn0MyOehhXE59A1PMrV+rfGmVyXPUMUgXRj86JBMKlWYeqcSY0JSJynNjKsjJ5HocIc0+IQVo2WHJ+z5LJJdf37XkdMUNmN0djBFyTiVzSGcBEioTKhHWwQ8aUAJAlinpwisdpxFTpXAHZ1wErmQSoj4ASIMFu5BQoq6gFtYTRQ5BL0aPKJELnGyQoGK9o98/S2Cds7sDkFZ5Nc064lY5cUhnAJLhxj5C3FhoBnVLKDT4AqSEURPnBexBSezLfPA21HBIABIb5Vi20NhQ0cAh1TqqDedRlBMMle+zRH00pHS9brW+3hgks82Ccwg2AKDWIaE41zGQdLvutL5fEA6stH64lzmk088hWU1c7kL+uGPwwK6qUB5WgiszsBjYIcU5JHin4MeEW69c48SWrEHWMVQxgrj9i6onSVVMQJ8LJjdyq/0tsUPqSLs9Vy7tvorTXTKHdHKHVHGVWzBR0iRdlnbkapfnkJArlkpbS3EPIISqF4pIfaqQZMKAtEOh54kAqA3bPHugDg6pmKySjp/lOPjuXyGy0UsfgETObrfILDyH9HvJhADpdEAqiC2z5g1D4E22TGJ4ASQOLm5KD/2oZsQGn4kT08khpfwgCKFuKOUlNASW1UElSeIn0SSfmD7Wbn117XTsAnYLsnGs1i0yVlw9dXBIzsbNbq0JLonM5QvoxzmkKBIYpCSamtJzOxdsQpWph6YZA4D01CGlWRqnr/Mwrc3LrWGHhGqIJxgMzlw2GL6gL1hqR6v95JBuaTJL7JB0Lg7pHHNIKX78KGF7H+Nbx3VUVAYVscQ6iHtshbKYN3S6HIzPLIqbptaHRVeoXqbckkaHxM+niwYeiz+z3BF+/9o4XvV3ANKWpptcb6NPEod0YiDpyKHac6mB4iDiB0CivpmAxBEupwTRQ1LcXTlySAykvG7iogajWW3xZEjKWC6NP7zKzsL+LBaLm451sllwJa3ZIV3z2jpeeHdwSNUEJLe4um55CkmAdFqHxN+Q9qUFSLjzxsWNsRoOidGS+CJNWFB5BBLC5nx9WIXiYmZh32tVdEiQkDa8HK5mh5TECYPP/qidre4mh3RLoFLLy77318/fvUGAdKJVdjqmmb4xaZrYCBNFvOw7+qQcwW/YBrEcYHzYIWWKgRQd0jjGVbuaTZDiFRJspxTf6L6hCUhxitK821hDjNEWPQGSZYdkpGV3JodU+l8OqYihVnE6AHZpAhI7pMTwXBLi3o88h5TZKDDoBl6qGHUSZyLhkIqgoDZeDM5o0x/tuiAZaU2rLq7uZofE4mBHtJqABEvkHH9eaQYS39wsrmYhnx/3XnaWW3Y0tWNiZx+OhC00hPYfe1fXm7gORJ1ksGVZikKFk6xC+kDSh0W60UVU6f//Z3dmnPBR6BZatm24YxA1thNS5mSOjz02eQyAnV+K6c1qhXJ314WFEBrOwbqmnoHihQdK+Zj8EGUi9Wk+otXeL4+KuGip4BfHN/QvIGHf3zOHhJgg9UMUpBKvQ+AcdoaBhls48ttjiaH6ocpENSkkQIWU5QiIto54qpHqgdsgaND/0JgOD+kxEq8M+7YU7Y0sFF5ZLKXGbn9ffSYhpFsopAYN0SH9kEJCDkJfkgU70xtL/ZGIS9BTkLpu59RDQViZdlRIypcQYQlgsaEoTqV9gn5mVttPmBTZiK71YQ2pWa8omyKen/AFaCCveqAiJCTLhLR4+KUmsm7g/nZqUGXpGmdUmze+m8c0n1TWrvEqLevMNfMuSZwr86bJgOaeedlb1Lgcj5qB9Q2qaudoRQodHlFUuPN1fYPtW6Hvt/9u+14t/u2RlVgsPb5s++3jtDdznOjC2Mb5eYm5rvauLlN0LKV35TyBrCF0OK10iVWonG1SYxUK7xhZjIIasKibO5fzbHbnG+rwzHJskzcc/IByC2WSYST6613Ntn956fuKeispkFiyaosFvSikr1dItfMd9V1qEsk0z+zRHVCoA72xNK6ifI4lSD/YdUGTU7BMMycPM8ODbAhqiPPOuXmJorohb1Ki6mo6AtmH93FVj0/P6/VqmCoqik2lqs3maVMUWi2KYoW5JSxZIT0t1OJhhWk9hX3K7m4vO9oVht2AmTVdE/NKkxgZyhv8U7okaxKNb7FNhl0VXonCh1DJTBnPGVTjqu06F9EqM4+Z5AaR2aoPSUH/S9m0X9DilyUWVEJIX05IkWc0DPb1gPd13JV+hlIpYzA4JJTEdbyPlNKYaY1JfGSwK+xneJgv8SgayUOU0XkJL1mGneWMgmkyPiwg8dqw70cCybZ/tNVvlGn4goSkeyGk7xmya8uOFhn58cW0XemIBmg1kvY0FIc9GPQUKvbamNbNAP1K6WY+Uh4FeAZtBgtGG4XRGEKbBmgbBtkHCYnXSRbPzwUvYTTLoigqUxWc8NpCZqke1yktV0LKQqJaF0/rCTia+5tDooXtHKcAQaVaG9Zb0wYJAMPiaeax1MAQuwT0NKFNaGwoxM4EuhrO93nPjSeiC+DThWXWluJjJh7WMMnNVYMheBdDGCxAyDCMhACPneVN2H2BV8DzPg3K7jfopZZqgB0EBA1bNtASfrh2nISH7Ax/fGoCig3v3mDTv7hBpxDS23NIYUNk8hZ28AuMG8Mj7aEuQCAYijd5GW5ymjkAWmYSIAU8o0AteJKAPA6YD0c1hIvlk6lxk4bguwb3BqmivYPwytWqoAsqVrIw9uvnkHgv1TABnA7xAqGEN/VPeXewlN7r/W8QGMMF/E5jhmaiDW9DFXadMjfZApXWB1AaPnb47DSVdUhfr5DIqimbgK0x7HSID94KjCFAE3uaNiMLq9uG/enCM2xVx/AY2/D2hONBZneY/gB0AkwoY8YXLhOF9OWENG5hx4sFgZwIxZyEvepS3rCOc8PudQEOnBt2PeTjiJKGLQ9HCBHIPgaOHYDJk6UMDnIs9GmEWp0GsOjgaLCHRdENKI7Wy+JhqVIhpC+fQ+IYlFc/dRRK9j9QY8yroDmzKzFDdlfCR8ovu90XIVl7hAhznBltvzP9wRuzb3gKjwFBe5zdIDjzUDwJIX1xUINv7aF5zd6mZm/mQ09hTwBkz3sTY06c0LWU9Bp5hgX+7lLHOlLq683muaimsHJAfjH29L43wj/3T0gCASGkdwjp0t8xMh/qOvwFgJm3inl4ehpTA/eokCQJIX2KkCQJIY0e/h4gY4ZRYPk9pCkqJElCSJKEkO4qfXZ8UAhJFJIQkhCSEJIQ0v8siUKSJIQkSQhJCEkISRSSEJIQkhCSEJIkUUiShJAkCSEJIQkhiUISQhJCEkISQpIkCkmSEJIkISQhJCGkv6eQBELf6GmEkCRdAJPFVAhpId5ECOmzCknSd97BUyEksdU3pukoJLHVd37996CQZrGk70vTUUhiq2/FyUQ8oljqW1FyF4QUxdFRik8e58vPpVgeFz/465oMIbVvWDz6Gd/kXaHv5BueDCGdepMfbZiJ4ObCdCeEREN2APvnuXE9/k2bc6WvniKarxkthakN2Z2xOPyQb/Ku0Hf6DU9qyG46XuHHIPgqPLz1vIshO5CgBomyu4iQJKhBouzeJyQJapCghk8rJLGkEJIQkhDSTRSSEJIQ0icVkhCSEJIQkhCSEJIQkigkISQhJElCSJKEkEQhCSEJIQkhCSEJIYlCkiSEJEkISZIQkigkISQhJCEkISQhJFFIkoSQJAkhSRJCEoUkhCSEJIQkhCSEJApJkhCSJCEkSUJIopCEkISQhJCEkISQpqWQDD/P/6v7KmPfbvZNdvhxV3TXhPSHr/sHWIKQenfcOXFCugkszMGreJP/gULC25iebxgp1IZmcL4ZlqU6DR5Bv2qBJea2mDm6ODATxdAECens1x3se1Sl8fFnq2Cl1u8Y7hRK70HDwAkjGSGk7ySkwWWYa6zKLQ6bkWHh5ve5sak5A6CJIubuFFL6JmsYPVahwQgl5pyCog1n2ZqgzJFTOC35OIJeo9KwNzTT7OdMUyHpU/Mrti9Vjfam9EcbDIB5p41RcAVw8IPT9BAf5AzV5Blp0oRk2GUcmJkK3nEH7DDwD8Jj6AfjI9GJhhvz0e4D9oCz+px7mwKG7m0OyTin0v3w3M4KdFNj1ehD47zZexFz0F7NnMsIMrBohw7zaGMVtePpjLEHVVcKdrySRXU8tmi0Wj8tVWqOsHNtz1oI6WJCUnEdqYNRXDIoRC2QJdoy4h6JijJMM7XT1QdYOvjvW+di2I/GjJgZGzHFtZG6GCjUvd2+pGD3J7CqeoSpq6QpEtK+A8suAw5uYgNJm8CRO7CH3iE4DOxl6nY3fqNVVtdzr/TNhlgYHI8VHHOlVsVTBXaS3uTeFBJ0ndVjL+GIB1KsUqOLiEoPR3izoSujXN5183mrEDvzSJHkxs6GDlbO5gFK2nCp4U/QF/d9aXTHorw2qaqetOWBwZSeyEOpWq6qcZhovGiyzAQmEyZJSLM8gnRnejaz8iVoYpicDE/v87Kscwdscj32PHXQV5TR1MuZl2WeKezD6L3sNqO5NUtfXWegLycka/ttGHlOLV9jqrb9bbyYENJHCIlNH3XcnzXhnkd3MKtn5CB27oBBYQd4MDayPFFGMwNpBhF+B1HZqNvwEfsOAsf6IfTB030RehN15E2wbhre5N4UEjTdMM5CBgDuJnCjFKsICjQeF4blxho15Gzj7CzPkJeajHA5T/hEw7gN/kVCouNYiNPwTrYeroAAACAASURBVKiCCz0NaXxszZdQPfCB9LtfVGj4JXSOx6umXLVZi0L6K4QEs3k0mH6wLxrGl2yLlg2PFX5OvZCceidhHDeAgeZ3hjNaaLFauVqHNgrdEANiRBm9wdc6u9QbMKogoGo4AX3o9jfmzKQl0vQIabzDD1Bid/5AqYghROOxll+oPNzIDA+gHmwCkMwz/n0/qsebGrrmNn2LYUAZT7l8UMP56QPCFRnFMwNqgA0VV8/LCYQP3ptCUk3TlmVGiGmbsqHBF2i7sonRY3SoucF77Po22IochG89VWHjrOzKzttsniJc0KCuKXNshViKHZ4PD8SSOR1nYrcAFbsEVIJVLlYX8hHY9fOqqADWm9XTptgsVVVsikW1KYwtKKdStSiqYlWkgI/1ClsvJajhLymkeevKJsGvfNaUXasgck1N9o1VViNgPCkkVMQAcw8qcmVHmALKtNjRdb7MstIZ1ZXUZkZDOnge7DIrn6GpfQaYQVC1oLKmyUvX+QtDYtTjtv/nN2Gy6qvttsK/2/7lpd/2IEN2X6yQ2IZliyjJOnYZ1JVhO4NvuhzLUP24GcogF0PcNC5uG3IMeJDXwIMsrJBarEqyBiUWeSGlbxCuB3r9H3vX96M4zgSdxNiyLPmLo/wahfCQhIfLQ3RoEPP//2dfVTvMzr2x2p1ZzQp0x4QQ4E4uqrq62800dScVuq6qwB6DBpF05ogYtsbDjiJ66obLtAbWCLrpAjZRT0H6aoek5ugb30JIltaXc8wJC19uMdOEgvPjAWe8bxtWbMaxafpYW93EZunhrQ6t50/pglH8HGcPDJqxL+X9vN9azzNLPCjBWgGlavr+UXipS7UeL9UprN3l3HXdAMB05666dsbxFMClTufrup4vEMvrdDxWqw7umbL7DEFa4tY0caQyASawOZn3ffQe8cXSbkCQB+fQERusfUEMgFdsHXlQ6gxIaH2Dl42eaRtFyzUDbrBL2waJ6mclSNzaAwTJx83PzaMwOd1ub6/KBXd7u/3z+u/gBp643f551pC+WpB0P/qG6HCJMsx9nXO1E0QpALFFuyByndu5RxCscGk5blZJyo4OacHFDF5pd3v/WxpU9AQ2uVa1WbursIkbSCtgE1XzlNGsDFzAJp0KYboO63lQwT4F6csdUq+V9dGSKrSaN63GBhYaYsR/51TLtoohsNWjDwlQuFjlIA/VtGPPIjUELRomTAw4Rvne3lN2CpDMFQgtYx2CH/5oyi6cj0rrlwBbzZSdtQHSB/HR2uLUqQJe1Mv5qPXxXEOZBqXX6tnU8Gk1pMWqGkufLYhAmNdHyNEzvwFBwvo2I2tITVP2Y209c3nNWOi5x7JBp7JYK6BlLFWEING5sEBJnBBysEkiSHgVEMZsSfyplJ1WNwqSur0BdK+v4JPwduN/2jNl99UOiesIF6zB5OARhIfpTIk4FzxQM0lmIgUpLmQIqhCT/TBGGnFLGWstDsnqOnotWd/f45CcPp1f8FEnppaZstOIiXQN8Ukpw2MVRJBOOqwVD/AV7abwDWDy1zkkrHcBd1QYxDWFaqLOEbYWrkEwPG9bqlc7F4guiBaCHt6Jeh3gfJzKSz+ybGAXaWoAyg5luYGIUgoHnpsOSZ5F4NyUmXo0tS8OaVDgF+ClsIF9FjXDFpYiCR5xSCcFuRpEkFRX6acgfV4NyVhEq4gtygXLHwzkBPeOS+sQfNQQpG1sPaw1VMUo4gjXFeCbvGhzx4clz6S+BdCSsSwaiCDt8Y+RioGtceFPtDiFsAvSK97pJoKUmhqeDunLBckLibBBRZMsLGMLYyzpgHwBy5QESSijSE+WbYlIJs4/HJLROaIcI91W2+9oakBITYd0Ips4CBL3TpJDahVSi1SFI43HQfOQIa6+TCo8BenrHRL5YGnrrE2tcha40RQTo+bW91tqrrNjckiNC5bhaxl9M7IJz2q4lb7ne0QxU0U/bvPYM/sLh2Sl/JArBj/4XN+P0T/cPmXWqaquLBUNAImgCoIEYSSEht0hQYcGBj/dtHbV+h1GIn3TGlKOEBLhbj6O84xFRPALf8PkPBdel7DSYoVKhiywQTDQKUEHYCxFm9m46L60e8pOO/ZSCQMlh+TvVsmDuoSTHm/GDPouSFZUCWQDhxSegvRHBInfe+4DQeDK/4m23FcJOIDGWHsXJO3SOjvdsPrM+jPiE0tBcgxn8mSRNaBhfrnZDR9fd9fqzHIzu+zYBZXC2dSVKYIkAgUxAsNfwCbn4Tvg5290SAIhCWVsMyoJXuCQmENxeaodUYrwNwU9uLPZPPuGm98KCZXH3SG5pGSMnVnhjNL3+Z6yAw8pabMyD0GI6SBbn1cVxFGnHZCyX4BNpFShQIFKDkkdr6wyuacgfVYNKQODQE7mUWnNdhcjguTEIWnhEthr5YGkREsIbKwEzHg+g4mCIMH4zECGMqVVSZCiuRsjnZAoj+iQnHu4G/ODQ5JDAPb1n6cg/ZEaElc+fe9lhS3YQhsm2Y0EpnYXJCM7RZIT1ntq32rJ6YtKJUGSdl46pF/Wo70Fc+DmRbVOCV3CIXyStigkh8TsXa3VeiGbPFN2f8IhIbSlxdEb/jWsDeEAqGismmclXbwBizk2SZYAulhqsebsE29gp3QWU1xUs5cTfl3Z/t0hgX5qIBNElallRgACJ/ZYzk6fLtAZVa2BoUuQ5m5lIEiiSHaoEN0kc8Q7KJNjasA9mxo+qYbUwAa1ByiKBTroc1gpxGKIQ1K7Q7IWT7GDRcuFDZ8CnkAvECTbN/DiECMfnbR+Sy8D65cZKwbzrH84JP3gaCgZb0WHBOjdXjXM0hsjJzgkq55t31/vkHqjwjiDMpjft2y2xVqbrZQIJSde1JhoZXdI8ocV6TEHDMA6DVTJATEZN4rgBZu39tdXUg8X6Iw5HwGRtbJpKwrrSloyL3eHFJJZOrGY5J77kP6IQ+rnPtLDZH3c4oZQIuvHLc6IONn/5KgkPo5tHPsspWCoL00bcWtUMbdjH9k4p4o+clc1/sy9jz3UIxvHEZBz3DA54234CX30j3ZPha6artVUA0L1VFXVChGqzjg4KXOVoy45JKkfXc9nnDrppyB9kkPyfd+SOOK4bWyqI8NggQ+UH2sRjjjWDBVFy2D9+Qx7OHGAlW9z24pDAhgAigUxMsAG4GgEQbGfQVJsc5DuBuMsABfnRzeBDG9yG9TtTSeHBG3CidenQ/p6QdrAJmOh7pRRq0LWuYC6YMVHCVfYB4U4dxl5ycgC8wgSmR2TdzjXMLyRV+eaBzi3/PJWJFWDSqbqom1QNTikOqpVOGSC/EwVyKNaWTqyUj8KE9lkevkGbPLXTWrIM1OWrNAoVzYL41IV5ADKlHE0zFKofDkcDsvB6LxA0IC7bMOZvGFd6ICLZXKYKnBNpnRRNrnKc7Y/1cuyZIhuFrxfDvuilqZc7GMD7rhN7bSuQ0jvPQwDbNAgt6BDOoCpHhBDBWbsLsNpeLlM3yBp9y1n2ZmDWxqOBVKyvodcy6iXBegoDpwLc3A2O3BpDwCXPXBjEfc/YsVhW/FO+OLYvAYY8qaU3W58SnZMEn8Z4uEM76kzaXoxQNvhwehU76j4n65ZEThJWUCfhuH0FKQ/UEMKTcldzxkWEOjYv/RpL6wQBBwREGDxHSgWuQavJmccZLc12CTH+tfpKb5NOtC/aFW47X84rkPatEvE1D/YxKWDE9gECCSbrJcXPJ4u3yBp99dN+2by1koAwg7M+/hLfR9CeN9TrTVdrpzR3DBgpF0zh88V+0u4yL7rtCM66Pd9+vuEBrvPTbQP22C7z44I9r4JP+i021rvO/85ICvtzHe6k93X3VOQPkWQZO6lSlvvtYyMuo/rEFDInAwuiowKS2M6VCpFp7ZaztXkPzoNBElFAa0ScKSLX+3DPBjb2LS+DwUu9n0GjE4plv3N7Tssn4L0tTWkNDVDxmckQNi0zkIl9ykOpAO9s5H7MHBX7b3e6Xaf/KB+2anY9N7yIQmCKtw/5H2OSCC1BP6FFOF2uTw3xn65Q5KFDvuPUJiP4zPfx15+nFCVzmi20m39yPl2eLHZhyUaK2OqnNknJtr0awT70Cr307PsLIgmyDvagBuYi/fpVJp2hUvSAzVU0/U6VYMLT0H6DIf0/vc/RybNJHsfTvZhaGG4TwI3yRKn6ezWfhg+eIeb+TCH9X2u5cM4SXoUPkJ0n3r4vW/ftsvuvij3b/+HGZn7UbpE6OE+8lDWe79i/3qb/SXBmd9QymHvS5qHuSOGJ3gDOoORjyHh8FFQx7Owyekb7Iz9S38x9qd+CUs2vZZNmdv//jbaPaT9P3vn19yozsNhAcIaxjMezEBKhzgXgVyUC+acyU7z/b/ZK5n+SdvdNrvvJg05+rUlBBygkfBj2QKO3tPxa0G/+SQ1Ko62QE97eJ452g7KFUrrcVwbcHpz1XMA6ZdtBnqy0ZuZuX1DR4Z7dY4jB/iw4O12/+Na5M1V86Oa5dXixXuLvxj51Tno2BeOVxV/6+mLH56Y9byXo73NsbWDer0e16RJDZePkP6wtVHAc7/exb74LxkpqF0Aj/QR5qrbBBI99ekvSPTTyoUkpxeW0eV7oxHS79vRFNd0f38JtAvjFvEkawWS6lYjpBt4Uu9M1jhGoBfGLiRCutK2zkK6eRRIqhsF0i3VJwupTTRCUimQVAqkGwfSYsCpEZJKgaRSICmQFEgaISmQFEgKJAWSSiMklQJJpUBSICmQNEJSICmQFEgKJJVGSKq/XNMokFQKJJUC6ThCItX3aFkRktrru9xkUUBSe32Xm9xMhKS2VCB9DSSVAkmBdNW6CSDJ4yRU36VhIUBy6ibfq4UASfWttckNAKkwqu8ULSVCMtkVyrx/d/w7r73K4z7t/3ldnCwFSMmivu6l+sOvSt9ChKRSnQQkucXk579/NIb5k7/Tt4XyaK7XQ3ir+Nyuuchne7+O6cv/87PvVZ5nt5QuO6C/4RZHroGnlTxp+sHTjjeB8ObL/+ztBf3hy7Pu+BgVSKr/DJCWm2W3/PxArDXL7tKOQm8X0AIciRRIKgWS6vyXq2nat0qBpFIpkPQ6JAWSAkmlUiCpFEgqBZJKpUBSICmQFEgqlQJJpUBSKZBUKgWSAkmBpEBSqRRIKgWSSoGkUimQFEgKJAWSSqVAUimQVAoklUqBpEBSICmQVKqbBBK9TD4tQ6cW/oM7tjiin+5NgfQ9QPrMAPS6nr7j5jw/OTYq3FIdRoGkUiB9OJsLQ19DZn419FXhLwu8K04FwNtK5hYiuwUDabYIfW7e+PKbpv5bQPpwuAi4UKdRIKkUSG/P73jfYfrshJYaCuemabyx8eeFC/rN6gG67rhae9mbAunbuuzyFH5pXoT4JGKMzYhPyHUuHolzvN0nbNYG//84XYGkUl0ESO9n6KjrDTIb2gboqD+E3pcusCnBxGpWChf40oFHzxN6oQmZZoCTW85S7PCPe2FcbH0/dOQWHigtEkjPXgGtFXO/dYW5g85AYvkTBvI+R0xseaGolp6dA7vxnUsbuNut4QOJ8AO4FEgq1fcDSfo0pCkbW7NubtnG05VPWl4XQtP4ntfJEp4UaLj5a+azn4sV0hrmGkrWoxReSWGDsUwkEG9GNlVghBYUvoRTawOp/Yru4anCA6kbCXH/yHujRRNpiUASY8SWCXALZXYBBhC+tDjiM7dh8DXbCcvVBCC+wDbnMua8xuIGCu9EhopgrGbnEN90MkPQjRnOfo5PROIwrjYaIalUVxkhGUoyTBIGCWRpLWdxZkCiowwanwGUrQGTSf2TRS6kSew1wyxNecZkZrKU8Ucaz+fP0Eq9kKWZkM0YihP+A/6UbCEJpcmyEwewyGWZi4x0Du/50HiBOzxC7bTL7rJAikNHaUriJG1D0QW4jZGk7BpImRgrY78pBp+yeaFchRxbbskwspIU4OwddZt7x7SscaxcbRzxpGYnlwHQupipmUG9mf3WbeqxGnUMSaW6RiBB37ehaf0ApgnBWyygDFyJlCHBaQJ5KjsvabluaSauj4YQQs+gQS4c2gH4/crzXA0t1z9GWtH4tB20lj/VWwDbW15CsmIlnz+xeYrd4cD84WN82D/ynIMHXnDYH/ZOu+wuHCFxU4Mtl6N02YkxgYPlnpeU7B3sBljzpA+ezesbbNre5m3PYVIysW/kcNaABLttVTFi3I9qt+PZNayratv9W/2Amt9uDTrotmO1296Do66SIhsFkkp1lUBqJxdaanscOHopV2XhYApQ+wYg2PgIZkaMFyB5Do9WjUlDD1j60qRMnGQYQp8Pg0EuzK3lQsqVZuCPM8/QCKeg92XCW4Z8KL3Ny/zEq1uwXm/2e+ADejw8bB7+eYT7rjvsN12HCqRLA6nva6aL4CeIMdk7+jbPGp8D+pIwWQ1sXjb9MOTQhDxMjZ2Q2jbNrM/OGSOR2d0V9fijLrruruq6bsNuMu5+3K3X4DqecwKk3V29qbaA97sR6moEp2NIKtVVAqmByRZW+ldYE79i4S2/OmFM0jRlxvjhRm4TEHtmEQw+ZeqQFJdJy9hCMFw4jhvFUW+uk7gO4wALeUPIMyhk4mCLm9QyXnVCbRC7ifDxCUj8KWFT4faPSKBjSBcGUhxCgtwn0dxs2haSVc72YPOCjAtmHGIjF4hO1ARoVwXH1+w3bMPQxAHEMwnqXRddsUAOjeKIKMJmt+bDkUy/dVWzJ3c7x7M7w3989HcVOI2QVKqrBJJlIIGdAAbbW2+JAZCvggwDM2OGqeWKZ46QAlMl9H0/rQbKgp9sI4NIc9oVkURIMZHOlxwYlassAonXYqRcnFDty5jvcOLoAKNoBtIe5okrDo+gWXYXH0Mq0DS9bSOQmjlaLn2GBplMAiRK/EAGhlUi/bbsKU0PDKRmxd7Sr+w5zeXgbre9GzfsHDBuyXHsIxFRLXO8MgJJ3s+zm12HsP0XCgWSSnXVEVLp+6YMvTCmXIWaoxsOahwkPieJkIoIpLZsOGaqCbC0U0zAe8oDjmNI8TojLzUWV1czh1qJkHijFN9l4TeAxJWNixSKLCpkQpJl55wC6dIRErWhKe0xkAZ+Y9DOQGIvkXz+wdeSfMeeUucMJGx82fBPfsY7EHFIDt14V1X3fFhjFZ1DAMSAiomjTCGUCIlddl05gnH3o9rWpEBSqa4USMUcIU3t3P9muHYppxYLsIGXDHOEBPjUC8dKgDLpwpE6qUD+iOT6WuYVpD3KyBNxnWS4MMkGicmEc4QEEiGd3mWHKF12UEQgYZwUhwcA7bK7NJA4Zs6QYo+c9NCCbUm67GJHrIwhQTZHSJKWKQkxcjlAL112hsskZ7UWmUy6jGVciCOkecwT7ne1OGXsspNu5W7nYoSE7m7ddYBO075VqmsEEvMEGUhce1ifp2VoE0QOk2rPmElXfTpMXPEkK5sOIRDk3qZ52wLjZ0jTKcgVKNMkSQ1MsT7PQ0scTpWpJDUU5apMy1UP0nkTQyVDJth8OPXOrlh3m/2h62oZQ3IyhuQKnm66jUZIlwZS4m2S96vSxKSGJiY1sAtIUgNMIU/tiiMkxlY5DKnkwBRGcjSpbfO88en5IiSJhqpxcz/uOpARom7N7iJJDcwdRzGpYd1teIVESEypbjeu1+MG9MJYleoqI6S+AdtQY6HofeiHYKlpudJ8yv0OoWxlxvu+mXDO/p04Qkqsb0Mrd5FBWdRmJBngfsr4VG9i7i+fUdYHayXtW5LJ+0ZGxnmLvj+xfgJJ+2Z19PgoA0k84WX7w2Gv1yFdGEjRcG1p2Sn6xno2LxHZmPZtIGt9aNpBKnkrpqeSPYXja0uUPaWGn/XrHKtqW60lcc7dxTlewNr+j70z2m0UWcJwAe1uIaQWrMBDhOFi4MZHOshHrJr3f7NTVU0SZ3ZWO1nJ2J78f2JMGhLjUPB1VVeXaxq+69p/TPddgPTdk48tsjeABEEPBqStWKbzRgIdWUIy093EYIeE503idIK+yxOpsJDrxNiYvpSndSzsQGS0tgNRkuncQ3Kp1g/j+1FtDG2VWuKf0dy8XwvZ6UL2jiXStiqZRo7vCfq3v1dSA5/UPPUaLOWzXcsUaSZSlmqFD0OJpdhCMZ6qRRGMpuZl6W1Pl75oPahRyapUadgOPx4OaUBZk/DYzf7fN2n49v0JshoAJOgLekju6tvQdvd5K13mYiE7Z+MmLdNCeSzoTOYdHNum1/sXma24WORSLCIUiwld/8ovX5pvJfauYQUg7echuXdTyONp1XpBlMdKg9oz0dNrYykh91rizhLd+GQ5tUnn9fX9VuiQD2Orgahr+uCFpz//qOt6+OMbWXhIEPTAQHorn/l2+7+qanpdXzW/rph6xQiX/xwZ7q3K6odPTvpFH+kaSO66qCuAtGfI7s1CPp5B5z6akXMf+zh7eLLyGts8V/dqbO/2utnO1imi4U8J5n3zDmNIEPSAQPokG6AvCqQHv3n/6m5S4q72Es4DkCDoWYEEAUi/g2RmkiHj8XlIEAQgQQDSne/y/24UE0CCIAAJQAKQvqwAJAhAggAkAAlAgiAACUACkCAACQKQIAAJQAKQIAhAApAAJAhAggAkCEACkAAkCAKQviqQ6mcBUg0gAUgQdHsgSUHUBxP9+OP719v31Q8Pr789RnoeD+kZ/s/Pos/+LwlAgr4MkDLofkqeBUgJztUdBSBBXwVI0wG6p57DTFKcqHtqApCgr+IhfTbacPuvnwc56McX3+VYbvR+otwzhezc3ezhd/v6fIgPHhL0ZYCEpAYkNfwzkJDUgKQGCAKQfmsR0r4hAAmCACTMQwKQACQIApAgAAkCkCAIQAKQACQACYIAJAhAggAkCAKQACQACUCCIAAJApCeiwBx+Sgfcg4gQQASBCA9F5DYkj1/fZogP+7PINIZv3muE1lfwQQgQRCABCABSL/IFSeHaj5JJMEP/fArph6GbnB5zcsXeEgQBCABSADSJ+/btmMNxnzSRzLDQB9bKKzLGojO/LQQgARBABKABCB9StRdVtbiNXanD+diEM/lMZzHXlQM68nzto+nsJB9dbJkqS3eO2M8nQEkCHoUILm3+IfTy/l+1+RfXt89wnDz1wOS3Mi9jcMqPzsnrwkBud379Hjq1pOvu0sgZ8jogynFkv+02cJ5Etcz2sLPEuPjB+OHn3NtZgo59pAC5byzyQEkCHoYIHGP0Wj3kh9yOd+NADo+4K5eXyL/7umJ9HxA2gZq5F+vgy8fhvylbXMyBAR7ZwOwhzSQp2WhLoTgeeENA2U5MVzqUIclWCaM4ZaOdzuFcPancK5DWFfev6YwsIXzkjcykLx2ggAkCHogD8nabTuVc0J/wYTd7Z7D9wj/sTduPTyk/T0kY4t5LKyaAtVjQx96DXm2dRJMOpc/MZdberVegUS0hLxbllUww2RZz2ENhp2nhcHDcHGLthCdZQfZZ5HlwhxiklneMQLJR+sCkCDoPkByH/Jntw5iM5Im0lozHg+kQZoYjHHO5navbrC8xLr67abo4wGGM9knD9s9Y8jONs1cZaRDLYfjvJmHGIWzlLYpxbXyWMiajM28Bu+serl53PkmHtIaTudwORlDg1CI/aOVj1QYc+IHb++4hd/Oaa3Z4T9dgkb0zH8Xx+4/b66NUIntK4Tt/QJIEHQPIGlQjvliNB6jURl5alqJuUsr1dID1g/GI+UAN6XlYYfLNcaGfC0gIv1QOHlxI91cem4iPWXIzriyzyhG5bLMbPE5UotIq0RPimyyxjn3ai6MKEOunHLtxdAtoq0+JjUsgXS1M16SEzx3rdhSukvtvZhMWLtzd74EdoZOTCtNaliCkwwHx5tfmFl59JDi3wSQIOguHhLjpZyc55sGUVmUllxWTnNflmVNlpcHufMkE/eQUxnvdVNRzn2z5SfdOF5Xn06nQW55w5CdzxnRcDqtgW8t8JD29pCYKAqk3BzYXhJpp6QpSu4rTGVTNWwohtfKiX/F2SmbmlJhlTZN0Y/sJR2aZrrJeKR6QNJVcblG3pgnki2XewaN+ERCJrdcwsLSuBy36VkIi4nZdqt8SxN7SB4eEgTdD0ie7zN91fTVbOq2H/u+pqTtq6rt24NJ27bqveN9qrFtj5OxNPZFy/1ht0fIToYALot2XdewrBqCWaU7HGoAaW8giREIkKjp26N0SExZzWwvByr6/ti3fUFsHO2xZCPJ+nFuq4LX2HDGqmFeFNU8V+0N0sjVLdroYTS/wRvmi8/NehYPia2XybQs+oaMJuW9GM/vxyxBM8HJr91yFoLBQ4KgO4fs5OqbqvlQZ3QouLvLtxFvqWjJxkGBps/lvnKciNqWaDomhtqRdklrcN67sAFpyOtVcqAkEJN5eEg7A4nPRQzZ5bnN8l6SGqhlBLkmJUuHKhWLMM7VVUnWZBVvKo/cKJhqqsxIu8maW8xrigkJMRNwWF8k/iyIonCpeeUs81yH6Dp1i3cywOTjoBZ7SIooHy7iNDnPHpLDGBIE3dFDkrDK4XgwjmSgJuG7jLGOgWRcHCZoem9y7uiqmyRkIkNju8vV6rbZizGq4p0MPBsZEPiYiwEg7QEkCdlVOobkHPVNbhlIbVrHoaOpStlehAhZrx4S4yfPqsnJCm9NuKVIMgmrudt4SOLyMHXUf+aDCuuysIPEm8KyXII6TbIiW2SfhZw3Zxl6kiBet7KvJBdCnBgr4UkACYLuMobEV6Z2cHmlaNv5WEhYo1DkaL5d9JAqK2yylPZNMlX7DCHpbMwNSAvFRW6WQB5ZdvsDKd88JMddEzUAOrR9z2hy4iEdKGahCIEikFzNXrWb2zRlz1oGoPq+Lc0NzpzJuniYJgtd6E6duEFDCDKa1K01NwkGvbY4ejl1vEunlVRlLTOe/arOKNpCTJjhxQlAgqC7AMlyF/YgYwLNcUozCcfl4iFZryPZTCH7DiTHa23fmF2GkARIyljyCwAABNlJREFU6hZdAcmJh2QRstt/DEmMoM6j/yAekqTSpVNzbIxVD0ly8a1L+tJtQBIPiRLGkMxkkz82FcfJ3MBIjOZKbPmiWqdhq9QgztOLZGpq14rlZR8+cPXmZI617GzYa9JcBq+OVRAa8YoBkCBo9zEkuUSTKpNaKnPLF2hbRCDpFc0Xc9nL2puHdOgTI1f0DkRw+jkAUt/FxFiKAilfzkTkELLbFUg6JUBNQe/1fcMnJSszY2iedQwpo5iVT33Ji4yXLqkmMnMjRXocpaUsb+Jav1cykixuv/2k2Ql0XmvjYy07nWOXx9p2ry6210yGVbL0dLrDcD6dO3avzufQodo3BN3BQzLTOB/nokhkUmNTtJV0ccuqGMeEkqJoj+NY8iYBUmUprVpWme9CBBp0On3otA8bJy/SIgVf4CHt7CEZu5mCoXIsjn1RZLbti2ZkN8iyHzQXY+moGcdjWxQuO5bG1UeG0FzNbcu2dajapmn7hG5x5n4yyXszIN/V/2SpjJ9BR5BeXax8e8LnIUHQ/kCiaSyKYixqvtXMc5MVjfl/e/eymzYQhgHUJcYjCwkRKZYqVVmZTTcs+/6P1rlAgiFQUgU7FufgUl+o6sLf+eKxGbeh7uLKRQykvG1bLbt0zqBrqm2MrtXquRulQyOdCfiThndpf/1O557TtblV80cgTRBI61IKm6rdlHqJm7pd329Tg59qKGVVlzd1bdMtq9DEHHpK1bJ6/VnHud0uVtTYzXz4xzefwvHwe4chwd8OswQSjN9lV7re02neNO5KFfK37+N8HqkhbWvy947iitxZU9X9rmru/h82d9mlwSPq+ANslf/+/V6spxzw9UG77PalkL4ZWx2G0E6dqfm6u1wudXsopdS/V4bX7l7z2aPnp/RH8uAN4zbpNwRLKBn0DQkkHvAIKf482DRxCiGPQHa4e8w6XTkQ4nN8pC8kpbPATVP1z92mWz1vRmpa1lmaCYenvM4R0shHSPHDz7WQhzp8K4p0NXgZ5btJI9XFpXWeCWlryBfD9Juue+2rNJTd+LemmPfVmAKJhwykUAx7U/YLZUtbrqoLIXXT7Hb9cuKrCmY+3vcsL/veV8KgKI7rZH+/kjIT9q+qtn0sl8373UwQSHA1kNpbL1HITUzusNG2PFwg/UeDWvqD6zoE5SKQ4NZA+sShSdOWzhkE0i1Hsqla1vJIIMHXB1LpjtG8CKSH6V8VSPBtAwmBhEACgSSQBJJAAoGEQEIggUASSAJJIIFAQiAhkEAgCSSBJJBAIHHPQHqZSyC9CCSBBPcPJO+Bt/+GIySf1ZRvv0DiQVrE7YLpLOcSSEuf1YS2AonH0P4YWhxNVzbddfrA4ujX2dpvPl31Mo8yebqw+4tZfABvlXNaMMMtg9ecLI1VDxe0WioeTroL0vHipZedTV+8GxfX1mUn967tI5MU0IjT5+qpVM5pwQy3DF5zsuSzhbFS6L2JrweLJ6r330+mEVTHjzIdVo60B3f6d82wTD6oiUuVcb/pgz05TGdP548Lqy8/Ji4y7RQAAAAAAAAAAAAAAAAAAAAAAAAAAAAAAAAAAAAAAAAAAAAAAAAAAAAAAAAAAAAAAAAAAAAAAAAAAAAAAAAAAAAAAAAAAAAAAAAAAAAAAAAAAAAAAAAAwNz8BRp1RZZHHC45AAAAAElFTkSuQmCC;imageBackground=#C3CAD9;" vertex="1" parent="1">
                    <mxGeometry x="-840" y="-390" width="1710" height="1024.98" as="geometry"/>
                </mxCell>
            </root>
        </mxGraphModel>
    </diagram>
</mxfile>